{"glyphs":{"0":{"ha":699,"x_min":59,"x_max":639,"o":"m 349 927 q 506 873 441 927 q 605 714 571 819 q 639 458 639 609 q 605 201 639 308 q 506 39 571 94 q 349 -17 441 -17 q 192 39 257 -17 q 93 201 127 94 q 59 458 59 308 q 93 714 59 609 q 192 873 127 819 q 349 927 256 927 m 349 823 q 185 458 185 823 q 228 178 185 269 q 349 87 271 87 q 470 178 427 87 q 513 458 513 269 q 470 735 513 647 q 349 823 428 823 z "},"1":{"ha":699,"x_min":108,"x_max":618,"o":"m 309 106 l 309 768 l 146 759 l 146 844 q 253 872 207 855 q 340 913 300 888 l 439 913 l 439 106 l 618 106 l 618 0 l 108 0 l 108 106 l 309 106 z "},"2":{"ha":699,"x_min":47,"x_max":636,"o":"m 465 654 q 424 777 465 732 q 304 822 382 822 q 121 722 208 822 l 47 795 q 172 894 107 861 q 320 927 236 927 q 464 895 403 927 q 558 803 526 863 q 591 662 591 743 q 548 493 591 582 q 430 312 505 405 q 245 103 356 219 q 393 112 334 112 l 636 112 l 636 0 l 55 0 l 55 77 q 282 316 194 214 q 418 502 371 418 q 465 654 465 586 z "},"3":{"ha":699,"x_min":35,"x_max":627,"o":"m 321 91 q 448 131 400 91 q 496 243 496 172 q 433 368 496 325 q 222 412 370 412 l 222 510 q 407 557 350 510 q 465 679 465 604 q 426 783 465 745 q 320 822 387 822 q 136 739 220 822 l 66 821 q 327 927 182 927 q 470 898 408 927 q 564 814 531 868 q 597 688 597 760 q 555 554 597 612 q 439 468 512 496 l 439 463 q 575 384 523 442 q 627 239 627 326 q 589 104 627 162 q 484 14 551 45 q 331 -17 416 -17 q 35 109 147 -17 l 100 193 q 199 119 145 146 q 321 91 253 91 z "},"4":{"ha":699,"x_min":24,"x_max":661,"o":"m 543 238 l 543 0 l 420 0 l 420 238 l 24 238 l 24 326 l 393 913 l 543 913 l 543 342 l 661 342 l 661 238 l 543 238 m 420 600 q 427 781 420 646 l 422 781 q 349 647 399 736 l 159 342 l 420 342 l 420 600 z "},"5":{"ha":699,"x_min":37,"x_max":632,"o":"m 314 91 q 409 116 366 91 q 476 187 452 141 q 500 293 500 233 q 479 396 500 351 q 418 467 458 441 q 320 492 377 492 q 247 480 278 492 q 173 440 216 468 l 106 482 l 134 913 l 588 913 l 588 800 l 248 800 l 226 555 q 289 581 258 572 q 355 589 319 589 q 497 555 435 589 q 596 456 559 522 q 632 296 632 390 q 590 130 632 201 q 478 21 548 58 q 328 -17 409 -17 q 162 16 231 -17 q 37 104 93 48 l 100 189 q 196 117 146 142 q 314 91 246 91 z "},"6":{"ha":699,"x_min":64,"x_max":644,"o":"m 412 819 q 252 737 313 819 q 188 465 192 656 q 282 542 227 513 q 389 570 336 570 q 524 537 467 570 q 612 438 581 505 q 644 273 644 372 q 607 122 644 189 q 510 20 571 56 q 376 -17 448 -17 q 217 35 288 -17 q 105 188 146 86 q 64 433 64 289 q 111 714 64 603 q 235 876 158 825 q 406 927 312 927 q 626 838 545 927 l 556 756 q 492 803 530 787 q 412 819 454 819 m 366 473 q 276 447 322 473 q 191 364 231 420 q 220 214 196 276 q 284 118 244 151 q 375 85 323 85 q 450 109 416 85 q 502 174 483 132 q 521 273 521 216 q 481 422 521 371 q 366 473 442 473 z "},"7":{"ha":699,"x_min":61,"x_max":640,"o":"m 61 800 l 61 913 l 640 913 l 640 831 q 483 579 538 703 q 405 321 428 455 q 376 0 382 187 l 241 0 q 274 302 247 167 q 354 559 301 437 q 494 800 408 680 l 61 800 z "},"8":{"ha":699,"x_min":57,"x_max":642,"o":"m 221 480 q 132 573 166 519 q 98 693 98 628 q 130 815 98 762 q 221 898 162 868 q 359 927 281 927 q 491 897 435 927 q 578 813 548 867 q 608 690 608 759 q 590 604 608 646 q 545 526 572 561 q 488 469 517 491 l 488 463 q 642 227 642 375 q 607 104 642 159 q 507 16 572 48 q 351 -17 441 -17 q 201 16 268 -17 q 95 106 134 49 q 57 233 57 163 q 104 376 57 313 q 221 475 151 439 l 221 480 m 355 831 q 254 794 290 831 q 217 693 217 756 q 268 581 217 625 q 412 503 319 538 q 475 588 452 541 q 497 683 497 636 q 480 759 497 726 q 432 812 464 793 q 355 831 400 831 m 517 231 q 487 318 517 281 q 411 379 457 354 q 287 437 364 405 q 205 351 236 401 q 174 245 174 300 q 197 160 174 199 q 262 100 221 122 q 353 78 303 78 q 474 120 432 78 q 517 231 517 163 z "},"9":{"ha":699,"x_min":54,"x_max":632,"o":"m 320 91 q 423 126 382 91 q 487 238 465 161 q 510 444 509 316 q 419 368 475 395 q 308 340 363 340 q 175 375 232 340 q 86 475 117 410 q 54 630 54 540 q 92 782 54 713 q 191 888 129 850 q 326 927 254 927 q 550 818 469 927 q 632 473 632 709 q 594 198 632 308 q 487 36 555 89 q 326 -17 418 -17 q 202 6 255 -17 q 100 75 149 28 l 166 155 q 233 110 187 129 q 320 91 279 91 m 328 826 q 251 801 286 826 q 196 730 216 775 q 176 630 176 686 q 216 491 176 544 q 330 437 256 437 q 422 462 376 437 q 507 543 468 486 q 459 755 507 684 q 328 826 412 826 z "}," ":{"ha":282,"x_min":0,"x_max":0,"o":""},"A":{"ha":755,"x_min":-2,"x_max":758,"o":"m 214 267 l 133 0 l -2 0 l 302 910 l 454 910 l 758 0 l 618 0 l 536 267 l 214 267 m 466 500 q 378 804 432 611 l 373 804 q 286 500 328 633 l 245 372 l 505 372 l 466 500 z "},"Á":{"ha":755,"x_min":-2,"x_max":758,"o":"m 214 267 l 133 0 l -2 0 l 302 910 l 454 910 l 758 0 l 618 0 l 536 267 l 214 267 m 466 500 q 378 804 432 611 l 373 804 q 286 500 328 633 l 245 372 l 505 372 l 466 500 m 315 980 l 435 1137 l 581 1137 l 422 980 l 315 980 z "},"Ă":{"ha":755,"x_min":-2,"x_max":758,"o":"m 214 267 l 133 0 l -2 0 l 302 910 l 454 910 l 758 0 l 618 0 l 536 267 l 214 267 m 466 500 q 378 804 432 611 l 373 804 q 286 500 328 633 l 245 372 l 505 372 l 466 500 m 280 1137 q 312 1078 288 1101 q 378 1054 336 1054 q 444 1078 419 1054 q 475 1137 468 1101 l 552 1137 q 500 1026 544 1070 q 378 982 457 982 q 255 1026 298 982 q 203 1137 212 1070 l 280 1137 z "},"Â":{"ha":755,"x_min":-2,"x_max":758,"o":"m 214 267 l 133 0 l -2 0 l 302 910 l 454 910 l 758 0 l 618 0 l 536 267 l 214 267 m 466 500 q 378 804 432 611 l 373 804 q 286 500 328 633 l 245 372 l 505 372 l 466 500 m 314 1137 l 441 1137 l 575 980 l 470 980 l 380 1072 l 375 1072 l 286 980 l 180 980 l 314 1137 z "},"Ä":{"ha":755,"x_min":-2,"x_max":758,"o":"m 214 267 l 133 0 l -2 0 l 302 910 l 454 910 l 758 0 l 618 0 l 536 267 l 214 267 m 466 500 q 378 804 432 611 l 373 804 q 286 500 328 633 l 245 372 l 505 372 l 466 500 m 255 1136 q 308 1115 287 1136 q 328 1063 328 1095 q 307 1010 328 1031 q 255 989 286 989 q 202 1010 222 989 q 182 1063 182 1031 q 202 1115 182 1095 q 255 1136 222 1136 m 500 1136 q 553 1115 533 1136 q 574 1063 574 1095 q 553 1010 574 1031 q 500 989 533 989 q 448 1010 469 989 q 427 1063 427 1031 q 448 1115 427 1095 q 500 1136 469 1136 z "},"À":{"ha":755,"x_min":-2,"x_max":758,"o":"m 214 267 l 133 0 l -2 0 l 302 910 l 454 910 l 758 0 l 618 0 l 536 267 l 214 267 m 466 500 q 378 804 432 611 l 373 804 q 286 500 328 633 l 245 372 l 505 372 l 466 500 m 313 1137 l 433 980 l 325 980 l 166 1137 l 313 1137 z "},"Ā":{"ha":755,"x_min":-2,"x_max":758,"o":"m 214 267 l 133 0 l -2 0 l 302 910 l 454 910 l 758 0 l 618 0 l 536 267 l 214 267 m 466 500 q 378 804 432 611 l 373 804 q 286 500 328 633 l 245 372 l 505 372 l 466 500 m 554 1099 l 554 1010 l 201 1010 l 201 1099 l 554 1099 z "},"Ą":{"ha":755,"x_min":-2,"x_max":798,"o":"m 681 -297 q 583 -265 621 -297 q 544 -174 544 -233 q 576 -74 544 -121 q 650 0 608 -27 l 618 0 l 536 267 l 214 267 l 133 0 l -2 0 l 302 910 l 454 910 l 758 0 q 699 -35 725 -12 q 659 -86 673 -58 q 644 -144 644 -115 q 662 -190 644 -174 q 706 -206 680 -206 q 764 -186 737 -206 l 798 -256 q 743 -285 777 -273 q 681 -297 710 -297 m 466 500 q 378 804 432 611 l 373 804 q 286 500 328 633 l 245 372 l 505 372 l 466 500 z "},"Å":{"ha":755,"x_min":-2,"x_max":758,"o":"m 214 267 l 133 0 l -2 0 l 302 910 l 454 910 l 758 0 l 618 0 l 536 267 l 214 267 m 466 500 q 378 804 432 611 l 373 804 q 286 500 328 633 l 245 372 l 505 372 l 466 500 m 378 1220 q 447 1204 416 1220 q 495 1160 477 1189 q 512 1095 512 1132 q 495 1029 512 1058 q 447 986 477 1001 q 378 970 416 970 q 281 1004 318 970 q 243 1095 243 1038 q 260 1160 243 1132 q 308 1204 277 1189 q 378 1220 338 1220 m 378 1164 q 332 1145 350 1164 q 313 1095 313 1126 q 331 1044 313 1063 q 378 1025 349 1025 q 422 1044 404 1025 q 441 1095 441 1063 q 422 1145 441 1126 q 378 1164 404 1164 z "},"Ã":{"ha":755,"x_min":-2,"x_max":758,"o":"m 214 267 l 133 0 l -2 0 l 302 910 l 454 910 l 758 0 l 618 0 l 536 267 l 214 267 m 466 500 q 378 804 432 611 l 373 804 q 286 500 328 633 l 245 372 l 505 372 l 466 500 m 241 985 l 170 985 q 210 1100 177 1057 q 294 1143 243 1143 q 343 1132 321 1143 q 393 1102 365 1122 q 430 1079 415 1086 q 459 1072 444 1072 q 494 1091 479 1072 q 515 1143 509 1109 l 585 1143 q 545 1029 578 1072 q 462 985 512 985 q 413 996 435 985 q 363 1026 391 1006 q 326 1049 340 1042 q 296 1056 311 1056 q 261 1038 276 1056 q 241 985 246 1020 z "},"Æ":{"ha":1141,"x_min":3,"x_max":1076,"o":"m 1076 0 l 551 0 l 551 254 l 269 254 l 140 0 l 3 0 l 472 910 l 1063 910 l 1063 799 l 682 799 l 682 532 l 1000 532 l 1000 420 l 682 420 l 682 112 l 1076 112 l 1076 0 m 551 807 l 545 807 l 469 652 l 402 517 l 323 359 l 551 359 l 551 807 z "},"Ǽ":{"ha":1141,"x_min":3,"x_max":1076,"o":"m 1076 0 l 551 0 l 551 254 l 269 254 l 140 0 l 3 0 l 472 910 l 1063 910 l 1063 799 l 682 799 l 682 532 l 1000 532 l 1000 420 l 682 420 l 682 112 l 1076 112 l 1076 0 m 551 807 l 545 807 l 469 652 l 402 517 l 323 359 l 551 359 l 551 807 m 550 980 l 670 1137 l 817 1137 l 658 980 l 550 980 z "},"B":{"ha":815,"x_min":118,"x_max":764,"o":"m 402 910 q 633 859 552 910 q 713 690 713 808 q 675 562 713 616 q 555 490 637 507 l 555 484 q 709 420 654 476 q 764 269 764 363 q 721 119 764 180 q 602 30 678 59 q 422 0 526 0 l 118 0 l 118 910 l 402 910 m 584 676 q 537 776 584 746 q 391 806 491 806 l 251 806 l 251 526 l 383 526 q 536 564 488 526 q 584 676 584 602 m 634 277 q 578 392 634 356 q 408 429 522 429 l 251 429 l 251 104 l 406 104 q 634 277 634 104 z "},"C":{"ha":789,"x_min":67,"x_max":747,"o":"m 730 815 l 657 732 q 476 812 579 812 q 332 770 393 812 q 236 649 270 728 q 203 458 203 569 q 235 264 203 345 q 328 141 267 183 q 471 98 388 98 q 581 122 532 98 q 673 194 630 146 l 747 114 q 468 -17 635 -17 q 261 38 351 -17 q 119 198 170 92 q 67 454 67 304 q 119 709 67 602 q 264 871 172 816 q 474 927 356 927 q 618 896 551 927 q 730 815 686 864 z "},"Ć":{"ha":789,"x_min":67,"x_max":747,"o":"m 730 815 l 657 732 q 476 812 579 812 q 332 770 393 812 q 236 649 270 728 q 203 458 203 569 q 235 264 203 345 q 328 141 267 183 q 471 98 388 98 q 581 122 532 98 q 673 194 630 146 l 747 114 q 468 -17 635 -17 q 261 38 351 -17 q 119 198 170 92 q 67 454 67 304 q 119 709 67 602 q 264 871 172 816 q 474 927 356 927 q 618 896 551 927 q 730 815 686 864 m 408 980 l 528 1137 l 674 1137 l 515 980 l 408 980 z "},"Č":{"ha":789,"x_min":67,"x_max":747,"o":"m 730 815 l 657 732 q 476 812 579 812 q 332 770 393 812 q 236 649 270 728 q 203 458 203 569 q 235 264 203 345 q 328 141 267 183 q 471 98 388 98 q 581 122 532 98 q 673 194 630 146 l 747 114 q 468 -17 635 -17 q 261 38 351 -17 q 119 198 170 92 q 67 454 67 304 q 119 709 67 602 q 264 871 172 816 q 474 927 356 927 q 618 896 551 927 q 730 815 686 864 m 534 980 l 407 980 l 273 1137 l 378 1137 l 468 1044 l 473 1044 l 563 1137 l 668 1137 l 534 980 z "},"Ç":{"ha":789,"x_min":67,"x_max":751,"o":"m 518 -14 l 492 -67 q 552 -104 530 -80 q 574 -168 574 -127 q 515 -258 574 -226 q 365 -298 456 -290 l 353 -236 q 475 -171 475 -221 q 454 -131 475 -146 q 387 -104 433 -115 l 433 -15 q 244 52 328 -6 q 114 214 161 111 q 67 454 67 317 q 121 705 67 598 q 268 870 174 812 q 478 927 361 927 q 620 895 555 927 q 730 813 685 863 l 657 730 q 575 791 618 770 q 480 812 532 812 q 335 769 398 812 q 238 646 273 726 q 203 458 203 566 q 236 267 203 348 q 331 142 269 186 q 475 98 392 98 q 584 123 536 98 q 676 196 633 147 l 751 115 q 518 -14 654 2 z "},"Ĉ":{"ha":789,"x_min":67,"x_max":747,"o":"m 730 815 l 657 732 q 476 812 579 812 q 332 770 393 812 q 236 649 270 728 q 203 458 203 569 q 235 264 203 345 q 328 141 267 183 q 471 98 388 98 q 581 122 532 98 q 673 194 630 146 l 747 114 q 468 -17 635 -17 q 261 38 351 -17 q 119 198 170 92 q 67 454 67 304 q 119 709 67 602 q 264 871 172 816 q 474 927 356 927 q 618 896 551 927 q 730 815 686 864 m 407 1137 l 534 1137 l 668 980 l 563 980 l 473 1072 l 468 1072 l 378 980 l 273 980 l 407 1137 z "},"Ċ":{"ha":789,"x_min":67,"x_max":747,"o":"m 730 815 l 657 732 q 476 812 579 812 q 332 770 393 812 q 236 649 270 728 q 203 458 203 569 q 235 264 203 345 q 328 141 267 183 q 471 98 388 98 q 581 122 532 98 q 673 194 630 146 l 747 114 q 468 -17 635 -17 q 261 38 351 -17 q 119 198 170 92 q 67 454 67 304 q 119 709 67 602 q 264 871 172 816 q 474 927 356 927 q 618 896 551 927 q 730 815 686 864 m 471 1149 q 532 1126 507 1149 q 557 1069 557 1104 q 532 1011 557 1034 q 471 988 508 988 q 409 1011 433 988 q 385 1069 385 1034 q 409 1126 385 1104 q 471 1149 434 1149 z "},"D":{"ha":855,"x_min":118,"x_max":785,"o":"m 360 910 q 679 798 572 910 q 785 460 785 685 q 736 209 785 311 q 593 53 688 106 q 361 0 498 0 l 118 0 l 118 910 l 360 910 m 650 460 q 577 719 650 635 q 352 802 505 802 l 251 802 l 251 107 l 346 107 q 574 196 498 107 q 650 460 650 286 z "},"Ð":{"ha":883,"x_min":41,"x_max":815,"o":"m 815 459 q 765 210 815 313 q 619 54 715 107 q 387 0 523 0 l 146 0 l 146 440 l 41 440 l 41 506 l 146 512 l 146 910 l 380 910 q 617 858 519 910 q 765 706 714 806 q 815 459 815 605 m 679 459 q 601 716 679 629 q 371 802 522 802 l 279 802 l 279 512 l 483 512 l 483 440 l 279 440 l 279 107 l 371 107 q 600 197 522 107 q 679 459 679 288 z "},"Ď":{"ha":855,"x_min":118,"x_max":785,"o":"m 360 910 q 679 798 572 910 q 785 460 785 685 q 736 209 785 311 q 593 53 688 106 q 361 0 498 0 l 118 0 l 118 910 l 360 910 m 650 460 q 577 719 650 635 q 352 802 505 802 l 251 802 l 251 107 l 346 107 q 574 196 498 107 q 650 460 650 286 m 413 980 l 286 980 l 152 1137 l 257 1137 l 347 1044 l 352 1044 l 441 1137 l 547 1137 l 413 980 z "},"Đ":{"ha":883,"x_min":41,"x_max":815,"o":"m 815 459 q 765 210 815 313 q 619 54 715 107 q 387 0 523 0 l 146 0 l 146 440 l 41 440 l 41 506 l 146 512 l 146 910 l 380 910 q 617 858 519 910 q 765 706 714 806 q 815 459 815 605 m 679 459 q 601 716 679 629 q 371 802 522 802 l 279 802 l 279 512 l 483 512 l 483 440 l 279 440 l 279 107 l 371 107 q 600 197 522 107 q 679 459 679 288 z "},"E":{"ha":731,"x_min":118,"x_max":665,"o":"m 651 910 l 651 799 l 251 799 l 251 532 l 589 532 l 589 420 l 251 420 l 251 112 l 665 112 l 665 0 l 118 0 l 118 910 l 651 910 z "},"É":{"ha":731,"x_min":118,"x_max":665,"o":"m 651 910 l 651 799 l 251 799 l 251 532 l 589 532 l 589 420 l 251 420 l 251 112 l 665 112 l 665 0 l 118 0 l 118 910 l 651 910 m 346 980 l 466 1137 l 612 1137 l 454 980 l 346 980 z "},"Ĕ":{"ha":731,"x_min":118,"x_max":665,"o":"m 651 910 l 651 799 l 251 799 l 251 532 l 589 532 l 589 420 l 251 420 l 251 112 l 665 112 l 665 0 l 118 0 l 118 910 l 651 910 m 311 1137 q 343 1078 319 1101 q 409 1054 368 1054 q 475 1078 450 1054 q 507 1137 499 1101 l 583 1137 q 532 1026 575 1070 q 409 982 488 982 q 286 1026 330 982 q 235 1137 243 1070 l 311 1137 z "},"Ě":{"ha":731,"x_min":118,"x_max":665,"o":"m 651 910 l 651 799 l 251 799 l 251 532 l 589 532 l 589 420 l 251 420 l 251 112 l 665 112 l 665 0 l 118 0 l 118 910 l 651 910 m 473 980 l 345 980 l 212 1137 l 317 1137 l 406 1044 l 412 1044 l 501 1137 l 606 1137 l 473 980 z "},"Ê":{"ha":731,"x_min":118,"x_max":665,"o":"m 651 910 l 651 799 l 251 799 l 251 532 l 589 532 l 589 420 l 251 420 l 251 112 l 665 112 l 665 0 l 118 0 l 118 910 l 651 910 m 345 1137 l 473 1137 l 606 980 l 501 980 l 412 1072 l 406 1072 l 317 980 l 212 980 l 345 1137 z "},"Ë":{"ha":731,"x_min":118,"x_max":665,"o":"m 651 910 l 651 799 l 251 799 l 251 532 l 589 532 l 589 420 l 251 420 l 251 112 l 665 112 l 665 0 l 118 0 l 118 910 l 651 910 m 286 1136 q 339 1115 318 1136 q 359 1063 359 1095 q 338 1010 359 1031 q 286 989 317 989 q 233 1010 254 989 q 213 1063 213 1031 q 233 1115 213 1095 q 286 1136 254 1136 m 532 1136 q 585 1115 564 1136 q 605 1063 605 1095 q 585 1010 605 1031 q 532 989 564 989 q 479 1010 500 989 q 458 1063 458 1031 q 479 1115 458 1095 q 532 1136 500 1136 z "},"Ė":{"ha":731,"x_min":118,"x_max":665,"o":"m 651 910 l 651 799 l 251 799 l 251 532 l 589 532 l 589 420 l 251 420 l 251 112 l 665 112 l 665 0 l 118 0 l 118 910 l 651 910 m 409 1149 q 470 1126 446 1149 q 495 1069 495 1104 q 471 1011 495 1034 q 409 988 446 988 q 347 1011 372 988 q 323 1069 323 1034 q 348 1126 323 1104 q 409 1149 372 1149 z "},"È":{"ha":731,"x_min":118,"x_max":665,"o":"m 651 910 l 651 799 l 251 799 l 251 532 l 589 532 l 589 420 l 251 420 l 251 112 l 665 112 l 665 0 l 118 0 l 118 910 l 651 910 m 344 1137 l 464 980 l 356 980 l 197 1137 l 344 1137 z "},"Ē":{"ha":731,"x_min":118,"x_max":665,"o":"m 651 910 l 651 799 l 251 799 l 251 532 l 589 532 l 589 420 l 251 420 l 251 112 l 665 112 l 665 0 l 118 0 l 118 910 l 651 910 m 585 1099 l 585 1010 l 233 1010 l 233 1099 l 585 1099 z "},"Ę":{"ha":731,"x_min":118,"x_max":688,"o":"m 651 910 l 651 799 l 251 799 l 251 532 l 589 532 l 589 420 l 251 420 l 251 112 l 665 112 l 665 0 l 660 0 q 600 -25 629 -3 q 552 -78 570 -46 q 534 -144 534 -110 q 553 -190 534 -174 q 599 -206 572 -206 q 653 -186 628 -206 l 688 -256 q 633 -285 667 -273 q 571 -297 600 -297 q 472 -265 511 -297 q 433 -174 433 -233 q 464 -74 433 -120 q 539 0 495 -27 l 118 0 l 118 910 l 651 910 z "},"F":{"ha":688,"x_min":118,"x_max":652,"o":"m 652 910 l 652 799 l 251 799 l 251 509 l 592 509 l 592 398 l 251 398 l 251 0 l 118 0 l 118 910 l 652 910 z "},"G":{"ha":856,"x_min":67,"x_max":769,"o":"m 758 819 l 682 736 q 601 792 646 773 q 494 812 557 812 q 340 771 405 812 q 239 651 275 730 q 203 456 203 571 q 279 191 203 283 q 497 98 354 98 q 583 112 542 98 q 650 148 625 125 l 650 370 l 469 370 l 469 479 l 769 479 l 769 90 q 645 13 721 43 q 482 -17 570 -17 q 267 37 360 -17 q 120 196 173 90 q 67 452 67 301 q 121 713 67 606 q 272 873 176 820 q 492 927 368 927 q 644 897 578 927 q 758 819 710 867 z "},"Ğ":{"ha":856,"x_min":67,"x_max":769,"o":"m 758 819 l 682 736 q 601 792 646 773 q 494 812 557 812 q 340 771 405 812 q 239 651 275 730 q 203 456 203 571 q 279 191 203 283 q 497 98 354 98 q 583 112 542 98 q 650 148 625 125 l 650 370 l 469 370 l 469 479 l 769 479 l 769 90 q 645 13 721 43 q 482 -17 570 -17 q 267 37 360 -17 q 120 196 173 90 q 67 452 67 301 q 121 713 67 606 q 272 873 176 820 q 492 927 368 927 q 644 897 578 927 q 758 819 710 867 m 392 1137 q 424 1078 399 1101 q 490 1054 448 1054 q 555 1078 531 1054 q 587 1137 580 1101 l 664 1137 q 612 1026 656 1070 q 490 982 569 982 q 367 1026 410 982 q 315 1137 323 1070 l 392 1137 z "},"Ǧ":{"ha":856,"x_min":67,"x_max":769,"o":"m 758 819 l 682 736 q 601 792 646 773 q 494 812 557 812 q 340 771 405 812 q 239 651 275 730 q 203 456 203 571 q 279 191 203 283 q 497 98 354 98 q 583 112 542 98 q 650 148 625 125 l 650 370 l 469 370 l 469 479 l 769 479 l 769 90 q 645 13 721 43 q 482 -17 570 -17 q 267 37 360 -17 q 120 196 173 90 q 67 452 67 301 q 121 713 67 606 q 272 873 176 820 q 492 927 368 927 q 644 897 578 927 q 758 819 710 867 m 553 980 l 426 980 l 292 1137 l 397 1137 l 487 1044 l 492 1044 l 582 1137 l 687 1137 l 553 980 z "},"Ĝ":{"ha":856,"x_min":67,"x_max":769,"o":"m 758 819 l 682 736 q 601 792 646 773 q 494 812 557 812 q 340 771 405 812 q 239 651 275 730 q 203 456 203 571 q 279 191 203 283 q 497 98 354 98 q 583 112 542 98 q 650 148 625 125 l 650 370 l 469 370 l 469 479 l 769 479 l 769 90 q 645 13 721 43 q 482 -17 570 -17 q 267 37 360 -17 q 120 196 173 90 q 67 452 67 301 q 121 713 67 606 q 272 873 176 820 q 492 927 368 927 q 644 897 578 927 q 758 819 710 867 m 426 1137 l 553 1137 l 687 980 l 582 980 l 492 1072 l 487 1072 l 397 980 l 292 980 l 426 1137 z "},"Ġ":{"ha":856,"x_min":67,"x_max":769,"o":"m 758 819 l 682 736 q 601 792 646 773 q 494 812 557 812 q 340 771 405 812 q 239 651 275 730 q 203 456 203 571 q 279 191 203 283 q 497 98 354 98 q 583 112 542 98 q 650 148 625 125 l 650 370 l 469 370 l 469 479 l 769 479 l 769 90 q 645 13 721 43 q 482 -17 570 -17 q 267 37 360 -17 q 120 196 173 90 q 67 452 67 301 q 121 713 67 606 q 272 873 176 820 q 492 927 368 927 q 644 897 578 927 q 758 819 710 867 m 490 1149 q 551 1126 526 1149 q 576 1069 576 1104 q 551 1011 576 1034 q 490 988 527 988 q 428 1011 452 988 q 404 1069 404 1034 q 428 1126 404 1104 q 490 1149 453 1149 z "},"H":{"ha":905,"x_min":118,"x_max":786,"o":"m 251 910 l 251 534 l 654 534 l 654 910 l 786 910 l 786 0 l 654 0 l 654 420 l 251 420 l 251 0 l 118 0 l 118 910 l 251 910 z "},"Ħ":{"ha":955,"x_min":40,"x_max":914,"o":"m 811 682 l 811 0 l 678 0 l 678 420 l 275 420 l 275 0 l 144 0 l 144 682 l 40 682 l 40 746 l 144 753 l 144 910 l 275 910 l 275 753 l 678 753 l 678 910 l 811 910 l 811 753 l 914 753 l 914 682 l 811 682 m 275 682 l 275 534 l 678 534 l 678 682 l 275 682 z "},"Ĥ":{"ha":905,"x_min":118,"x_max":786,"o":"m 251 910 l 251 534 l 654 534 l 654 910 l 786 910 l 786 0 l 654 0 l 654 420 l 251 420 l 251 0 l 118 0 l 118 910 l 251 910 m 388 1137 l 515 1137 l 649 980 l 544 980 l 454 1072 l 449 1072 l 359 980 l 254 980 l 388 1137 z "},"I":{"ha":369,"x_min":118,"x_max":251,"o":"m 251 910 l 251 0 l 118 0 l 118 910 l 251 910 z "},"Ĳ":{"ha":1036,"x_min":118,"x_max":922,"o":"m 251 910 l 251 0 l 118 0 l 118 910 l 251 910 m 652 98 q 730 116 700 98 q 775 173 760 134 q 790 281 790 213 l 790 910 l 922 910 l 922 268 q 859 61 922 140 q 665 -17 796 -17 q 406 132 488 -17 l 498 199 q 652 98 556 98 z "},"Í":{"ha":369,"x_min":118,"x_max":388,"o":"m 251 910 l 251 0 l 118 0 l 118 910 l 251 910 m 121 980 l 241 1137 l 388 1137 l 229 980 l 121 980 z "},"Î":{"ha":369,"x_min":-13,"x_max":382,"o":"m 251 910 l 251 0 l 118 0 l 118 910 l 251 910 m 121 1137 l 248 1137 l 382 980 l 277 980 l 187 1072 l 182 1072 l 92 980 l -13 980 l 121 1137 z "},"Ï":{"ha":369,"x_min":-12,"x_max":380,"o":"m 251 910 l 251 0 l 118 0 l 118 910 l 251 910 m 62 1136 q 114 1115 94 1136 q 135 1063 135 1095 q 114 1010 135 1031 q 62 989 93 989 q 9 1010 29 989 q -12 1063 -12 1031 q 9 1115 -12 1095 q 62 1136 29 1136 m 307 1136 q 360 1115 340 1136 q 380 1063 380 1095 q 360 1010 380 1031 q 307 989 340 989 q 255 1010 276 989 q 234 1063 234 1031 q 255 1115 234 1095 q 307 1136 275 1136 z "},"İ":{"ha":369,"x_min":98,"x_max":271,"o":"m 251 910 l 251 0 l 118 0 l 118 910 l 251 910 m 184 1149 q 246 1126 221 1149 q 271 1069 271 1104 q 246 1011 271 1034 q 184 988 222 988 q 123 1011 147 988 q 98 1069 98 1034 q 123 1126 98 1104 q 184 1149 148 1149 z "},"Ì":{"ha":369,"x_min":-27,"x_max":251,"o":"m 251 910 l 251 0 l 118 0 l 118 910 l 251 910 m 119 1137 l 239 980 l 132 980 l -27 1137 l 119 1137 z "},"Ī":{"ha":369,"x_min":8,"x_max":361,"o":"m 251 910 l 251 0 l 118 0 l 118 910 l 251 910 m 361 1099 l 361 1010 l 8 1010 l 8 1099 l 361 1099 z "},"Į":{"ha":369,"x_min":57,"x_max":311,"o":"m 251 910 l 251 0 q 157 -144 157 -64 q 176 -190 157 -174 q 222 -206 195 -206 q 277 -186 252 -206 l 311 -256 q 256 -285 290 -273 q 194 -297 223 -297 q 96 -265 134 -297 q 57 -174 57 -233 q 83 -78 57 -120 q 151 0 109 -36 l 118 0 l 118 910 l 251 910 z "},"Ĩ":{"ha":369,"x_min":-23,"x_max":392,"o":"m 251 910 l 251 0 l 118 0 l 118 910 l 251 910 m 47 985 l -23 985 q 17 1100 -16 1057 q 100 1143 50 1143 q 150 1132 127 1143 q 199 1102 172 1122 q 236 1079 222 1086 q 266 1072 251 1072 q 301 1091 286 1072 q 321 1143 316 1109 l 392 1143 q 352 1029 385 1072 q 269 985 319 985 q 219 996 241 985 q 170 1026 197 1006 q 133 1049 147 1042 q 103 1056 118 1056 q 68 1038 83 1056 q 47 985 53 1020 z "},"J":{"ha":667,"x_min":37,"x_max":553,"o":"m 283 98 q 361 116 331 98 q 406 173 391 134 q 421 281 421 213 l 421 910 l 553 910 l 553 268 q 490 61 553 140 q 296 -17 427 -17 q 37 132 119 -17 l 129 199 q 283 98 187 98 z "},"Ĵ":{"ha":667,"x_min":37,"x_max":682,"o":"m 283 98 q 361 116 331 98 q 406 173 391 134 q 421 281 421 213 l 421 910 l 553 910 l 553 268 q 490 61 553 140 q 296 -17 427 -17 q 37 132 119 -17 l 129 199 q 283 98 187 98 m 420 1137 l 548 1137 l 682 980 l 576 980 l 487 1072 l 481 1072 l 392 980 l 287 980 l 420 1137 z "},"K":{"ha":807,"x_min":118,"x_max":806,"o":"m 251 910 l 251 468 l 254 468 l 613 910 l 762 910 l 478 560 l 806 0 l 660 0 l 397 456 l 251 281 l 251 0 l 118 0 l 118 910 l 251 910 z "},"L":{"ha":677,"x_min":118,"x_max":641,"o":"m 251 910 l 251 112 l 641 112 l 641 0 l 118 0 l 118 910 l 251 910 z "},"Ĺ":{"ha":677,"x_min":118,"x_max":641,"o":"m 251 910 l 251 112 l 641 112 l 641 0 l 118 0 l 118 910 l 251 910 m 316 980 l 436 1137 l 583 1137 l 424 980 l 316 980 z "},"Ľ":{"ha":677,"x_min":118,"x_max":641,"o":"m 251 910 l 251 112 l 641 112 l 641 0 l 118 0 l 118 910 l 251 910 m 460 1008 l 550 1008 l 549 926 l 527 711 l 465 711 l 460 1008 z "},"Ŀ":{"ha":677,"x_min":118,"x_max":641,"o":"m 251 910 l 251 112 l 641 112 l 641 0 l 118 0 l 118 910 l 251 910 m 619 445 q 607 397 619 418 q 574 363 595 376 q 529 351 553 351 q 483 363 504 351 q 451 397 463 376 q 439 445 439 418 q 465 514 439 487 q 529 541 491 541 q 574 529 553 541 q 607 495 595 517 q 619 445 619 473 z "},"Ł":{"ha":682,"x_min":14,"x_max":646,"o":"m 646 0 l 123 0 l 123 320 l 14 262 l 14 368 l 123 425 l 123 910 l 256 910 l 256 490 l 513 629 l 513 523 l 256 385 l 256 112 l 646 112 l 646 0 z "},"M":{"ha":1013,"x_min":111,"x_max":901,"o":"m 270 910 l 441 437 l 505 255 l 511 255 l 573 437 l 742 910 l 886 910 l 901 0 l 777 0 l 774 470 q 777 609 774 532 q 785 747 780 686 l 779 747 l 707 543 l 539 90 l 470 90 l 302 543 l 229 747 l 224 747 q 233 470 233 633 l 233 0 l 111 0 l 125 910 l 270 910 z "},"N":{"ha":897,"x_min":118,"x_max":778,"o":"m 254 910 l 568 361 l 664 170 l 669 170 q 664 245 668 192 q 655 371 658 323 q 652 467 652 419 l 652 910 l 778 910 l 778 0 l 642 0 l 330 551 l 233 741 l 227 741 l 231 687 q 240 556 237 611 q 243 448 243 501 l 243 0 l 118 0 l 118 910 l 254 910 z "},"Ń":{"ha":897,"x_min":118,"x_max":778,"o":"m 254 910 l 568 361 l 664 170 l 669 170 q 664 245 668 192 q 655 371 658 323 q 652 467 652 419 l 652 910 l 778 910 l 778 0 l 642 0 l 330 551 l 233 741 l 227 741 l 231 687 q 240 556 237 611 q 243 448 243 501 l 243 0 l 118 0 l 118 910 l 254 910 m 385 980 l 505 1137 l 651 1137 l 492 980 l 385 980 z "},"Ň":{"ha":897,"x_min":118,"x_max":778,"o":"m 254 910 l 568 361 l 664 170 l 669 170 q 664 245 668 192 q 655 371 658 323 q 652 467 652 419 l 652 910 l 778 910 l 778 0 l 642 0 l 330 551 l 233 741 l 227 741 l 231 687 q 240 556 237 611 q 243 448 243 501 l 243 0 l 118 0 l 118 910 l 254 910 m 511 980 l 384 980 l 250 1137 l 355 1137 l 445 1044 l 450 1044 l 540 1137 l 645 1137 l 511 980 z "},"Ñ":{"ha":897,"x_min":118,"x_max":778,"o":"m 254 910 l 568 361 l 664 170 l 669 170 q 664 245 668 192 q 655 371 658 323 q 652 467 652 419 l 652 910 l 778 910 l 778 0 l 642 0 l 330 551 l 233 741 l 227 741 l 231 687 q 240 556 237 611 q 243 448 243 501 l 243 0 l 118 0 l 118 910 l 254 910 m 311 985 l 240 985 q 280 1100 247 1057 q 363 1143 313 1143 q 413 1132 391 1143 q 463 1102 435 1122 q 499 1079 485 1086 q 529 1072 514 1072 q 564 1091 549 1072 q 585 1143 579 1109 l 655 1143 q 615 1029 648 1072 q 532 985 582 985 q 483 996 505 985 q 433 1026 460 1006 q 396 1049 410 1042 q 366 1056 381 1056 q 331 1038 346 1056 q 311 985 316 1020 z "},"O":{"ha":922,"x_min":67,"x_max":853,"o":"m 460 927 q 668 872 579 927 q 805 711 757 817 q 853 457 853 605 q 805 201 853 308 q 668 39 757 94 q 460 -17 579 -17 q 251 39 340 -17 q 115 201 163 94 q 67 457 67 308 q 115 712 67 606 q 251 872 163 817 q 460 927 340 927 m 460 812 q 321 770 379 812 q 233 649 263 728 q 203 457 203 569 q 233 264 203 345 q 321 141 263 184 q 460 98 379 98 q 598 141 540 98 q 687 264 656 184 q 718 457 718 345 q 687 649 718 569 q 598 770 656 728 q 460 812 540 812 z "},"Ó":{"ha":922,"x_min":67,"x_max":853,"o":"m 460 927 q 668 872 579 927 q 805 711 757 817 q 853 457 853 605 q 805 201 853 308 q 668 39 757 94 q 460 -17 579 -17 q 251 39 340 -17 q 115 201 163 94 q 67 457 67 308 q 115 712 67 606 q 251 872 163 817 q 460 927 340 927 m 460 812 q 321 770 379 812 q 233 649 263 728 q 203 457 203 569 q 233 264 203 345 q 321 141 263 184 q 460 98 379 98 q 598 141 540 98 q 687 264 656 184 q 718 457 718 345 q 687 649 718 569 q 598 770 656 728 q 460 812 540 812 m 397 980 l 517 1137 l 663 1137 l 505 980 l 397 980 z "},"Ô":{"ha":922,"x_min":67,"x_max":853,"o":"m 460 927 q 668 872 579 927 q 805 711 757 817 q 853 457 853 605 q 805 201 853 308 q 668 39 757 94 q 460 -17 579 -17 q 251 39 340 -17 q 115 201 163 94 q 67 457 67 308 q 115 712 67 606 q 251 872 163 817 q 460 927 340 927 m 460 812 q 321 770 379 812 q 233 649 263 728 q 203 457 203 569 q 233 264 203 345 q 321 141 263 184 q 460 98 379 98 q 598 141 540 98 q 687 264 656 184 q 718 457 718 345 q 687 649 718 569 q 598 770 656 728 q 460 812 540 812 m 396 1137 l 524 1137 l 657 980 l 552 980 l 463 1072 l 457 1072 l 368 980 l 262 980 l 396 1137 z "},"Ö":{"ha":922,"x_min":67,"x_max":853,"o":"m 460 927 q 668 872 579 927 q 805 711 757 817 q 853 457 853 605 q 805 201 853 308 q 668 39 757 94 q 460 -17 579 -17 q 251 39 340 -17 q 115 201 163 94 q 67 457 67 308 q 115 712 67 606 q 251 872 163 817 q 460 927 340 927 m 460 812 q 321 770 379 812 q 233 649 263 728 q 203 457 203 569 q 233 264 203 345 q 321 141 263 184 q 460 98 379 98 q 598 141 540 98 q 687 264 656 184 q 718 457 718 345 q 687 649 718 569 q 598 770 656 728 q 460 812 540 812 m 337 1136 q 390 1115 369 1136 q 410 1063 410 1095 q 389 1010 410 1031 q 337 989 368 989 q 284 1010 304 989 q 264 1063 264 1031 q 284 1115 264 1095 q 337 1136 304 1136 m 583 1136 q 635 1115 615 1136 q 656 1063 656 1095 q 635 1010 656 1031 q 583 989 615 989 q 530 1010 551 989 q 509 1063 509 1031 q 530 1115 509 1095 q 583 1136 551 1136 z "},"Ò":{"ha":922,"x_min":67,"x_max":853,"o":"m 460 927 q 668 872 579 927 q 805 711 757 817 q 853 457 853 605 q 805 201 853 308 q 668 39 757 94 q 460 -17 579 -17 q 251 39 340 -17 q 115 201 163 94 q 67 457 67 308 q 115 712 67 606 q 251 872 163 817 q 460 927 340 927 m 460 812 q 321 770 379 812 q 233 649 263 728 q 203 457 203 569 q 233 264 203 345 q 321 141 263 184 q 460 98 379 98 q 598 141 540 98 q 687 264 656 184 q 718 457 718 345 q 687 649 718 569 q 598 770 656 728 q 460 812 540 812 m 395 1137 l 515 980 l 407 980 l 248 1137 l 395 1137 z "},"Ơ":{"ha":922,"x_min":67,"x_max":857,"o":"m 857 983 q 820 887 857 924 q 714 833 782 850 q 817 676 781 771 q 854 459 854 581 q 804 207 854 315 q 666 41 755 99 q 461 -17 576 -17 q 256 41 346 -17 q 117 207 167 99 q 67 459 67 315 q 117 709 67 603 q 256 871 167 814 q 461 927 345 927 q 644 883 562 927 q 725 915 699 893 q 751 975 751 937 q 731 1033 751 1000 l 824 1076 q 857 983 857 1031 m 461 812 q 325 769 383 812 q 235 647 267 726 q 203 459 203 567 q 235 269 203 351 q 325 143 267 187 q 461 98 384 98 q 596 143 538 98 q 686 269 654 187 q 718 459 718 351 q 686 647 718 567 q 596 769 654 726 q 461 812 538 812 z "},"Ő":{"ha":922,"x_min":67,"x_max":853,"o":"m 460 927 q 668 872 579 927 q 805 711 757 817 q 853 457 853 605 q 805 201 853 308 q 668 39 757 94 q 460 -17 579 -17 q 251 39 340 -17 q 115 201 163 94 q 67 457 67 308 q 115 712 67 606 q 251 872 163 817 q 460 927 340 927 m 460 812 q 321 770 379 812 q 233 649 263 728 q 203 457 203 569 q 233 264 203 345 q 321 141 263 184 q 460 98 379 98 q 598 141 540 98 q 687 264 656 184 q 718 457 718 345 q 687 649 718 569 q 598 770 656 728 q 460 812 540 812 m 393 1137 l 512 1137 l 395 980 l 302 980 l 393 1137 m 737 1137 l 618 980 l 526 980 l 618 1137 l 737 1137 z "},"Ō":{"ha":922,"x_min":67,"x_max":853,"o":"m 460 927 q 668 872 579 927 q 805 711 757 817 q 853 457 853 605 q 805 201 853 308 q 668 39 757 94 q 460 -17 579 -17 q 251 39 340 -17 q 115 201 163 94 q 67 457 67 308 q 115 712 67 606 q 251 872 163 817 q 460 927 340 927 m 460 812 q 321 770 379 812 q 233 649 263 728 q 203 457 203 569 q 233 264 203 345 q 321 141 263 184 q 460 98 379 98 q 598 141 540 98 q 687 264 656 184 q 718 457 718 345 q 687 649 718 569 q 598 770 656 728 q 460 812 540 812 m 636 1099 l 636 1010 l 283 1010 l 283 1099 l 636 1099 z "},"Ø":{"ha":922,"x_min":63,"x_max":868,"o":"m 854 459 q 804 207 854 315 q 666 41 755 99 q 461 -17 576 -17 q 222 66 323 -17 l 136 -44 l 63 11 l 159 136 q 91 278 115 196 q 67 459 67 360 q 117 709 67 603 q 256 871 167 814 q 461 927 345 927 q 595 905 532 927 q 707 840 657 882 l 795 955 l 868 900 l 768 771 q 832 633 810 712 q 854 459 854 554 m 461 812 q 325 769 383 812 q 235 647 267 726 q 203 459 203 567 q 246 245 203 332 l 629 741 q 554 794 596 776 q 461 812 511 812 m 461 98 q 596 143 538 98 q 686 269 654 187 q 718 459 718 351 q 680 659 718 577 l 300 165 q 372 116 331 133 q 461 98 414 98 z "},"Õ":{"ha":922,"x_min":67,"x_max":853,"o":"m 460 927 q 668 872 579 927 q 805 711 757 817 q 853 457 853 605 q 805 201 853 308 q 668 39 757 94 q 460 -17 579 -17 q 251 39 340 -17 q 115 201 163 94 q 67 457 67 308 q 115 712 67 606 q 251 872 163 817 q 460 927 340 927 m 460 812 q 321 770 379 812 q 233 649 263 728 q 203 457 203 569 q 233 264 203 345 q 321 141 263 184 q 460 98 379 98 q 598 141 540 98 q 687 264 656 184 q 718 457 718 345 q 687 649 718 569 q 598 770 656 728 q 460 812 540 812 m 323 985 l 252 985 q 292 1100 259 1057 q 376 1143 326 1143 q 425 1132 403 1143 q 475 1102 447 1122 q 512 1079 497 1086 q 541 1072 526 1072 q 576 1091 562 1072 q 597 1143 591 1109 l 667 1143 q 627 1029 661 1072 q 544 985 594 985 q 495 996 517 985 q 445 1026 473 1006 q 408 1049 422 1042 q 378 1056 393 1056 q 343 1038 358 1056 q 323 985 328 1020 z "},"Œ":{"ha":1176,"x_min":67,"x_max":1111,"o":"m 1097 910 l 1097 799 l 719 799 l 719 532 l 1036 532 l 1036 420 l 719 420 l 719 112 l 1111 112 l 1111 0 l 510 0 q 274 54 374 0 q 121 211 174 108 q 67 459 67 314 q 121 705 67 604 q 276 858 175 806 q 517 910 377 910 l 1097 910 m 586 107 l 586 802 l 526 802 q 285 716 368 802 q 203 459 203 629 q 286 197 203 288 q 526 107 369 107 l 586 107 z "},"P":{"ha":802,"x_min":118,"x_max":747,"o":"m 414 910 q 662 845 578 910 q 747 633 747 780 q 659 414 747 489 q 416 338 572 338 l 251 338 l 251 0 l 118 0 l 118 910 l 414 910 m 616 633 q 595 733 616 696 q 526 787 573 770 q 401 804 479 804 l 251 804 l 251 446 l 401 446 q 566 492 516 446 q 616 633 616 538 z "},"Þ":{"ha":819,"x_min":121,"x_max":749,"o":"m 253 910 l 253 760 l 410 760 q 660 696 570 760 q 749 488 749 633 q 707 328 749 392 q 588 233 664 264 q 410 201 511 201 l 253 201 l 253 0 l 121 0 l 121 910 l 253 910 m 618 488 q 565 616 618 578 q 396 653 511 653 l 253 653 l 253 308 l 396 308 q 564 352 509 308 q 618 488 618 395 z "},"Q":{"ha":922,"x_min":65,"x_max":877,"o":"m 734 -231 q 582 -204 650 -231 q 465 -127 513 -176 q 395 -12 418 -77 q 221 64 295 4 q 106 225 146 124 q 65 459 65 326 q 113 712 65 607 q 249 872 161 818 q 458 927 338 927 q 667 872 578 927 q 804 712 755 817 q 852 459 852 606 q 813 230 852 328 q 703 70 774 131 q 536 -9 632 9 q 615 -94 556 -64 q 749 -123 674 -123 q 852 -108 802 -123 l 877 -209 q 813 -224 852 -218 q 734 -231 774 -231 m 715 459 q 684 649 715 570 q 595 770 653 728 q 458 812 538 812 q 320 770 378 812 q 231 649 262 728 q 201 459 201 570 q 232 266 201 347 q 320 142 262 185 q 458 98 378 98 q 595 142 537 98 q 684 267 653 185 q 715 459 715 348 z "},"R":{"ha":810,"x_min":118,"x_max":766,"o":"m 412 374 l 251 374 l 251 0 l 118 0 l 118 910 l 422 910 q 654 852 572 910 q 735 652 735 793 q 687 480 735 543 q 546 391 639 418 l 766 0 l 616 0 l 412 374 m 404 481 q 556 521 507 481 q 604 652 604 561 q 583 744 604 711 q 518 791 562 777 q 405 804 475 804 l 251 804 l 251 481 l 404 481 z "},"Ŕ":{"ha":810,"x_min":118,"x_max":766,"o":"m 412 374 l 251 374 l 251 0 l 118 0 l 118 910 l 422 910 q 654 852 572 910 q 735 652 735 793 q 687 480 735 543 q 546 391 639 418 l 766 0 l 616 0 l 412 374 m 404 481 q 556 521 507 481 q 604 652 604 561 q 583 744 604 711 q 518 791 562 777 q 405 804 475 804 l 251 804 l 251 481 l 404 481 m 340 980 l 460 1137 l 607 1137 l 448 980 l 340 980 z "},"Ř":{"ha":810,"x_min":118,"x_max":766,"o":"m 412 374 l 251 374 l 251 0 l 118 0 l 118 910 l 422 910 q 654 852 572 910 q 735 652 735 793 q 687 480 735 543 q 546 391 639 418 l 766 0 l 616 0 l 412 374 m 404 481 q 556 521 507 481 q 604 652 604 561 q 583 744 604 711 q 518 791 562 777 q 405 804 475 804 l 251 804 l 251 481 l 404 481 m 467 980 l 340 980 l 206 1137 l 311 1137 l 401 1044 l 406 1044 l 496 1137 l 601 1137 l 467 980 z "},"S":{"ha":741,"x_min":56,"x_max":692,"o":"m 378 98 q 510 135 463 98 q 557 234 557 172 q 538 301 557 275 q 490 345 519 328 q 404 387 460 361 l 276 444 q 146 535 199 475 q 94 686 94 595 q 132 810 94 755 q 238 896 170 865 q 389 927 305 927 q 540 899 470 927 q 660 819 610 870 l 591 734 q 499 792 549 773 q 389 812 449 812 q 271 781 315 812 q 227 694 227 751 q 247 628 227 656 q 298 582 267 600 q 374 545 329 564 l 501 490 q 642 395 591 452 q 692 245 692 338 q 653 112 692 172 q 543 18 615 52 q 375 -17 471 -17 q 199 16 281 -17 q 56 111 118 49 l 134 203 q 247 125 184 153 q 378 98 309 98 z "},"Ś":{"ha":741,"x_min":56,"x_max":692,"o":"m 378 98 q 510 135 463 98 q 557 234 557 172 q 538 301 557 275 q 490 345 519 328 q 404 387 460 361 l 276 444 q 146 535 199 475 q 94 686 94 595 q 132 810 94 755 q 238 896 170 865 q 389 927 305 927 q 540 899 470 927 q 660 819 610 870 l 591 734 q 499 792 549 773 q 389 812 449 812 q 271 781 315 812 q 227 694 227 751 q 247 628 227 656 q 298 582 267 600 q 374 545 329 564 l 501 490 q 642 395 591 452 q 692 245 692 338 q 653 112 692 172 q 543 18 615 52 q 375 -17 471 -17 q 199 16 281 -17 q 56 111 118 49 l 134 203 q 247 125 184 153 q 378 98 309 98 m 327 980 l 447 1137 l 593 1137 l 435 980 l 327 980 z "},"Š":{"ha":741,"x_min":56,"x_max":692,"o":"m 378 98 q 510 135 463 98 q 557 234 557 172 q 538 301 557 275 q 490 345 519 328 q 404 387 460 361 l 276 444 q 146 535 199 475 q 94 686 94 595 q 132 810 94 755 q 238 896 170 865 q 389 927 305 927 q 540 899 470 927 q 660 819 610 870 l 591 734 q 499 792 549 773 q 389 812 449 812 q 271 781 315 812 q 227 694 227 751 q 247 628 227 656 q 298 582 267 600 q 374 545 329 564 l 501 490 q 642 395 591 452 q 692 245 692 338 q 653 112 692 172 q 543 18 615 52 q 375 -17 471 -17 q 199 16 281 -17 q 56 111 118 49 l 134 203 q 247 125 184 153 q 378 98 309 98 m 454 980 l 326 980 l 193 1137 l 298 1137 l 387 1044 l 393 1044 l 482 1137 l 587 1137 l 454 980 z "},"Ŝ":{"ha":741,"x_min":56,"x_max":692,"o":"m 378 98 q 510 135 463 98 q 557 234 557 172 q 538 301 557 275 q 490 345 519 328 q 404 387 460 361 l 276 444 q 146 535 199 475 q 94 686 94 595 q 132 810 94 755 q 238 896 170 865 q 389 927 305 927 q 540 899 470 927 q 660 819 610 870 l 591 734 q 499 792 549 773 q 389 812 449 812 q 271 781 315 812 q 227 694 227 751 q 247 628 227 656 q 298 582 267 600 q 374 545 329 564 l 501 490 q 642 395 591 452 q 692 245 692 338 q 653 112 692 172 q 543 18 615 52 q 375 -17 471 -17 q 199 16 281 -17 q 56 111 118 49 l 134 203 q 247 125 184 153 q 378 98 309 98 m 326 1137 l 454 1137 l 587 980 l 482 980 l 393 1072 l 387 1072 l 298 980 l 193 980 l 326 1137 z "},"ẞ":{"ha":930,"x_min":121,"x_max":873,"o":"m 483 927 q 677 868 599 927 q 792 706 755 810 l 608 502 q 873 239 873 445 q 841 108 873 167 q 747 16 808 50 q 607 -17 687 -17 q 463 12 528 -17 q 355 88 398 40 l 428 172 q 506 112 465 131 q 594 93 547 93 q 671 112 638 93 q 721 163 703 130 q 738 239 738 197 q 681 352 738 306 q 481 422 623 397 l 472 505 l 656 710 q 587 788 632 758 q 478 819 542 819 q 311 753 370 819 q 253 555 253 688 l 253 0 l 121 0 l 121 577 q 161 758 121 679 q 282 882 201 836 q 483 927 363 927 z "},"Ə":{"ha":931,"x_min":90,"x_max":861,"o":"m 475 927 q 679 870 591 927 q 813 708 766 814 q 861 458 861 602 q 811 207 861 314 q 673 41 762 99 q 470 -17 585 -17 q 271 41 357 -17 q 137 205 184 99 q 90 451 90 311 q 92 472 90 459 q 94 492 93 485 l 730 492 q 693 665 725 593 q 602 776 661 738 q 464 814 544 814 q 344 791 400 814 q 246 728 288 768 l 186 819 q 311 898 237 869 q 475 927 384 927 m 470 96 q 594 131 539 96 q 684 234 649 167 q 727 392 718 301 l 225 392 q 264 234 231 300 q 349 131 296 167 q 470 96 402 96 z "},"T":{"ha":743,"x_min":35,"x_max":709,"o":"m 35 799 l 35 910 l 709 910 l 709 799 l 437 799 l 437 0 l 306 0 l 306 799 l 35 799 z "},"Ť":{"ha":743,"x_min":35,"x_max":709,"o":"m 35 799 l 35 910 l 709 910 l 709 799 l 437 799 l 437 0 l 306 0 l 306 799 l 35 799 m 435 980 l 308 980 l 174 1137 l 279 1137 l 369 1044 l 374 1044 l 464 1137 l 569 1137 l 435 980 z "},"U":{"ha":895,"x_min":114,"x_max":781,"o":"m 247 910 l 247 372 q 300 161 247 224 q 448 98 353 98 q 599 161 544 98 q 654 372 654 224 l 654 910 l 781 910 l 781 378 q 448 -17 781 -17 q 203 76 292 -17 q 114 378 114 170 l 114 910 l 247 910 z "},"Ú":{"ha":895,"x_min":114,"x_max":781,"o":"m 247 910 l 247 372 q 300 161 247 224 q 448 98 353 98 q 599 161 544 98 q 654 372 654 224 l 654 910 l 781 910 l 781 378 q 448 -17 781 -17 q 203 76 292 -17 q 114 378 114 170 l 114 910 l 247 910 m 385 980 l 505 1137 l 651 1137 l 492 980 l 385 980 z "},"Ŭ":{"ha":895,"x_min":114,"x_max":781,"o":"m 247 910 l 247 372 q 300 161 247 224 q 448 98 353 98 q 599 161 544 98 q 654 372 654 224 l 654 910 l 781 910 l 781 378 q 448 -17 781 -17 q 203 76 292 -17 q 114 378 114 170 l 114 910 l 247 910 m 350 1137 q 382 1078 357 1101 q 448 1054 406 1054 q 513 1078 489 1054 q 545 1137 538 1101 l 622 1137 q 570 1026 614 1070 q 448 982 527 982 q 325 1026 368 982 q 273 1137 281 1070 l 350 1137 z "},"Û":{"ha":895,"x_min":114,"x_max":781,"o":"m 247 910 l 247 372 q 300 161 247 224 q 448 98 353 98 q 599 161 544 98 q 654 372 654 224 l 654 910 l 781 910 l 781 378 q 448 -17 781 -17 q 203 76 292 -17 q 114 378 114 170 l 114 910 l 247 910 m 384 1137 l 511 1137 l 645 980 l 540 980 l 450 1072 l 445 1072 l 355 980 l 250 980 l 384 1137 z "},"Ü":{"ha":895,"x_min":114,"x_max":781,"o":"m 247 910 l 247 372 q 300 161 247 224 q 448 98 353 98 q 599 161 544 98 q 654 372 654 224 l 654 910 l 781 910 l 781 378 q 448 -17 781 -17 q 203 76 292 -17 q 114 378 114 170 l 114 910 l 247 910 m 325 1136 q 377 1115 357 1136 q 398 1063 398 1095 q 377 1010 398 1031 q 325 989 356 989 q 272 1010 292 989 q 252 1063 252 1031 q 272 1115 252 1095 q 325 1136 292 1136 m 570 1136 q 623 1115 603 1136 q 644 1063 644 1095 q 623 1010 644 1031 q 570 989 603 989 q 518 1010 539 989 q 497 1063 497 1031 q 518 1115 497 1095 q 570 1136 538 1136 z "},"Ù":{"ha":895,"x_min":114,"x_max":781,"o":"m 247 910 l 247 372 q 300 161 247 224 q 448 98 353 98 q 599 161 544 98 q 654 372 654 224 l 654 910 l 781 910 l 781 378 q 448 -17 781 -17 q 203 76 292 -17 q 114 378 114 170 l 114 910 l 247 910 m 382 1137 l 503 980 l 395 980 l 236 1137 l 382 1137 z "},"Ư":{"ha":915,"x_min":114,"x_max":937,"o":"m 937 1010 q 895 908 937 945 q 781 856 852 871 l 781 385 q 693 78 781 174 q 448 -17 604 -17 q 203 79 292 -17 q 114 385 114 174 l 114 910 l 247 910 l 247 378 q 300 163 247 229 q 448 98 354 98 q 654 378 654 98 l 654 910 l 712 910 q 801 937 771 918 q 831 1002 831 957 q 810 1060 831 1028 l 904 1104 q 937 1010 937 1059 z "},"Ű":{"ha":895,"x_min":114,"x_max":781,"o":"m 247 910 l 247 372 q 300 161 247 224 q 448 98 353 98 q 599 161 544 98 q 654 372 654 224 l 654 910 l 781 910 l 781 378 q 448 -17 781 -17 q 203 76 292 -17 q 114 378 114 170 l 114 910 l 247 910 m 380 1137 l 500 1137 l 383 980 l 290 980 l 380 1137 m 725 1137 l 606 980 l 514 980 l 606 1137 l 725 1137 z "},"Ū":{"ha":895,"x_min":114,"x_max":781,"o":"m 247 910 l 247 372 q 300 161 247 224 q 448 98 353 98 q 599 161 544 98 q 654 372 654 224 l 654 910 l 781 910 l 781 378 q 448 -17 781 -17 q 203 76 292 -17 q 114 378 114 170 l 114 910 l 247 910 m 624 1099 l 624 1010 l 271 1010 l 271 1099 l 624 1099 z "},"Ų":{"ha":895,"x_min":114,"x_max":781,"o":"m 247 910 l 247 378 q 300 163 247 229 q 448 98 354 98 q 654 378 654 98 l 654 910 l 781 910 l 781 385 q 755 190 781 265 q 681 71 728 115 q 556 -9 633 27 q 476 -72 505 -34 q 447 -144 447 -110 q 466 -190 447 -174 q 512 -206 486 -206 q 567 -186 541 -206 l 602 -256 q 547 -285 581 -273 q 484 -297 513 -297 q 386 -265 425 -297 q 347 -174 347 -233 q 361 -109 347 -138 q 390 -63 375 -80 q 436 -15 406 -45 q 198 86 283 -10 q 114 385 114 182 l 114 910 l 247 910 z "},"Ů":{"ha":895,"x_min":114,"x_max":781,"o":"m 247 910 l 247 372 q 300 161 247 224 q 448 98 353 98 q 599 161 544 98 q 654 372 654 224 l 654 910 l 781 910 l 781 378 q 448 -17 781 -17 q 203 76 292 -17 q 114 378 114 170 l 114 910 l 247 910 m 448 1220 q 517 1204 486 1220 q 565 1160 547 1189 q 582 1095 582 1132 q 565 1029 582 1058 q 517 986 547 1001 q 448 970 486 970 q 351 1004 388 970 q 313 1095 313 1038 q 330 1160 313 1132 q 378 1204 347 1189 q 448 1220 408 1220 m 448 1164 q 401 1145 420 1164 q 383 1095 383 1126 q 401 1044 383 1063 q 448 1025 419 1025 q 492 1044 474 1025 q 511 1095 511 1063 q 492 1145 511 1126 q 448 1164 474 1164 z "},"Ũ":{"ha":895,"x_min":114,"x_max":781,"o":"m 247 910 l 247 372 q 300 161 247 224 q 448 98 353 98 q 599 161 544 98 q 654 372 654 224 l 654 910 l 781 910 l 781 378 q 448 -17 781 -17 q 203 76 292 -17 q 114 378 114 170 l 114 910 l 247 910 m 311 985 l 240 985 q 280 1100 247 1057 q 363 1143 313 1143 q 413 1132 391 1143 q 463 1102 435 1122 q 499 1079 485 1086 q 529 1072 514 1072 q 564 1091 549 1072 q 585 1143 579 1109 l 655 1143 q 615 1029 648 1072 q 532 985 582 985 q 483 996 505 985 q 433 1026 460 1006 q 396 1049 410 1042 q 366 1056 381 1056 q 331 1038 346 1056 q 311 985 316 1020 z "},"V":{"ha":720,"x_min":-4,"x_max":724,"o":"m 135 910 l 275 431 q 313 298 296 359 q 332 230 317 281 q 360 132 346 178 l 366 132 q 423 332 385 192 l 450 431 l 589 910 l 724 910 l 438 0 l 283 0 l -4 910 l 135 910 z "},"W":{"ha":1093,"x_min":26,"x_max":1065,"o":"m 162 910 l 252 427 l 269 330 q 302 134 293 190 l 308 134 q 370 427 336 277 l 491 910 l 610 910 l 730 427 q 793 134 751 332 l 800 134 l 848 427 l 938 910 l 1065 910 l 882 0 l 720 0 l 591 524 l 585 556 q 550 731 560 668 l 544 731 q 500 524 522 626 l 373 0 l 214 0 l 26 910 l 162 910 z "},"Ẃ":{"ha":1093,"x_min":26,"x_max":1065,"o":"m 162 910 l 252 427 l 269 330 q 302 134 293 190 l 308 134 q 370 427 336 277 l 491 910 l 610 910 l 730 427 q 793 134 751 332 l 800 134 l 848 427 l 938 910 l 1065 910 l 882 0 l 720 0 l 591 524 l 585 556 q 550 731 560 668 l 544 731 q 500 524 522 626 l 373 0 l 214 0 l 26 910 l 162 910 m 482 980 l 602 1137 l 749 1137 l 590 980 l 482 980 z "},"Ŵ":{"ha":1093,"x_min":26,"x_max":1065,"o":"m 162 910 l 252 427 l 269 330 q 302 134 293 190 l 308 134 q 370 427 336 277 l 491 910 l 610 910 l 730 427 q 793 134 751 332 l 800 134 l 848 427 l 938 910 l 1065 910 l 882 0 l 720 0 l 591 524 l 585 556 q 550 731 560 668 l 544 731 q 500 524 522 626 l 373 0 l 214 0 l 26 910 l 162 910 m 481 1137 l 609 1137 l 743 980 l 637 980 l 548 1072 l 543 1072 l 453 980 l 348 980 l 481 1137 z "},"Ẅ":{"ha":1093,"x_min":26,"x_max":1065,"o":"m 162 910 l 252 427 l 269 330 q 302 134 293 190 l 308 134 q 370 427 336 277 l 491 910 l 610 910 l 730 427 q 793 134 751 332 l 800 134 l 848 427 l 938 910 l 1065 910 l 882 0 l 720 0 l 591 524 l 585 556 q 550 731 560 668 l 544 731 q 500 524 522 626 l 373 0 l 214 0 l 26 910 l 162 910 m 422 1136 q 475 1115 454 1136 q 496 1063 496 1095 q 475 1010 496 1031 q 422 989 454 989 q 370 1010 390 989 q 349 1063 349 1031 q 370 1115 349 1095 q 422 1136 390 1136 m 668 1136 q 721 1115 701 1136 q 741 1063 741 1095 q 721 1010 741 1031 q 668 989 701 989 q 616 1010 637 989 q 595 1063 595 1031 q 615 1115 595 1095 q 668 1136 636 1136 z "},"Ẁ":{"ha":1093,"x_min":26,"x_max":1065,"o":"m 162 910 l 252 427 l 269 330 q 302 134 293 190 l 308 134 q 370 427 336 277 l 491 910 l 610 910 l 730 427 q 793 134 751 332 l 800 134 l 848 427 l 938 910 l 1065 910 l 882 0 l 720 0 l 591 524 l 585 556 q 550 731 560 668 l 544 731 q 500 524 522 626 l 373 0 l 214 0 l 26 910 l 162 910 m 480 1137 l 600 980 l 492 980 l 334 1137 l 480 1137 z "},"X":{"ha":720,"x_min":18,"x_max":704,"o":"m 34 910 l 180 910 l 296 688 l 331 622 q 366 554 339 606 l 372 554 q 435 688 414 648 l 547 910 l 686 910 l 441 463 l 704 0 l 557 0 l 432 235 q 355 381 385 323 l 350 381 q 279 235 306 286 l 156 0 l 18 0 l 280 470 l 34 910 z "},"Y":{"ha":668,"x_min":-6,"x_max":673,"o":"m -6 910 l 136 910 l 245 663 q 332 463 290 557 l 337 463 l 372 540 q 425 663 411 627 l 536 910 l 673 910 l 399 347 l 399 0 l 268 0 l 268 347 l -6 910 z "},"Ý":{"ha":668,"x_min":-6,"x_max":673,"o":"m -6 910 l 136 910 l 245 663 q 332 463 290 557 l 337 463 l 372 540 q 425 663 411 627 l 536 910 l 673 910 l 399 347 l 399 0 l 268 0 l 268 347 l -6 910 m 271 980 l 391 1137 l 537 1137 l 378 980 l 271 980 z "},"Ŷ":{"ha":668,"x_min":-6,"x_max":673,"o":"m -6 910 l 136 910 l 245 663 q 332 463 290 557 l 337 463 l 372 540 q 425 663 411 627 l 536 910 l 673 910 l 399 347 l 399 0 l 268 0 l 268 347 l -6 910 m 270 1137 l 397 1137 l 531 980 l 426 980 l 336 1072 l 331 1072 l 241 980 l 136 980 l 270 1137 z "},"Ÿ":{"ha":668,"x_min":-6,"x_max":673,"o":"m -6 910 l 136 910 l 245 663 q 332 463 290 557 l 337 463 l 372 540 q 425 663 411 627 l 536 910 l 673 910 l 399 347 l 399 0 l 268 0 l 268 347 l -6 910 m 211 1136 q 263 1115 243 1136 q 284 1063 284 1095 q 263 1010 284 1031 q 211 989 242 989 q 158 1010 178 989 q 138 1063 138 1031 q 158 1115 138 1095 q 211 1136 178 1136 m 456 1136 q 509 1115 489 1136 q 530 1063 530 1095 q 509 1010 530 1031 q 456 989 489 989 q 404 1010 425 989 q 383 1063 383 1031 q 404 1115 383 1095 q 456 1136 425 1136 z "},"Ỳ":{"ha":668,"x_min":-6,"x_max":673,"o":"m -6 910 l 136 910 l 245 663 q 332 463 290 557 l 337 463 l 372 540 q 425 663 411 627 l 536 910 l 673 910 l 399 347 l 399 0 l 268 0 l 268 347 l -6 910 m 269 1137 l 389 980 l 281 980 l 122 1137 l 269 1137 z "},"Z":{"ha":743,"x_min":56,"x_max":690,"o":"m 523 799 l 99 799 l 99 910 l 686 910 l 686 832 l 220 112 l 690 112 l 690 0 l 56 0 l 56 79 l 523 799 z "},"Ź":{"ha":743,"x_min":56,"x_max":690,"o":"m 523 799 l 99 799 l 99 910 l 686 910 l 686 832 l 220 112 l 690 112 l 690 0 l 56 0 l 56 79 l 523 799 m 297 980 l 417 1137 l 564 1137 l 405 980 l 297 980 z "},"Ž":{"ha":743,"x_min":56,"x_max":690,"o":"m 523 799 l 99 799 l 99 910 l 686 910 l 686 832 l 220 112 l 690 112 l 690 0 l 56 0 l 56 79 l 523 799 m 424 980 l 296 980 l 163 1137 l 268 1137 l 357 1044 l 363 1044 l 452 1137 l 557 1137 l 424 980 z "},"Ż":{"ha":743,"x_min":56,"x_max":690,"o":"m 523 799 l 99 799 l 99 910 l 686 910 l 686 832 l 220 112 l 690 112 l 690 0 l 56 0 l 56 79 l 523 799 m 360 1149 q 421 1126 397 1149 q 446 1069 446 1104 q 422 1011 446 1034 q 360 988 397 988 q 298 1011 323 988 q 274 1069 274 1034 q 299 1126 274 1104 q 360 1149 323 1149 z "},"Ģ":{"ha":856,"x_min":67,"x_max":769,"o":"m 758 819 l 682 736 q 601 792 646 773 q 494 812 557 812 q 340 771 405 812 q 239 651 275 730 q 203 456 203 571 q 279 191 203 283 q 497 98 354 98 q 583 112 542 98 q 650 148 625 125 l 650 370 l 469 370 l 469 479 l 769 479 l 769 90 q 645 13 721 43 q 482 -17 570 -17 q 267 37 360 -17 q 120 196 173 90 q 67 452 67 301 q 121 713 67 606 q 272 873 176 820 q 492 927 368 927 q 644 897 578 927 q 758 819 710 867 z "},"Ĭ":{"ha":369,"x_min":10,"x_max":359,"o":"m 251 910 l 251 0 l 118 0 l 118 910 l 251 910 m 87 1137 q 119 1078 94 1101 q 184 1054 143 1054 q 250 1078 226 1054 q 282 1137 275 1101 l 359 1137 q 307 1026 351 1070 q 184 982 264 982 q 62 1026 105 982 q 10 1137 18 1070 l 87 1137 z "},"Ķ":{"ha":807,"x_min":118,"x_max":806,"o":"m 251 910 l 251 468 l 254 468 l 613 910 l 762 910 l 478 560 l 806 0 l 660 0 l 397 456 l 251 281 l 251 0 l 118 0 l 118 910 l 251 910 z "},"Ļ":{"ha":677,"x_min":118,"x_max":641,"o":"m 251 910 l 251 112 l 641 112 l 641 0 l 118 0 l 118 910 l 251 910 z "},"Ņ":{"ha":897,"x_min":118,"x_max":778,"o":"m 254 910 l 568 361 l 664 170 l 669 170 q 664 245 668 192 q 655 371 658 323 q 652 467 652 419 l 652 910 l 778 910 l 778 0 l 642 0 l 330 551 l 233 741 l 227 741 l 231 687 q 240 556 237 611 q 243 448 243 501 l 243 0 l 118 0 l 118 910 l 254 910 z "},"Ŏ":{"ha":922,"x_min":67,"x_max":853,"o":"m 460 927 q 668 872 579 927 q 805 711 757 817 q 853 457 853 605 q 805 201 853 308 q 668 39 757 94 q 460 -17 579 -17 q 251 39 340 -17 q 115 201 163 94 q 67 457 67 308 q 115 712 67 606 q 251 872 163 817 q 460 927 340 927 m 460 812 q 321 770 379 812 q 233 649 263 728 q 203 457 203 569 q 233 264 203 345 q 321 141 263 184 q 460 98 379 98 q 598 141 540 98 q 687 264 656 184 q 718 457 718 345 q 687 649 718 569 q 598 770 656 728 q 460 812 540 812 m 362 1137 q 394 1078 370 1101 q 460 1054 418 1054 q 526 1078 501 1054 q 557 1137 550 1101 l 634 1137 q 583 1026 626 1070 q 460 982 539 982 q 337 1026 380 982 q 286 1137 294 1070 l 362 1137 z "},"Ŗ":{"ha":810,"x_min":118,"x_max":766,"o":"m 412 374 l 251 374 l 251 0 l 118 0 l 118 910 l 422 910 q 654 852 572 910 q 735 652 735 793 q 687 480 735 543 q 546 391 639 418 l 766 0 l 616 0 l 412 374 m 404 481 q 556 521 507 481 q 604 652 604 561 q 583 744 604 711 q 518 791 562 777 q 405 804 475 804 l 251 804 l 251 481 l 404 481 z "},"Ş":{"ha":741,"x_min":54,"x_max":692,"o":"m 692 247 q 659 122 692 179 q 564 30 626 66 q 419 -15 503 -7 l 394 -67 q 454 -104 432 -80 q 476 -168 476 -128 q 417 -258 476 -226 q 267 -298 357 -290 l 255 -236 q 376 -171 376 -221 q 355 -131 376 -146 q 290 -104 334 -115 l 336 -15 q 182 26 254 -8 q 54 117 110 60 l 132 209 q 247 128 182 158 q 378 98 311 98 q 474 115 434 98 q 536 163 515 132 q 557 236 557 195 q 539 303 557 277 q 492 346 521 330 q 408 387 464 362 l 280 444 q 96 680 96 521 q 134 806 96 750 q 239 895 172 863 q 389 927 306 927 q 539 897 468 927 q 663 813 611 866 l 593 728 q 389 812 501 812 q 273 778 317 812 q 229 688 229 745 q 249 624 229 650 q 299 582 270 597 q 378 545 328 566 l 506 490 q 644 396 595 452 q 692 247 692 340 z "},"Ţ":{"ha":743,"x_min":35,"x_max":709,"o":"m 385 -67 q 445 -104 423 -80 q 467 -168 467 -127 q 408 -258 467 -226 q 258 -298 349 -290 l 245 -236 q 368 -171 368 -221 q 347 -131 368 -146 q 281 -104 326 -115 l 334 0 l 306 0 l 306 799 l 35 799 l 35 910 l 709 910 l 709 799 l 437 799 l 437 0 l 417 0 l 385 -67 z "},"Ǆ":{"ha":1571,"x_min":118,"x_max":1517,"o":"m 360 910 q 679 798 572 910 q 785 460 785 685 q 736 209 785 311 q 593 53 688 106 q 361 0 498 0 l 118 0 l 118 910 l 360 910 m 650 460 q 577 719 650 635 q 352 802 505 802 l 251 802 l 251 107 l 346 107 q 574 196 498 107 q 650 460 650 286 m 1350 799 l 926 799 l 926 910 l 1513 910 l 1513 832 l 1047 112 l 1517 112 l 1517 0 l 884 0 l 884 79 l 1350 799 m 1251 980 l 1124 980 l 990 1137 l 1095 1137 l 1185 1044 l 1190 1044 l 1280 1137 l 1385 1137 l 1251 980 z "},"ǅ":{"ha":1443,"x_min":118,"x_max":1408,"o":"m 360 910 q 679 798 572 910 q 785 460 785 685 q 736 209 785 311 q 593 53 688 106 q 361 0 498 0 l 118 0 l 118 910 l 360 910 m 650 460 q 577 719 650 635 q 352 802 505 802 l 251 802 l 251 107 l 346 107 q 574 196 498 107 q 650 460 650 286 m 1233 572 l 927 572 l 927 677 l 1397 677 l 1397 608 l 1053 105 l 1408 105 l 1408 0 l 889 0 l 889 70 l 1233 572 m 1056 994 l 1145 870 l 1151 870 l 1240 994 l 1333 994 l 1202 796 l 1094 796 l 963 994 l 1056 994 z "},"Ǉ":{"ha":1343,"x_min":118,"x_max":1230,"o":"m 251 910 l 251 112 l 641 112 l 641 0 l 118 0 l 118 910 l 251 910 m 960 98 q 1038 116 1008 98 q 1083 173 1068 134 q 1098 281 1098 213 l 1098 910 l 1230 910 l 1230 268 q 1167 61 1230 140 q 973 -17 1104 -17 q 713 132 795 -17 l 806 199 q 960 98 864 98 z "},"ǈ":{"ha":1028,"x_min":118,"x_max":939,"o":"m 251 910 l 251 112 l 641 112 l 641 0 l 118 0 l 118 910 l 251 910 m 854 968 q 915 946 890 968 q 939 890 939 924 q 915 832 939 854 q 854 810 890 810 q 792 832 817 810 q 768 890 768 854 q 792 947 768 925 q 854 968 817 968 m 918 677 l 918 -65 q 872 -236 918 -176 q 722 -296 826 -296 q 618 -278 664 -296 l 644 -180 q 707 -191 676 -191 q 770 -160 752 -191 q 788 -66 788 -130 l 788 677 l 918 677 z "},"Ǌ":{"ha":1564,"x_min":118,"x_max":1451,"o":"m 254 910 l 568 361 l 664 170 l 669 170 q 664 245 668 192 q 655 371 658 323 q 652 467 652 419 l 652 910 l 778 910 l 778 0 l 642 0 l 330 551 l 233 741 l 227 741 l 231 687 q 240 556 237 611 q 243 448 243 501 l 243 0 l 118 0 l 118 910 l 254 910 m 1181 98 q 1258 116 1228 98 q 1303 173 1289 134 q 1318 281 1318 213 l 1318 910 l 1451 910 l 1451 268 q 1388 61 1451 140 q 1194 -17 1324 -17 q 934 132 1016 -17 l 1026 199 q 1181 98 1084 98 z "},"ǋ":{"ha":1249,"x_min":118,"x_max":1160,"o":"m 254 910 l 568 361 l 664 170 l 669 170 q 664 245 668 192 q 655 371 658 323 q 652 467 652 419 l 652 910 l 778 910 l 778 0 l 642 0 l 330 551 l 233 741 l 227 741 l 231 687 q 240 556 237 611 q 243 448 243 501 l 243 0 l 118 0 l 118 910 l 254 910 m 1075 968 q 1135 946 1111 968 q 1160 890 1160 924 q 1135 832 1160 854 q 1075 810 1111 810 q 1013 832 1038 810 q 988 890 988 854 q 1013 947 988 925 q 1075 968 1037 968 m 1139 677 l 1139 -65 q 1093 -236 1139 -176 q 943 -296 1046 -296 q 839 -278 884 -296 l 865 -180 q 927 -191 897 -191 q 990 -160 972 -191 q 1008 -66 1008 -130 l 1008 677 l 1139 677 z "},"Ǎ":{"ha":755,"x_min":-2,"x_max":758,"o":"m 214 267 l 133 0 l -2 0 l 302 910 l 454 910 l 758 0 l 618 0 l 536 267 l 214 267 m 466 500 q 378 804 432 611 l 373 804 q 286 500 328 633 l 245 372 l 505 372 l 466 500 m 441 980 l 314 980 l 180 1137 l 286 1137 l 375 1044 l 380 1044 l 470 1137 l 575 1137 l 441 980 z "},"Ǐ":{"ha":369,"x_min":-13,"x_max":382,"o":"m 251 910 l 251 0 l 118 0 l 118 910 l 251 910 m 248 980 l 121 980 l -13 1137 l 92 1137 l 182 1044 l 187 1044 l 277 1137 l 382 1137 l 248 980 z "},"Ǒ":{"ha":922,"x_min":67,"x_max":853,"o":"m 460 927 q 668 872 579 927 q 805 711 757 817 q 853 457 853 605 q 805 201 853 308 q 668 39 757 94 q 460 -17 579 -17 q 251 39 340 -17 q 115 201 163 94 q 67 457 67 308 q 115 712 67 606 q 251 872 163 817 q 460 927 340 927 m 460 812 q 321 770 379 812 q 233 649 263 728 q 203 457 203 569 q 233 264 203 345 q 321 141 263 184 q 460 98 379 98 q 598 141 540 98 q 687 264 656 184 q 718 457 718 345 q 687 649 718 569 q 598 770 656 728 q 460 812 540 812 m 524 980 l 396 980 l 262 1137 l 368 1137 l 457 1044 l 463 1044 l 552 1137 l 657 1137 l 524 980 z "},"Ǔ":{"ha":895,"x_min":114,"x_max":781,"o":"m 247 910 l 247 372 q 300 161 247 224 q 448 98 353 98 q 599 161 544 98 q 654 372 654 224 l 654 910 l 781 910 l 781 378 q 448 -17 781 -17 q 203 76 292 -17 q 114 378 114 170 l 114 910 l 247 910 m 511 980 l 384 980 l 250 1137 l 355 1137 l 445 1044 l 450 1044 l 540 1137 l 645 1137 l 511 980 z "},"Ǖ":{"ha":895,"x_min":114,"x_max":781,"o":"m 247 910 l 247 372 q 300 161 247 224 q 448 98 353 98 q 599 161 544 98 q 654 372 654 224 l 654 910 l 781 910 l 781 378 q 448 -17 781 -17 q 203 76 292 -17 q 114 378 114 170 l 114 910 l 247 910 m 625 1269 l 625 1198 l 272 1198 l 272 1269 l 625 1269 m 326 1124 q 373 1105 355 1124 q 392 1057 392 1086 q 373 1008 392 1027 q 326 989 355 989 q 277 1008 296 989 q 258 1057 258 1027 q 277 1105 258 1086 q 326 1124 296 1124 m 571 1124 q 620 1105 600 1124 q 639 1057 639 1086 q 620 1008 639 1027 q 571 989 600 989 q 523 1008 542 989 q 505 1057 505 1027 q 523 1105 505 1086 q 571 1124 542 1124 z "},"Ǘ":{"ha":895,"x_min":114,"x_max":781,"o":"m 247 910 l 247 372 q 300 161 247 224 q 448 98 353 98 q 599 161 544 98 q 654 372 654 224 l 654 910 l 781 910 l 781 378 q 448 -17 781 -17 q 203 76 292 -17 q 114 378 114 170 l 114 910 l 247 910 m 638 1326 l 481 1169 l 374 1169 l 496 1326 l 638 1326 m 328 1124 q 376 1105 357 1124 q 395 1057 395 1086 q 376 1008 395 1027 q 328 989 357 989 q 280 1008 299 989 q 260 1057 260 1027 q 280 1105 260 1086 q 328 1124 299 1124 m 574 1124 q 622 1105 603 1124 q 642 1057 642 1086 q 622 1008 642 1027 q 574 989 603 989 q 526 1008 545 989 q 507 1057 507 1027 q 526 1105 507 1086 q 574 1124 545 1124 z "},"Ǚ":{"ha":895,"x_min":114,"x_max":781,"o":"m 247 910 l 247 372 q 300 161 247 224 q 448 98 353 98 q 599 161 544 98 q 654 372 654 224 l 654 910 l 781 910 l 781 378 q 448 -17 781 -17 q 203 76 292 -17 q 114 378 114 170 l 114 910 l 247 910 m 512 1169 l 385 1169 l 251 1326 l 356 1326 l 446 1233 l 451 1233 l 541 1326 l 646 1326 l 512 1169 m 326 1124 q 373 1105 355 1124 q 392 1057 392 1086 q 373 1008 392 1027 q 326 989 355 989 q 277 1008 296 989 q 258 1057 258 1027 q 277 1105 258 1086 q 326 1124 296 1124 m 571 1124 q 620 1105 600 1124 q 639 1057 639 1086 q 620 1008 639 1027 q 571 989 600 989 q 523 1008 542 989 q 505 1057 505 1027 q 523 1105 505 1086 q 571 1124 542 1124 z "},"Ǜ":{"ha":895,"x_min":114,"x_max":781,"o":"m 247 910 l 247 372 q 300 161 247 224 q 448 98 353 98 q 599 161 544 98 q 654 372 654 224 l 654 910 l 781 910 l 781 378 q 448 -17 781 -17 q 203 76 292 -17 q 114 378 114 170 l 114 910 l 247 910 m 418 1169 l 260 1326 l 403 1326 l 524 1169 l 418 1169 m 325 1124 q 373 1105 354 1124 q 391 1057 391 1086 q 373 1008 391 1027 q 325 989 354 989 q 276 1008 296 989 q 257 1057 257 1027 q 276 1105 257 1086 q 325 1124 296 1124 m 570 1124 q 619 1105 600 1124 q 638 1057 638 1086 q 619 1008 638 1027 q 570 989 600 989 q 523 1008 541 989 q 504 1057 504 1027 q 523 1105 504 1086 q 570 1124 541 1124 z "},"Ǫ":{"ha":922,"x_min":67,"x_max":854,"o":"m 67 459 q 117 709 67 603 q 256 871 167 814 q 461 927 345 927 q 666 870 576 927 q 804 708 755 814 q 854 459 854 602 q 783 167 854 278 q 570 -9 711 56 q 491 -70 518 -33 q 464 -144 464 -107 q 483 -190 464 -174 q 528 -206 502 -206 q 583 -186 557 -206 l 616 -256 q 562 -285 595 -273 q 500 -297 528 -297 q 402 -265 441 -297 q 363 -174 363 -233 q 387 -88 363 -130 q 450 -15 410 -47 q 247 48 333 -12 q 114 213 161 107 q 67 459 67 319 m 461 812 q 325 769 383 812 q 235 647 267 726 q 203 459 203 567 q 235 269 203 351 q 325 143 267 187 q 461 98 384 98 q 596 143 538 98 q 686 269 654 187 q 718 459 718 351 q 686 647 718 567 q 596 769 654 726 q 461 812 538 812 z "},"Ǳ":{"ha":1571,"x_min":118,"x_max":1517,"o":"m 360 910 q 679 798 572 910 q 785 460 785 685 q 736 209 785 311 q 593 53 688 106 q 361 0 498 0 l 118 0 l 118 910 l 360 910 m 650 460 q 577 719 650 635 q 352 802 505 802 l 251 802 l 251 107 l 346 107 q 574 196 498 107 q 650 460 650 286 m 1350 799 l 926 799 l 926 910 l 1513 910 l 1513 832 l 1047 112 l 1517 112 l 1517 0 l 884 0 l 884 79 l 1350 799 z "},"ǲ":{"ha":1443,"x_min":118,"x_max":1408,"o":"m 360 910 q 679 798 572 910 q 785 460 785 685 q 736 209 785 311 q 593 53 688 106 q 361 0 498 0 l 118 0 l 118 910 l 360 910 m 650 460 q 577 719 650 635 q 352 802 505 802 l 251 802 l 251 107 l 346 107 q 574 196 498 107 q 650 460 650 286 m 1233 572 l 927 572 l 927 677 l 1397 677 l 1397 608 l 1053 105 l 1408 105 l 1408 0 l 889 0 l 889 70 l 1233 572 z "},"Ș":{"ha":741,"x_min":56,"x_max":692,"o":"m 378 98 q 510 135 463 98 q 557 234 557 172 q 538 301 557 275 q 490 345 519 328 q 404 387 460 361 l 276 444 q 146 535 199 475 q 94 686 94 595 q 132 810 94 755 q 238 896 170 865 q 389 927 305 927 q 540 899 470 927 q 660 819 610 870 l 591 734 q 499 792 549 773 q 389 812 449 812 q 271 781 315 812 q 227 694 227 751 q 247 628 227 656 q 298 582 267 600 q 374 545 329 564 l 501 490 q 642 395 591 452 q 692 245 692 338 q 653 112 692 172 q 543 18 615 52 q 375 -17 471 -17 q 199 16 281 -17 q 56 111 118 49 l 134 203 q 247 125 184 153 q 378 98 309 98 z "},"Ț":{"ha":743,"x_min":35,"x_max":709,"o":"m 35 799 l 35 910 l 709 910 l 709 799 l 437 799 l 437 0 l 306 0 l 306 799 l 35 799 m 313 -303 l 301 -243 q 422 -181 422 -228 q 405 -144 422 -157 q 353 -122 387 -130 l 381 -65 q 489 -101 456 -75 q 522 -174 522 -126 q 463 -264 522 -232 q 313 -303 404 -296 z "},"Ƀ":{"ha":844,"x_min":41,"x_max":793,"o":"m 793 273 q 749 122 793 183 q 627 30 705 60 q 446 0 549 0 l 146 0 l 146 245 l 41 245 l 41 311 l 146 317 l 146 910 l 425 910 q 656 857 572 910 q 741 691 741 804 q 701 572 741 623 q 584 501 661 522 l 584 496 q 739 424 685 479 q 793 273 793 368 m 408 532 q 564 569 513 532 q 614 680 614 607 q 564 781 614 749 q 411 813 513 813 l 279 813 l 279 532 l 408 532 m 665 281 q 430 448 665 448 l 279 448 l 279 317 l 483 317 l 483 245 l 279 245 l 279 98 l 430 98 q 604 144 543 98 q 665 281 665 190 z "},"Ḃ":{"ha":815,"x_min":118,"x_max":764,"o":"m 402 910 q 633 859 552 910 q 713 690 713 808 q 675 562 713 616 q 555 490 637 507 l 555 484 q 709 420 654 476 q 764 269 764 363 q 721 119 764 180 q 602 30 678 59 q 422 0 526 0 l 118 0 l 118 910 l 402 910 m 584 676 q 537 776 584 746 q 391 806 491 806 l 251 806 l 251 526 l 383 526 q 536 564 488 526 q 584 676 584 602 m 634 277 q 578 392 634 356 q 408 429 522 429 l 251 429 l 251 104 l 406 104 q 634 277 634 104 m 379 1149 q 440 1126 416 1149 q 465 1069 465 1104 q 441 1011 465 1034 q 379 988 416 988 q 317 1011 342 988 q 293 1069 293 1034 q 318 1126 293 1104 q 379 1149 342 1149 z "},"Ḋ":{"ha":855,"x_min":118,"x_max":785,"o":"m 360 910 q 679 798 572 910 q 785 460 785 685 q 736 209 785 311 q 593 53 688 106 q 361 0 498 0 l 118 0 l 118 910 l 360 910 m 650 460 q 577 719 650 635 q 352 802 505 802 l 251 802 l 251 107 l 346 107 q 574 196 498 107 q 650 460 650 286 m 349 1149 q 411 1126 386 1149 q 435 1069 435 1104 q 411 1011 435 1034 q 349 988 387 988 q 288 1011 312 988 q 263 1069 263 1034 q 288 1126 263 1104 q 349 1149 313 1149 z "},"Ḍ":{"ha":855,"x_min":118,"x_max":785,"o":"m 422 -131 q 481 -154 458 -131 q 505 -212 505 -176 q 481 -270 505 -248 q 422 -292 458 -292 q 363 -270 387 -292 q 340 -212 340 -248 q 363 -154 340 -176 q 422 -131 387 -131 m 360 910 q 679 798 572 910 q 785 460 785 685 q 736 209 785 311 q 593 53 688 106 q 361 0 498 0 l 118 0 l 118 910 l 360 910 m 650 460 q 577 719 650 635 q 352 802 505 802 l 251 802 l 251 107 l 346 107 q 574 196 498 107 q 650 460 650 286 z "},"Ḏ":{"ha":855,"x_min":118,"x_max":785,"o":"m 596 -152 l 596 -240 l 248 -240 l 248 -152 l 596 -152 m 360 910 q 679 798 572 910 q 785 460 785 685 q 736 209 785 311 q 593 53 688 106 q 361 0 498 0 l 118 0 l 118 910 l 360 910 m 650 460 q 577 719 650 635 q 352 802 505 802 l 251 802 l 251 107 l 346 107 q 574 196 498 107 q 650 460 650 286 z "},"Ḟ":{"ha":688,"x_min":118,"x_max":652,"o":"m 652 910 l 652 799 l 251 799 l 251 509 l 592 509 l 592 398 l 251 398 l 251 0 l 118 0 l 118 910 l 652 910 m 385 1149 q 447 1126 422 1149 q 471 1069 471 1104 q 447 1011 471 1034 q 385 988 422 988 q 323 1011 348 988 q 299 1069 299 1034 q 324 1126 299 1104 q 385 1149 349 1149 z "},"Ḡ":{"ha":856,"x_min":67,"x_max":769,"o":"m 758 819 l 682 736 q 601 792 646 773 q 494 812 557 812 q 340 771 405 812 q 239 651 275 730 q 203 456 203 571 q 279 191 203 283 q 497 98 354 98 q 583 112 542 98 q 650 148 625 125 l 650 370 l 469 370 l 469 479 l 769 479 l 769 90 q 645 13 721 43 q 482 -17 570 -17 q 267 37 360 -17 q 120 196 173 90 q 67 452 67 301 q 121 713 67 606 q 272 873 176 820 q 492 927 368 927 q 644 897 578 927 q 758 819 710 867 m 666 1099 l 666 1010 l 313 1010 l 313 1099 l 666 1099 z "},"Ḥ":{"ha":905,"x_min":118,"x_max":786,"o":"m 251 910 l 251 534 l 654 534 l 654 910 l 786 910 l 786 0 l 654 0 l 654 420 l 251 420 l 251 0 l 118 0 l 118 910 l 251 910 m 452 -172 q 511 -194 488 -172 q 534 -252 534 -217 q 511 -311 534 -288 q 452 -333 488 -333 q 393 -311 416 -333 q 370 -252 370 -288 q 393 -194 370 -217 q 452 -172 416 -172 z "},"Ḫ":{"ha":905,"x_min":118,"x_max":786,"o":"m 251 910 l 251 534 l 654 534 l 654 910 l 786 910 l 786 0 l 654 0 l 654 420 l 251 420 l 251 0 l 118 0 l 118 910 l 251 910 m 352 -157 q 383 -230 358 -201 q 452 -258 408 -258 q 521 -230 496 -258 q 552 -157 546 -201 l 631 -157 q 608 -244 628 -203 q 549 -311 588 -285 q 452 -336 509 -336 q 355 -311 395 -336 q 296 -244 316 -285 q 273 -157 276 -203 l 352 -157 z "},"Ḷ":{"ha":677,"x_min":118,"x_max":641,"o":"m 251 910 l 251 112 l 641 112 l 641 0 l 118 0 l 118 910 l 251 910 m 380 -130 q 438 -152 415 -130 q 462 -210 462 -175 q 438 -269 462 -246 q 380 -291 415 -291 q 320 -269 344 -291 q 297 -210 297 -246 q 320 -152 297 -175 q 380 -130 344 -130 z "},"Ḹ":{"ha":677,"x_min":118,"x_max":641,"o":"m 251 910 l 251 112 l 641 112 l 641 0 l 118 0 l 118 910 l 251 910 m 380 -199 q 438 -222 415 -199 q 462 -280 462 -245 q 438 -338 462 -316 q 380 -361 415 -361 q 320 -338 344 -361 q 297 -280 297 -316 q 320 -222 297 -245 q 380 -199 344 -199 m 555 1099 l 555 1010 l 203 1010 l 203 1099 l 555 1099 z "},"Ḻ":{"ha":677,"x_min":118,"x_max":641,"o":"m 251 910 l 251 112 l 641 112 l 641 0 l 118 0 l 118 910 l 251 910 m 553 -159 l 553 -247 l 205 -247 l 205 -159 l 553 -159 z "},"Ṁ":{"ha":1013,"x_min":111,"x_max":901,"o":"m 270 910 l 441 437 l 505 255 l 511 255 l 573 437 l 742 910 l 886 910 l 901 0 l 777 0 l 774 470 q 777 609 774 532 q 785 747 780 686 l 779 747 l 707 543 l 539 90 l 470 90 l 302 543 l 229 747 l 224 747 q 233 470 233 633 l 233 0 l 111 0 l 125 910 l 270 910 m 506 1149 q 567 1126 543 1149 q 592 1069 592 1104 q 568 1011 592 1034 q 506 988 543 988 q 444 1011 469 988 q 420 1069 420 1034 q 445 1126 420 1104 q 506 1149 469 1149 z "},"Ṃ":{"ha":1013,"x_min":111,"x_max":901,"o":"m 509 -131 q 567 -154 544 -131 q 591 -212 591 -176 q 567 -270 591 -248 q 509 -292 544 -292 q 449 -270 473 -292 q 426 -212 426 -248 q 449 -154 426 -176 q 509 -131 473 -131 m 270 910 l 441 437 l 505 255 l 511 255 l 573 437 l 742 910 l 886 910 l 901 0 l 777 0 l 774 470 q 777 609 774 532 q 785 747 780 686 l 779 747 l 707 543 l 539 90 l 470 90 l 302 543 l 229 747 l 224 747 q 233 470 233 633 l 233 0 l 111 0 l 125 910 l 270 910 z "},"Ṅ":{"ha":897,"x_min":118,"x_max":778,"o":"m 254 910 l 568 361 l 664 170 l 669 170 q 664 245 668 192 q 655 371 658 323 q 652 467 652 419 l 652 910 l 778 910 l 778 0 l 642 0 l 330 551 l 233 741 l 227 741 l 231 687 q 240 556 237 611 q 243 448 243 501 l 243 0 l 118 0 l 118 910 l 254 910 m 448 1149 q 509 1126 484 1149 q 534 1069 534 1104 q 509 1011 534 1034 q 448 988 485 988 q 386 1011 410 988 q 361 1069 361 1034 q 386 1126 361 1104 q 448 1149 411 1149 z "},"Ṇ":{"ha":897,"x_min":118,"x_max":778,"o":"m 254 910 l 568 361 l 664 170 l 669 170 q 664 245 668 192 q 655 371 658 323 q 652 467 652 419 l 652 910 l 778 910 l 778 0 l 642 0 l 330 551 l 233 741 l 227 741 l 231 687 q 240 556 237 611 q 243 448 243 501 l 243 0 l 118 0 l 118 910 l 254 910 m 452 -172 q 511 -195 488 -172 q 534 -253 534 -218 q 511 -311 534 -289 q 452 -334 488 -334 q 393 -311 416 -334 q 370 -253 370 -289 q 393 -195 370 -218 q 452 -172 416 -172 z "},"Ṉ":{"ha":897,"x_min":118,"x_max":778,"o":"m 254 910 l 568 361 l 664 170 l 669 170 q 664 245 668 192 q 655 371 658 323 q 652 467 652 419 l 652 910 l 778 910 l 778 0 l 642 0 l 330 551 l 233 741 l 227 741 l 231 687 q 240 556 237 611 q 243 448 243 501 l 243 0 l 118 0 l 118 910 l 254 910 m 622 -187 l 622 -275 l 274 -275 l 274 -187 l 622 -187 z "},"Ṗ":{"ha":802,"x_min":118,"x_max":747,"o":"m 414 910 q 662 845 578 910 q 747 633 747 780 q 659 414 747 489 q 416 338 572 338 l 251 338 l 251 0 l 118 0 l 118 910 l 414 910 m 616 633 q 595 733 616 696 q 526 787 573 770 q 401 804 479 804 l 251 804 l 251 446 l 401 446 q 566 492 516 446 q 616 633 616 538 m 404 1149 q 465 1126 440 1149 q 490 1069 490 1104 q 465 1011 490 1034 q 404 988 441 988 q 342 1011 366 988 q 317 1069 317 1034 q 342 1126 317 1104 q 404 1149 367 1149 z "},"Ṛ":{"ha":810,"x_min":118,"x_max":766,"o":"m 431 -131 q 489 -154 466 -131 q 513 -212 513 -176 q 489 -270 513 -248 q 431 -292 466 -292 q 371 -270 395 -292 q 348 -212 348 -248 q 371 -154 348 -176 q 431 -131 395 -131 m 412 374 l 251 374 l 251 0 l 118 0 l 118 910 l 422 910 q 654 852 572 910 q 735 652 735 793 q 687 480 735 543 q 546 391 639 418 l 766 0 l 616 0 l 412 374 m 404 481 q 556 521 507 481 q 604 652 604 561 q 583 744 604 711 q 518 791 562 777 q 405 804 475 804 l 251 804 l 251 481 l 404 481 z "},"Ṝ":{"ha":810,"x_min":118,"x_max":766,"o":"m 431 -131 q 490 -154 467 -131 q 513 -212 513 -176 q 490 -270 513 -248 q 431 -292 467 -292 q 372 -270 395 -292 q 349 -212 349 -248 q 372 -154 349 -176 q 431 -131 395 -131 m 412 374 l 251 374 l 251 0 l 118 0 l 118 910 l 422 910 q 654 852 572 910 q 735 652 735 793 q 687 480 735 543 q 546 391 639 418 l 766 0 l 616 0 l 412 374 m 404 481 q 556 521 507 481 q 604 652 604 561 q 583 744 604 711 q 518 791 562 777 q 405 804 475 804 l 251 804 l 251 481 l 404 481 m 580 1099 l 580 1010 l 227 1010 l 227 1099 l 580 1099 z "},"Ṟ":{"ha":810,"x_min":118,"x_max":766,"o":"m 606 -151 l 606 -239 l 258 -239 l 258 -151 l 606 -151 m 412 374 l 251 374 l 251 0 l 118 0 l 118 910 l 422 910 q 654 852 572 910 q 735 652 735 793 q 687 480 735 543 q 546 391 639 418 l 766 0 l 616 0 l 412 374 m 404 481 q 556 521 507 481 q 604 652 604 561 q 583 744 604 711 q 518 791 562 777 q 405 804 475 804 l 251 804 l 251 481 l 404 481 z "},"Ṡ":{"ha":741,"x_min":56,"x_max":692,"o":"m 378 98 q 510 135 463 98 q 557 234 557 172 q 538 301 557 275 q 490 345 519 328 q 404 387 460 361 l 276 444 q 146 535 199 475 q 94 686 94 595 q 132 810 94 755 q 238 896 170 865 q 389 927 305 927 q 540 899 470 927 q 660 819 610 870 l 591 734 q 499 792 549 773 q 389 812 449 812 q 271 781 315 812 q 227 694 227 751 q 247 628 227 656 q 298 582 267 600 q 374 545 329 564 l 501 490 q 642 395 591 452 q 692 245 692 338 q 653 112 692 172 q 543 18 615 52 q 375 -17 471 -17 q 199 16 281 -17 q 56 111 118 49 l 134 203 q 247 125 184 153 q 378 98 309 98 m 390 1149 q 451 1126 427 1149 q 476 1069 476 1104 q 452 1011 476 1034 q 390 988 427 988 q 328 1011 353 988 q 304 1069 304 1034 q 329 1126 304 1104 q 390 1149 353 1149 z "},"Ṣ":{"ha":741,"x_min":56,"x_max":692,"o":"m 378 -132 q 436 -154 413 -132 q 460 -212 460 -177 q 436 -271 460 -248 q 378 -293 413 -293 q 318 -271 342 -293 q 295 -212 295 -248 q 318 -154 295 -177 q 378 -132 342 -132 m 378 98 q 510 135 463 98 q 557 234 557 172 q 538 301 557 275 q 490 345 519 328 q 404 387 460 361 l 276 444 q 146 535 199 475 q 94 686 94 595 q 132 810 94 755 q 238 896 170 865 q 389 927 305 927 q 540 899 470 927 q 660 819 610 870 l 591 734 q 499 792 549 773 q 389 812 449 812 q 271 781 315 812 q 227 694 227 751 q 247 628 227 656 q 298 582 267 600 q 374 545 329 564 l 501 490 q 642 395 591 452 q 692 245 692 338 q 653 112 692 172 q 543 18 615 52 q 375 -17 471 -17 q 199 16 281 -17 q 56 111 118 49 l 134 203 q 247 125 184 153 q 378 98 309 98 z "},"Ṫ":{"ha":743,"x_min":35,"x_max":709,"o":"m 35 799 l 35 910 l 709 910 l 709 799 l 437 799 l 437 0 l 306 0 l 306 799 l 35 799 m 372 1149 q 433 1126 408 1149 q 458 1069 458 1104 q 433 1011 458 1034 q 372 988 409 988 q 310 1011 334 988 q 286 1069 286 1034 q 310 1126 286 1104 q 372 1149 335 1149 z "},"Ṭ":{"ha":743,"x_min":35,"x_max":709,"o":"m 372 -131 q 431 -154 408 -131 q 454 -212 454 -176 q 431 -270 454 -248 q 372 -292 408 -292 q 313 -270 336 -292 q 290 -212 290 -248 q 313 -154 290 -176 q 372 -131 336 -131 m 35 799 l 35 910 l 709 910 l 709 799 l 437 799 l 437 0 l 306 0 l 306 799 l 35 799 z "},"Ṯ":{"ha":743,"x_min":35,"x_max":709,"o":"m 540 -151 l 540 -239 l 192 -239 l 192 -151 l 540 -151 m 35 799 l 35 910 l 709 910 l 709 799 l 437 799 l 437 0 l 306 0 l 306 799 l 35 799 z "},"Ẏ":{"ha":668,"x_min":-6,"x_max":673,"o":"m -6 910 l 136 910 l 245 663 q 332 463 290 557 l 337 463 l 372 540 q 425 663 411 627 l 536 910 l 673 910 l 399 347 l 399 0 l 268 0 l 268 347 l -6 910 m 334 1149 q 395 1126 370 1149 q 420 1069 420 1104 q 395 1011 420 1034 q 334 988 371 988 q 272 1011 296 988 q 248 1069 248 1034 q 272 1126 248 1104 q 334 1149 297 1149 z "},"Ẓ":{"ha":743,"x_min":56,"x_max":690,"o":"m 690 112 l 690 0 l 56 0 l 56 79 l 523 799 l 99 799 l 99 910 l 280 910 q 309 955 287 938 q 361 971 330 971 q 412 955 391 971 q 441 910 434 938 l 686 910 l 686 832 l 220 112 l 690 112 z "},"Ạ":{"ha":755,"x_min":-2,"x_max":758,"o":"m 758 0 l 618 0 l 536 267 l 214 267 l 133 0 l -2 0 l 296 890 q 319 948 296 926 q 378 971 342 971 q 437 948 414 971 q 460 890 460 926 l 460 890 l 758 0 m 505 372 l 466 500 q 378 804 432 611 l 373 804 q 286 500 328 633 l 245 372 l 505 372 z "},"Ả":{"ha":755,"x_min":-2,"x_max":758,"o":"m 214 267 l 133 0 l -2 0 l 302 910 l 454 910 l 758 0 l 618 0 l 536 267 l 214 267 m 466 500 q 378 804 432 611 l 373 804 q 286 500 328 633 l 245 372 l 505 372 l 466 500 m 395 1086 q 281 1142 395 1136 l 295 1215 q 444 1182 393 1212 q 494 1099 494 1153 q 450 1010 494 1042 q 333 968 405 979 l 320 1025 q 376 1048 357 1035 q 395 1086 395 1062 z "},"Ấ":{"ha":755,"x_min":-2,"x_max":758,"o":"m 214 267 l 133 0 l -2 0 l 302 910 l 454 910 l 758 0 l 618 0 l 536 267 l 214 267 m 466 500 q 378 804 432 611 l 373 804 q 286 500 328 633 l 245 372 l 505 372 l 466 500 m 720 1225 l 591 1069 l 511 1069 l 609 1225 l 720 1225 m 436 1128 l 564 980 l 467 980 l 382 1064 l 376 1064 l 292 980 l 194 980 l 322 1128 l 436 1128 z "},"Ầ":{"ha":755,"x_min":-2,"x_max":758,"o":"m 214 267 l 133 0 l -2 0 l 302 910 l 454 910 l 758 0 l 618 0 l 536 267 l 214 267 m 466 500 q 378 804 432 611 l 373 804 q 286 500 328 633 l 245 372 l 505 372 l 466 500 m 568 1069 l 440 1225 l 550 1225 l 648 1069 l 568 1069 m 436 1128 l 564 980 l 467 980 l 382 1064 l 376 1064 l 292 980 l 194 980 l 322 1128 l 436 1128 z "},"Ẩ":{"ha":755,"x_min":-2,"x_max":758,"o":"m 214 267 l 133 0 l -2 0 l 302 910 l 454 910 l 758 0 l 618 0 l 536 267 l 214 267 m 466 500 q 378 804 432 611 l 373 804 q 286 500 328 633 l 245 372 l 505 372 l 466 500 m 588 1146 q 566 1183 588 1171 q 491 1198 544 1194 l 505 1261 q 678 1158 678 1255 q 545 1046 678 1065 l 529 1098 q 572 1115 557 1104 q 588 1146 588 1126 m 436 1128 l 564 980 l 467 980 l 382 1064 l 376 1064 l 292 980 l 194 980 l 322 1128 l 436 1128 z "},"Ẫ":{"ha":755,"x_min":-2,"x_max":758,"o":"m 214 267 l 133 0 l -2 0 l 302 910 l 454 910 l 758 0 l 618 0 l 536 267 l 214 267 m 466 500 q 378 804 432 611 l 373 804 q 286 500 328 633 l 245 372 l 505 372 l 466 500 m 388 1275 q 419 1256 408 1261 q 443 1250 430 1250 q 478 1266 463 1250 q 498 1311 492 1282 l 562 1311 q 526 1214 556 1251 q 449 1177 496 1177 q 405 1186 424 1177 q 361 1213 385 1196 q 330 1232 341 1226 q 306 1238 319 1238 q 271 1222 286 1238 q 251 1177 256 1206 l 187 1177 q 223 1274 193 1238 q 300 1311 253 1311 q 344 1301 325 1311 q 388 1275 363 1292 m 317 1128 l 431 1128 l 559 980 l 462 980 l 377 1064 l 372 1064 l 287 980 l 189 980 l 317 1128 z "},"Ậ":{"ha":755,"x_min":-2,"x_max":758,"o":"m 179 980 l 313 1137 l 439 1137 l 572 980 l 468 980 l 378 1072 l 373 1072 l 283 980 l 179 980 m 214 267 l 133 0 l -2 0 l 302 910 l 454 910 l 758 0 l 618 0 l 536 267 l 214 267 m 466 500 q 378 804 432 611 l 373 804 q 286 500 328 633 l 245 372 l 505 372 l 466 500 m 376 -131 q 435 -154 412 -131 q 458 -212 458 -176 q 435 -270 458 -248 q 376 -292 412 -292 q 317 -270 340 -292 q 294 -212 294 -248 q 317 -154 294 -176 q 376 -131 340 -131 z "},"Ắ":{"ha":755,"x_min":-2,"x_max":758,"o":"m 214 267 l 133 0 l -2 0 l 302 910 l 454 910 l 758 0 l 618 0 l 536 267 l 214 267 m 466 500 q 378 804 432 611 l 373 804 q 286 500 328 633 l 245 372 l 505 372 l 466 500 m 529 1265 l 393 1115 l 319 1115 l 419 1265 l 529 1265 m 269 1134 q 374 1047 290 1047 q 479 1134 458 1047 l 547 1134 q 496 1025 540 1068 q 374 982 452 982 q 253 1025 297 982 q 201 1134 209 1068 l 269 1134 z "},"Ằ":{"ha":755,"x_min":-2,"x_max":758,"o":"m 214 267 l 133 0 l -2 0 l 302 910 l 454 910 l 758 0 l 618 0 l 536 267 l 214 267 m 466 500 q 378 804 432 611 l 373 804 q 286 500 328 633 l 245 372 l 505 372 l 466 500 m 359 1115 l 223 1265 l 333 1265 l 433 1115 l 359 1115 m 273 1134 q 378 1047 294 1047 q 483 1134 462 1047 l 551 1134 q 499 1025 543 1068 q 378 982 455 982 q 256 1025 300 982 q 205 1134 212 1068 l 273 1134 z "},"Ẳ":{"ha":755,"x_min":-2,"x_max":758,"o":"m 214 267 l 133 0 l -2 0 l 302 910 l 454 910 l 758 0 l 618 0 l 536 267 l 214 267 m 466 500 q 378 804 432 611 l 373 804 q 286 500 328 633 l 245 372 l 505 372 l 466 500 m 385 1212 q 362 1250 385 1238 q 288 1265 340 1261 l 300 1328 q 431 1299 387 1325 q 475 1224 475 1272 q 340 1112 475 1133 l 326 1164 q 369 1182 353 1171 q 385 1212 385 1193 m 269 1134 q 374 1047 290 1047 q 479 1134 458 1047 l 547 1134 q 496 1025 540 1068 q 374 982 452 982 q 253 1025 297 982 q 201 1134 209 1068 l 269 1134 z "},"Ẵ":{"ha":755,"x_min":-2,"x_max":758,"o":"m 214 267 l 133 0 l -2 0 l 302 910 l 454 910 l 758 0 l 618 0 l 536 267 l 214 267 m 466 500 q 378 804 432 611 l 373 804 q 286 500 328 633 l 245 372 l 505 372 l 466 500 m 299 1311 q 343 1301 324 1311 q 387 1275 363 1292 q 418 1256 407 1261 q 442 1250 429 1250 q 477 1266 463 1250 q 497 1311 492 1282 l 561 1311 q 525 1214 555 1251 q 448 1177 495 1177 q 404 1186 423 1177 q 360 1213 385 1196 q 329 1232 340 1226 q 305 1238 318 1238 q 270 1222 285 1238 q 250 1177 256 1206 l 186 1177 q 222 1274 192 1238 q 299 1311 252 1311 m 269 1134 q 374 1047 290 1047 q 479 1134 458 1047 l 547 1134 q 495 1025 539 1068 q 374 982 451 982 q 252 1025 296 982 q 201 1134 208 1068 l 269 1134 z "},"Ặ":{"ha":755,"x_min":-2,"x_max":758,"o":"m 203 1137 l 280 1137 q 312 1078 288 1101 q 378 1054 336 1054 q 444 1078 419 1054 q 475 1137 468 1101 l 552 1137 q 500 1026 544 1070 q 378 982 457 982 q 255 1026 298 982 q 203 1137 212 1070 m 758 0 l 618 0 l 536 267 l 214 267 l 133 0 l -2 0 l 296 890 q 319 948 296 926 q 378 971 342 971 q 437 948 414 971 q 460 890 460 926 l 460 890 l 758 0 m 505 372 l 466 500 q 378 804 432 611 l 373 804 q 286 500 328 633 l 245 372 l 505 372 z "},"Ẹ":{"ha":731,"x_min":118,"x_max":665,"o":"m 651 910 l 651 799 l 251 799 l 251 532 l 589 532 l 589 420 l 251 420 l 251 112 l 665 112 l 665 0 l 118 0 l 118 910 l 651 910 m 410 -154 q 468 -177 445 -154 q 492 -235 492 -199 q 468 -293 492 -271 q 410 -315 445 -315 q 350 -293 374 -315 q 327 -235 327 -271 q 350 -177 327 -199 q 410 -154 374 -154 z "},"Ẻ":{"ha":731,"x_min":118,"x_max":665,"o":"m 651 910 l 651 799 l 251 799 l 251 532 l 589 532 l 589 420 l 251 420 l 251 112 l 665 112 l 665 0 l 118 0 l 118 910 l 651 910 m 415 1086 q 301 1142 415 1136 l 315 1215 q 464 1182 413 1212 q 515 1099 515 1153 q 470 1010 515 1042 q 353 968 425 979 l 340 1025 q 396 1048 377 1035 q 415 1086 415 1062 z "},"Ẽ":{"ha":731,"x_min":118,"x_max":665,"o":"m 651 910 l 651 799 l 251 799 l 251 532 l 589 532 l 589 420 l 251 420 l 251 112 l 665 112 l 665 0 l 118 0 l 118 910 l 651 910 m 272 985 l 201 985 q 241 1100 208 1057 q 325 1143 275 1143 q 374 1132 352 1143 q 424 1102 396 1122 q 461 1079 446 1086 q 490 1072 475 1072 q 526 1091 511 1072 q 546 1143 541 1109 l 616 1143 q 576 1029 610 1072 q 493 985 543 985 q 444 996 466 985 q 394 1026 422 1006 q 357 1049 372 1042 q 328 1056 342 1056 q 292 1038 307 1056 q 272 985 277 1020 z "},"Ế":{"ha":731,"x_min":118,"x_max":731,"o":"m 651 910 l 651 799 l 251 799 l 251 532 l 589 532 l 589 420 l 251 420 l 251 112 l 665 112 l 665 0 l 118 0 l 118 910 l 651 910 m 731 1225 l 603 1069 l 522 1069 l 621 1225 l 731 1225 m 448 1128 l 576 980 l 478 980 l 393 1064 l 388 1064 l 303 980 l 205 980 l 334 1128 l 448 1128 z "},"Ề":{"ha":731,"x_min":118,"x_max":665,"o":"m 651 910 l 651 799 l 251 799 l 251 532 l 589 532 l 589 420 l 251 420 l 251 112 l 665 112 l 665 0 l 118 0 l 118 910 l 651 910 m 585 1069 l 457 1225 l 567 1225 l 665 1069 l 585 1069 m 453 1128 l 581 980 l 484 980 l 399 1064 l 393 1064 l 309 980 l 211 980 l 339 1128 l 453 1128 z "},"Ể":{"ha":731,"x_min":118,"x_max":689,"o":"m 651 910 l 651 799 l 251 799 l 251 532 l 589 532 l 589 420 l 251 420 l 251 112 l 665 112 l 665 0 l 118 0 l 118 910 l 651 910 m 599 1146 q 577 1183 599 1171 q 502 1198 555 1194 l 515 1261 q 689 1158 689 1255 q 555 1046 689 1065 l 540 1098 q 583 1115 568 1104 q 599 1146 599 1126 m 447 1128 l 575 980 l 477 980 l 393 1064 l 387 1064 l 302 980 l 205 980 l 333 1128 l 447 1128 z "},"Ễ":{"ha":731,"x_min":118,"x_max":665,"o":"m 651 910 l 651 799 l 251 799 l 251 532 l 589 532 l 589 420 l 251 420 l 251 112 l 665 112 l 665 0 l 118 0 l 118 910 l 651 910 m 404 1275 q 435 1256 424 1261 q 459 1250 446 1250 q 494 1266 479 1250 q 514 1311 509 1282 l 578 1311 q 542 1214 572 1251 q 465 1177 512 1177 q 421 1186 440 1177 q 377 1213 401 1196 q 346 1232 357 1226 q 322 1238 335 1238 q 287 1222 302 1238 q 267 1177 273 1206 l 203 1177 q 239 1274 209 1238 q 316 1311 269 1311 q 360 1301 341 1311 q 404 1275 380 1292 m 334 1128 l 448 1128 l 576 980 l 478 980 l 393 1064 l 388 1064 l 303 980 l 205 980 l 334 1128 z "},"Ệ":{"ha":731,"x_min":118,"x_max":665,"o":"m 651 910 l 651 799 l 251 799 l 251 532 l 589 532 l 589 420 l 251 420 l 251 112 l 665 112 l 665 0 l 118 0 l 118 910 l 651 910 m 345 1137 l 473 1137 l 606 980 l 501 980 l 412 1072 l 406 1072 l 317 980 l 212 980 l 345 1137 m 410 -154 q 468 -177 445 -154 q 492 -235 492 -199 q 468 -293 492 -271 q 410 -315 445 -315 q 350 -293 374 -315 q 327 -235 327 -271 q 350 -177 327 -199 q 410 -154 374 -154 z "},"Ỉ":{"ha":369,"x_min":92,"x_max":305,"o":"m 251 910 l 251 0 l 118 0 l 118 910 l 251 910 m 205 1086 q 92 1142 205 1136 l 106 1215 q 254 1182 203 1212 q 305 1099 305 1153 q 260 1010 305 1042 q 144 968 216 979 l 131 1025 q 186 1048 168 1035 q 205 1086 205 1062 z "},"Ị":{"ha":369,"x_min":112,"x_max":277,"o":"m 251 910 l 251 0 l 118 0 l 118 910 l 251 910 m 195 -154 q 253 -177 230 -154 q 277 -235 277 -199 q 253 -293 277 -271 q 195 -315 230 -315 q 135 -293 159 -315 q 112 -235 112 -271 q 135 -177 112 -199 q 195 -154 159 -154 z "},"Ọ":{"ha":922,"x_min":67,"x_max":853,"o":"m 460 927 q 668 872 579 927 q 805 711 757 817 q 853 457 853 605 q 805 201 853 308 q 668 39 757 94 q 460 -17 579 -17 q 251 39 340 -17 q 115 201 163 94 q 67 457 67 308 q 115 712 67 606 q 251 872 163 817 q 460 927 340 927 m 460 812 q 321 770 379 812 q 233 649 263 728 q 203 457 203 569 q 233 264 203 345 q 321 141 263 184 q 460 98 379 98 q 598 141 540 98 q 687 264 656 184 q 718 457 718 345 q 687 649 718 569 q 598 770 656 728 q 460 812 540 812 m 484 -154 q 542 -177 519 -154 q 566 -235 566 -199 q 542 -293 566 -271 q 484 -315 519 -315 q 424 -293 448 -315 q 401 -235 401 -271 q 424 -177 401 -199 q 484 -154 448 -154 z "},"Ỏ":{"ha":922,"x_min":67,"x_max":853,"o":"m 460 927 q 668 872 579 927 q 805 711 757 817 q 853 457 853 605 q 805 201 853 308 q 668 39 757 94 q 460 -17 579 -17 q 251 39 340 -17 q 115 201 163 94 q 67 457 67 308 q 115 712 67 606 q 251 872 163 817 q 460 927 340 927 m 460 812 q 321 770 379 812 q 233 649 263 728 q 203 457 203 569 q 233 264 203 345 q 321 141 263 184 q 460 98 379 98 q 598 141 540 98 q 687 264 656 184 q 718 457 718 345 q 687 649 718 569 q 598 770 656 728 q 460 812 540 812 m 479 1086 q 366 1142 479 1136 l 380 1215 q 528 1182 477 1212 q 579 1099 579 1153 q 534 1010 579 1042 q 418 968 490 979 l 405 1025 q 460 1048 441 1035 q 479 1086 479 1062 z "},"Ố":{"ha":922,"x_min":67,"x_max":853,"o":"m 460 927 q 668 872 579 927 q 805 711 757 817 q 853 457 853 605 q 805 201 853 308 q 668 39 757 94 q 460 -17 579 -17 q 251 39 340 -17 q 115 201 163 94 q 67 457 67 308 q 115 712 67 606 q 251 872 163 817 q 460 927 340 927 m 460 812 q 321 770 379 812 q 233 649 263 728 q 203 457 203 569 q 233 264 203 345 q 321 141 263 184 q 460 98 379 98 q 598 141 540 98 q 687 264 656 184 q 718 457 718 345 q 687 649 718 569 q 598 770 656 728 q 460 812 540 812 m 804 1225 l 675 1069 l 595 1069 l 693 1225 l 804 1225 m 520 1128 l 648 980 l 551 980 l 466 1064 l 460 1064 l 376 980 l 278 980 l 406 1128 l 520 1128 z "},"Ồ":{"ha":922,"x_min":67,"x_max":853,"o":"m 460 927 q 668 872 579 927 q 805 711 757 817 q 853 457 853 605 q 805 201 853 308 q 668 39 757 94 q 460 -17 579 -17 q 251 39 340 -17 q 115 201 163 94 q 67 457 67 308 q 115 712 67 606 q 251 872 163 817 q 460 927 340 927 m 460 812 q 321 770 379 812 q 233 649 263 728 q 203 457 203 569 q 233 264 203 345 q 321 141 263 184 q 460 98 379 98 q 598 141 540 98 q 687 264 656 184 q 718 457 718 345 q 687 649 718 569 q 598 770 656 728 q 460 812 540 812 m 648 1069 l 521 1225 l 631 1225 l 729 1069 l 648 1069 m 517 1128 l 645 980 l 547 980 l 463 1064 l 457 1064 l 372 980 l 275 980 l 403 1128 l 517 1128 z "},"Ổ":{"ha":922,"x_min":67,"x_max":853,"o":"m 460 927 q 668 872 579 927 q 805 711 757 817 q 853 457 853 605 q 805 201 853 308 q 668 39 757 94 q 460 -17 579 -17 q 251 39 340 -17 q 115 201 163 94 q 67 457 67 308 q 115 712 67 606 q 251 872 163 817 q 460 927 340 927 m 460 812 q 321 770 379 812 q 233 649 263 728 q 203 457 203 569 q 233 264 203 345 q 321 141 263 184 q 460 98 379 98 q 598 141 540 98 q 687 264 656 184 q 718 457 718 345 q 687 649 718 569 q 598 770 656 728 q 460 812 540 812 m 668 1146 q 646 1183 668 1171 q 571 1198 624 1194 l 585 1261 q 758 1158 758 1255 q 625 1046 758 1065 l 609 1098 q 652 1115 637 1104 q 668 1146 668 1126 m 516 1128 l 644 980 l 547 980 l 462 1064 l 456 1064 l 372 980 l 274 980 l 402 1128 l 516 1128 z "},"Ỗ":{"ha":922,"x_min":67,"x_max":853,"o":"m 460 927 q 668 872 579 927 q 805 711 757 817 q 853 457 853 605 q 805 201 853 308 q 668 39 757 94 q 460 -17 579 -17 q 251 39 340 -17 q 115 201 163 94 q 67 457 67 308 q 115 712 67 606 q 251 872 163 817 q 460 927 340 927 m 460 812 q 321 770 379 812 q 233 649 263 728 q 203 457 203 569 q 233 264 203 345 q 321 141 263 184 q 460 98 379 98 q 598 141 540 98 q 687 264 656 184 q 718 457 718 345 q 687 649 718 569 q 598 770 656 728 q 460 812 540 812 m 474 1275 q 505 1256 494 1261 q 529 1250 516 1250 q 564 1266 549 1250 q 584 1311 578 1282 l 648 1311 q 612 1214 642 1251 q 535 1177 582 1177 q 491 1186 510 1177 q 447 1213 471 1196 q 416 1232 427 1226 q 392 1238 405 1238 q 357 1222 372 1238 q 337 1177 342 1206 l 273 1177 q 309 1274 279 1238 q 386 1311 339 1311 q 430 1301 411 1311 q 474 1275 450 1292 m 404 1128 l 517 1128 l 646 980 l 548 980 l 463 1064 l 458 1064 l 373 980 l 275 980 l 404 1128 z "},"Ộ":{"ha":922,"x_min":67,"x_max":853,"o":"m 368 980 l 262 980 l 396 1137 l 524 1137 l 657 980 l 552 980 l 463 1072 l 457 1072 l 368 980 m 853 457 q 805 201 853 308 q 668 39 757 94 q 460 -17 579 -17 q 251 39 340 -17 q 115 201 163 94 q 67 457 67 308 q 105 688 67 589 q 214 846 143 787 q 383 921 285 905 q 413 958 392 944 q 460 971 433 971 q 508 958 488 971 q 537 921 528 944 q 706 845 635 904 q 815 687 777 785 q 853 457 853 589 m 718 457 q 689 643 718 565 q 606 764 660 721 q 477 811 552 807 q 460 810 467 810 q 443 811 454 810 q 313 764 367 807 q 231 643 259 721 q 203 457 203 565 q 233 264 203 345 q 321 141 263 184 q 460 98 379 98 q 598 141 540 98 q 687 264 656 184 q 718 457 718 345 z "},"Ớ":{"ha":922,"x_min":67,"x_max":857,"o":"m 857 983 q 820 887 857 924 q 714 833 782 850 q 817 676 781 771 q 854 459 854 581 q 804 207 854 315 q 666 41 755 99 q 461 -17 576 -17 q 256 41 346 -17 q 117 207 167 99 q 67 459 67 315 q 117 709 67 603 q 256 871 167 814 q 461 927 345 927 q 644 883 562 927 q 725 915 699 893 q 751 975 751 937 q 731 1033 751 1000 l 824 1076 q 857 983 857 1031 m 461 812 q 325 769 383 812 q 235 647 267 726 q 203 459 203 567 q 235 269 203 351 q 325 143 267 187 q 461 98 384 98 q 596 143 538 98 q 686 269 654 187 q 718 459 718 351 q 686 647 718 567 q 596 769 654 726 q 461 812 538 812 m 379 980 l 499 1137 l 646 1137 l 487 980 l 379 980 z "},"Ờ":{"ha":922,"x_min":67,"x_max":857,"o":"m 857 983 q 820 887 857 924 q 714 833 782 850 q 817 676 781 771 q 854 459 854 581 q 804 207 854 315 q 666 41 755 99 q 461 -17 576 -17 q 256 41 346 -17 q 117 207 167 99 q 67 459 67 315 q 117 709 67 603 q 256 871 167 814 q 461 927 345 927 q 644 883 562 927 q 725 915 699 893 q 751 975 751 937 q 731 1033 751 1000 l 824 1076 q 857 983 857 1031 m 461 812 q 325 769 383 812 q 235 647 267 726 q 203 459 203 567 q 235 269 203 351 q 325 143 267 187 q 461 98 384 98 q 596 143 538 98 q 686 269 654 187 q 718 459 718 351 q 686 647 718 567 q 596 769 654 726 q 461 812 538 812 m 395 1137 l 515 980 l 407 980 l 248 1137 l 395 1137 z "},"Ở":{"ha":922,"x_min":67,"x_max":857,"o":"m 857 983 q 820 887 857 924 q 714 833 782 850 q 817 676 781 771 q 854 459 854 581 q 804 207 854 315 q 666 41 755 99 q 461 -17 576 -17 q 256 41 346 -17 q 117 207 167 99 q 67 459 67 315 q 117 709 67 603 q 256 871 167 814 q 461 927 345 927 q 644 883 562 927 q 725 915 699 893 q 751 975 751 937 q 731 1033 751 1000 l 824 1076 q 857 983 857 1031 m 461 812 q 325 769 383 812 q 235 647 267 726 q 203 459 203 567 q 235 269 203 351 q 325 143 267 187 q 461 98 384 98 q 596 143 538 98 q 686 269 654 187 q 718 459 718 351 q 686 647 718 567 q 596 769 654 726 q 461 812 538 812 z "},"Ỡ":{"ha":922,"x_min":67,"x_max":857,"o":"m 857 983 q 820 887 857 924 q 714 833 782 850 q 817 676 781 771 q 854 459 854 581 q 804 207 854 315 q 666 41 755 99 q 461 -17 576 -17 q 256 41 346 -17 q 117 207 167 99 q 67 459 67 315 q 117 709 67 603 q 256 871 167 814 q 461 927 345 927 q 644 883 562 927 q 725 915 699 893 q 751 975 751 937 q 731 1033 751 1000 l 824 1076 q 857 983 857 1031 m 461 812 q 325 769 383 812 q 235 647 267 726 q 203 459 203 567 q 235 269 203 351 q 325 143 267 187 q 461 98 384 98 q 596 143 538 98 q 686 269 654 187 q 718 459 718 351 q 686 647 718 567 q 596 769 654 726 q 461 812 538 812 m 324 985 l 254 985 q 294 1100 260 1057 q 377 1143 327 1143 q 426 1132 404 1143 q 476 1102 448 1122 q 513 1079 498 1086 q 543 1072 528 1072 q 578 1091 563 1072 q 598 1143 593 1109 l 669 1143 q 629 1029 662 1072 q 545 985 595 985 q 496 996 518 985 q 446 1026 474 1006 q 409 1049 424 1042 q 380 1056 395 1056 q 345 1038 359 1056 q 324 985 330 1020 z "},"Ợ":{"ha":922,"x_min":67,"x_max":857,"o":"m 857 983 q 820 887 857 924 q 714 833 782 850 q 817 676 781 771 q 854 459 854 581 q 804 207 854 315 q 666 41 755 99 q 461 -17 576 -17 q 256 41 346 -17 q 117 207 167 99 q 67 459 67 315 q 117 709 67 603 q 256 871 167 814 q 461 927 345 927 q 644 883 562 927 q 725 915 699 893 q 751 975 751 937 q 731 1033 751 1000 l 824 1076 q 857 983 857 1031 m 461 812 q 325 769 383 812 q 235 647 267 726 q 203 459 203 567 q 235 269 203 351 q 325 143 267 187 q 461 98 384 98 q 596 143 538 98 q 686 269 654 187 q 718 459 718 351 q 686 647 718 567 q 596 769 654 726 q 461 812 538 812 m 462 -131 q 520 -154 497 -131 q 544 -212 544 -176 q 520 -270 544 -248 q 462 -292 497 -292 q 402 -270 426 -292 q 379 -212 379 -248 q 402 -154 379 -176 q 462 -131 426 -131 z "},"Ụ":{"ha":895,"x_min":114,"x_max":781,"o":"m 247 910 l 247 372 q 300 161 247 224 q 448 98 353 98 q 599 161 544 98 q 654 372 654 224 l 654 910 l 781 910 l 781 378 q 448 -17 781 -17 q 203 76 292 -17 q 114 378 114 170 l 114 910 l 247 910 m 448 -158 q 507 -181 484 -158 q 530 -239 530 -203 q 507 -297 530 -275 q 448 -319 484 -319 q 389 -297 412 -319 q 366 -239 366 -275 q 389 -181 366 -203 q 448 -158 412 -158 z "},"Ủ":{"ha":895,"x_min":114,"x_max":781,"o":"m 247 910 l 247 372 q 300 161 247 224 q 448 98 353 98 q 599 161 544 98 q 654 372 654 224 l 654 910 l 781 910 l 781 378 q 448 -17 781 -17 q 203 76 292 -17 q 114 378 114 170 l 114 910 l 247 910 m 469 1086 q 355 1142 469 1136 l 369 1215 q 517 1182 467 1212 q 568 1099 568 1153 q 524 1010 568 1042 q 407 968 479 979 l 394 1025 q 450 1048 431 1035 q 469 1086 469 1062 z "},"Ứ":{"ha":915,"x_min":114,"x_max":937,"o":"m 937 1010 q 895 908 937 945 q 781 856 852 871 l 781 385 q 693 78 781 174 q 448 -17 604 -17 q 203 79 292 -17 q 114 385 114 174 l 114 910 l 247 910 l 247 378 q 300 163 247 229 q 448 98 354 98 q 654 378 654 98 l 654 910 l 712 910 q 801 937 771 918 q 831 1002 831 957 q 810 1060 831 1028 l 904 1104 q 937 1010 937 1059 m 383 980 l 503 1137 l 650 1137 l 491 980 l 383 980 z "},"Ừ":{"ha":915,"x_min":114,"x_max":937,"o":"m 937 1010 q 895 908 937 945 q 781 856 852 871 l 781 385 q 693 78 781 174 q 448 -17 604 -17 q 203 79 292 -17 q 114 385 114 174 l 114 910 l 247 910 l 247 378 q 300 163 247 229 q 448 98 354 98 q 654 378 654 98 l 654 910 l 712 910 q 801 937 771 918 q 831 1002 831 957 q 810 1060 831 1028 l 904 1104 q 937 1010 937 1059 m 401 1137 l 522 980 l 414 980 l 255 1137 l 401 1137 z "},"Ử":{"ha":915,"x_min":114,"x_max":937,"o":"m 937 1010 q 895 908 937 945 q 781 856 852 871 l 781 385 q 693 78 781 174 q 448 -17 604 -17 q 203 79 292 -17 q 114 385 114 174 l 114 910 l 247 910 l 247 378 q 300 163 247 229 q 448 98 354 98 q 654 378 654 98 l 654 910 l 712 910 q 801 937 771 918 q 831 1002 831 957 q 810 1060 831 1028 l 904 1104 q 937 1010 937 1059 m 467 1086 q 353 1142 467 1136 l 367 1215 q 515 1182 465 1212 q 566 1099 566 1153 q 522 1010 566 1042 q 405 968 477 979 l 392 1025 q 448 1048 429 1035 q 467 1086 467 1062 z "},"Ữ":{"ha":915,"x_min":114,"x_max":937,"o":"m 937 1010 q 895 908 937 945 q 781 856 852 871 l 781 385 q 693 78 781 174 q 448 -17 604 -17 q 203 79 292 -17 q 114 385 114 174 l 114 910 l 247 910 l 247 378 q 300 163 247 229 q 448 98 354 98 q 654 378 654 98 l 654 910 l 712 910 q 801 937 771 918 q 831 1002 831 957 q 810 1060 831 1028 l 904 1104 q 937 1010 937 1059 m 311 985 l 240 985 q 280 1100 247 1057 q 363 1143 313 1143 q 413 1132 391 1143 q 463 1102 435 1122 q 499 1079 485 1086 q 529 1072 514 1072 q 564 1091 549 1072 q 585 1143 579 1109 l 655 1143 q 615 1029 648 1072 q 532 985 582 985 q 483 996 505 985 q 433 1026 460 1006 q 396 1049 410 1042 q 366 1056 381 1056 q 331 1038 346 1056 q 311 985 316 1020 z "},"Ự":{"ha":915,"x_min":114,"x_max":937,"o":"m 937 1010 q 895 908 937 945 q 781 856 852 871 l 781 385 q 693 78 781 174 q 448 -17 604 -17 q 203 79 292 -17 q 114 385 114 174 l 114 910 l 247 910 l 247 378 q 300 163 247 229 q 448 98 354 98 q 654 378 654 98 l 654 910 l 712 910 q 801 937 771 918 q 831 1002 831 957 q 810 1060 831 1028 l 904 1104 q 937 1010 937 1059 m 448 -131 q 507 -154 484 -131 q 530 -212 530 -176 q 507 -270 530 -248 q 448 -292 484 -292 q 389 -270 412 -292 q 366 -212 366 -248 q 389 -154 366 -176 q 448 -131 412 -131 z "},"Ỵ":{"ha":668,"x_min":-6,"x_max":673,"o":"m -6 910 l 136 910 l 245 663 q 332 463 290 557 l 337 463 l 372 540 q 425 663 411 627 l 536 910 l 673 910 l 399 347 l 399 0 l 268 0 l 268 347 l -6 910 m 334 971 q 393 948 370 971 q 416 890 416 926 q 393 832 416 854 q 334 810 370 810 q 275 832 298 810 q 252 890 252 854 q 275 948 252 926 q 334 971 298 971 z "},"Ỷ":{"ha":668,"x_min":-6,"x_max":673,"o":"m -6 910 l 136 910 l 245 663 q 332 463 290 557 l 337 463 l 372 540 q 425 663 411 627 l 536 910 l 673 910 l 399 347 l 399 0 l 268 0 l 268 347 l -6 910 m 355 1086 q 241 1142 355 1136 l 256 1215 q 404 1182 353 1212 q 455 1099 455 1153 q 410 1010 455 1042 q 294 968 366 979 l 281 1025 q 336 1048 317 1035 q 355 1086 355 1062 z "},"Ỹ":{"ha":668,"x_min":-6,"x_max":673,"o":"m -6 910 l 136 910 l 245 663 q 332 463 290 557 l 337 463 l 372 540 q 425 663 411 627 l 536 910 l 673 910 l 399 347 l 399 0 l 268 0 l 268 347 l -6 910 m 197 985 l 126 985 q 166 1100 133 1057 q 250 1143 199 1143 q 299 1132 277 1143 q 349 1102 321 1122 q 386 1079 371 1086 q 415 1072 400 1072 q 450 1091 435 1072 q 471 1143 465 1109 l 541 1143 q 501 1029 534 1072 q 418 985 468 985 q 369 996 391 985 q 319 1026 347 1006 q 282 1049 296 1042 q 252 1056 267 1056 q 217 1038 232 1056 q 197 985 202 1020 z "},"a":{"ha":717,"x_min":78,"x_max":618,"o":"m 353 587 q 245 572 298 587 q 151 528 193 556 l 100 616 q 226 673 155 651 q 375 694 298 694 q 559 623 500 694 q 618 410 618 551 l 618 0 l 511 0 l 500 79 l 496 79 q 428 26 456 45 q 364 -5 399 7 q 284 -17 328 -17 q 176 7 223 -17 q 104 76 130 31 q 78 180 78 121 q 488 429 78 411 q 457 548 488 509 q 353 587 427 587 m 488 172 l 488 347 q 271 298 336 341 q 205 188 205 255 q 237 112 205 137 q 322 87 268 87 q 403 107 366 87 q 488 172 440 127 z "},"á":{"ha":717,"x_min":78,"x_max":618,"o":"m 353 587 q 245 572 298 587 q 151 528 193 556 l 100 616 q 226 673 155 651 q 375 694 298 694 q 559 623 500 694 q 618 410 618 551 l 618 0 l 511 0 l 500 79 l 496 79 q 428 26 456 45 q 364 -5 399 7 q 284 -17 328 -17 q 176 7 223 -17 q 104 76 130 31 q 78 180 78 121 q 488 429 78 411 q 457 548 488 509 q 353 587 427 587 m 488 172 l 488 347 q 271 298 336 341 q 205 188 205 255 q 237 112 205 137 q 322 87 268 87 q 403 107 366 87 q 488 172 440 127 m 321 796 l 446 994 l 580 994 l 420 796 l 321 796 z "},"ă":{"ha":717,"x_min":78,"x_max":618,"o":"m 353 587 q 245 572 298 587 q 151 528 193 556 l 100 616 q 226 673 155 651 q 375 694 298 694 q 559 623 500 694 q 618 410 618 551 l 618 0 l 511 0 l 500 79 l 496 79 q 428 26 456 45 q 364 -5 399 7 q 284 -17 328 -17 q 176 7 223 -17 q 104 76 130 31 q 78 180 78 121 q 488 429 78 411 q 457 548 488 509 q 353 587 427 587 m 488 172 l 488 347 q 271 298 336 341 q 205 188 205 255 q 237 112 205 137 q 322 87 268 87 q 403 107 366 87 q 488 172 440 127 m 271 978 q 302 906 277 935 q 372 877 328 877 q 440 906 415 877 q 471 978 465 935 l 550 978 q 527 891 547 932 q 468 825 507 850 q 372 799 429 799 q 275 825 314 799 q 215 891 235 850 q 193 978 195 932 l 271 978 z "},"â":{"ha":717,"x_min":78,"x_max":618,"o":"m 353 587 q 245 572 298 587 q 151 528 193 556 l 100 616 q 226 673 155 651 q 375 694 298 694 q 559 623 500 694 q 618 410 618 551 l 618 0 l 511 0 l 500 79 l 496 79 q 428 26 456 45 q 364 -5 399 7 q 284 -17 328 -17 q 176 7 223 -17 q 104 76 130 31 q 78 180 78 121 q 488 429 78 411 q 457 548 488 509 q 353 587 427 587 m 488 172 l 488 347 q 271 298 336 341 q 205 188 205 255 q 237 112 205 137 q 322 87 268 87 q 403 107 366 87 q 488 172 440 127 m 425 994 l 556 796 l 463 796 l 374 920 l 368 920 l 279 796 l 186 796 l 317 994 l 425 994 z "},"ä":{"ha":717,"x_min":78,"x_max":618,"o":"m 353 587 q 245 572 298 587 q 151 528 193 556 l 100 616 q 226 673 155 651 q 375 694 298 694 q 559 623 500 694 q 618 410 618 551 l 618 0 l 511 0 l 500 79 l 496 79 q 428 26 456 45 q 364 -5 399 7 q 284 -17 328 -17 q 176 7 223 -17 q 104 76 130 31 q 78 180 78 121 q 488 429 78 411 q 457 548 488 509 q 353 587 427 587 m 488 172 l 488 347 q 271 298 336 341 q 205 188 205 255 q 237 112 205 137 q 322 87 268 87 q 403 107 366 87 q 488 172 440 127 m 248 959 q 301 938 280 959 q 321 886 321 918 q 301 833 321 854 q 248 812 280 812 q 196 833 217 812 q 176 886 176 854 q 196 938 176 918 q 248 959 217 959 m 494 959 q 547 938 527 959 q 567 886 567 918 q 547 833 567 854 q 494 812 527 812 q 443 833 463 812 q 422 886 422 854 q 443 938 422 918 q 494 959 463 959 z "},"à":{"ha":717,"x_min":78,"x_max":618,"o":"m 353 587 q 245 572 298 587 q 151 528 193 556 l 100 616 q 226 673 155 651 q 375 694 298 694 q 559 623 500 694 q 618 410 618 551 l 618 0 l 511 0 l 500 79 l 496 79 q 428 26 456 45 q 364 -5 399 7 q 284 -17 328 -17 q 176 7 223 -17 q 104 76 130 31 q 78 180 78 121 q 488 429 78 411 q 457 548 488 509 q 353 587 427 587 m 488 172 l 488 347 q 271 298 336 341 q 205 188 205 255 q 237 112 205 137 q 322 87 268 87 q 403 107 366 87 q 488 172 440 127 m 299 994 l 424 796 l 325 796 l 165 994 l 299 994 z "},"ā":{"ha":717,"x_min":78,"x_max":618,"o":"m 353 587 q 245 572 298 587 q 151 528 193 556 l 100 616 q 226 673 155 651 q 375 694 298 694 q 559 623 500 694 q 618 410 618 551 l 618 0 l 511 0 l 500 79 l 496 79 q 428 26 456 45 q 364 -5 399 7 q 284 -17 328 -17 q 176 7 223 -17 q 104 76 130 31 q 78 180 78 121 q 488 429 78 411 q 457 548 488 509 q 353 587 427 587 m 488 172 l 488 347 q 271 298 336 341 q 205 188 205 255 q 237 112 205 137 q 322 87 268 87 q 403 107 366 87 q 488 172 440 127 m 545 921 l 545 833 l 197 833 l 197 921 l 545 921 z "},"ą":{"ha":717,"x_min":78,"x_max":647,"o":"m 355 587 q 157 517 262 587 l 106 606 q 376 694 247 694 q 558 620 498 694 q 618 410 618 546 l 618 0 q 529 -61 562 -22 q 497 -140 497 -100 q 516 -186 497 -170 q 561 -203 534 -203 q 616 -185 587 -203 l 647 -248 q 593 -276 626 -264 q 533 -287 560 -287 q 440 -256 476 -287 q 404 -168 404 -224 q 436 -70 404 -115 q 513 4 469 -24 l 500 79 l 496 79 q 389 8 442 34 q 277 -17 335 -17 q 174 7 220 -17 q 103 75 129 31 q 78 178 78 119 q 121 302 78 252 q 254 384 164 352 q 488 431 344 415 q 456 544 487 500 q 355 587 426 587 m 488 172 l 488 347 q 270 289 334 328 q 205 187 205 250 q 236 112 205 137 q 317 87 266 87 q 400 108 361 87 q 488 172 440 128 z "},"å":{"ha":717,"x_min":78,"x_max":618,"o":"m 353 587 q 245 572 298 587 q 151 528 193 556 l 100 616 q 226 673 155 651 q 375 694 298 694 q 559 623 500 694 q 618 410 618 551 l 618 0 l 511 0 l 500 79 l 496 79 q 428 26 456 45 q 364 -5 399 7 q 284 -17 328 -17 q 176 7 223 -17 q 104 76 130 31 q 78 180 78 121 q 488 429 78 411 q 457 548 488 509 q 353 587 427 587 m 488 172 l 488 347 q 271 298 336 341 q 205 188 205 255 q 237 112 205 137 q 322 87 268 87 q 403 107 366 87 q 488 172 440 127 m 371 1016 q 441 1000 410 1016 q 489 954 471 983 q 506 886 506 924 q 489 817 506 846 q 441 770 471 787 q 371 754 410 754 q 301 770 332 754 q 254 817 271 787 q 237 886 237 846 q 254 954 237 924 q 301 1000 271 983 q 371 1016 332 1016 m 371 960 q 325 940 343 960 q 306 886 306 919 q 325 831 306 852 q 371 810 343 810 q 417 831 399 810 q 435 886 435 852 q 417 940 435 919 q 371 960 398 960 z "},"ã":{"ha":717,"x_min":78,"x_max":618,"o":"m 353 587 q 245 572 298 587 q 151 528 193 556 l 100 616 q 226 673 155 651 q 375 694 298 694 q 559 623 500 694 q 618 410 618 551 l 618 0 l 511 0 l 500 79 l 496 79 q 428 26 456 45 q 364 -5 399 7 q 284 -17 328 -17 q 176 7 223 -17 q 104 76 130 31 q 78 180 78 121 q 488 429 78 411 q 457 548 488 509 q 353 587 427 587 m 488 172 l 488 347 q 271 298 336 341 q 205 188 205 255 q 237 112 205 137 q 322 87 268 87 q 403 107 366 87 q 488 172 440 127 m 389 917 q 424 895 411 902 q 450 888 437 888 q 483 905 471 888 q 500 958 494 922 l 571 958 q 536 845 566 887 q 455 804 506 804 q 407 814 429 804 q 356 844 385 824 q 321 865 336 858 q 292 873 306 873 q 260 856 272 873 q 244 804 249 839 l 171 804 q 207 916 176 873 q 288 958 237 958 q 337 947 315 958 q 389 917 359 937 z "},"æ":{"ha":1090,"x_min":78,"x_max":1038,"o":"m 366 694 q 489 660 444 694 q 559 558 535 625 q 789 694 647 694 q 975 608 912 694 q 1038 373 1038 522 q 1034 305 1038 334 l 603 305 q 633 191 606 240 q 705 116 661 142 q 805 89 750 89 q 886 103 848 89 q 966 143 924 117 l 1012 54 q 788 -17 903 -17 q 653 17 711 -17 q 551 106 595 50 q 412 14 481 45 q 277 -17 343 -17 q 174 7 220 -17 q 103 75 129 31 q 78 178 78 119 q 176 351 78 289 q 481 427 274 412 q 349 587 480 587 q 249 571 298 587 q 157 526 199 555 l 106 616 q 229 672 161 650 q 366 694 296 694 m 785 592 q 697 568 736 592 q 633 498 658 543 q 603 390 609 452 l 924 390 q 891 541 924 489 q 785 592 857 592 m 507 183 q 489 243 496 208 q 481 313 482 278 l 481 343 q 271 289 336 328 q 205 187 205 250 q 236 112 205 137 q 317 87 266 87 q 414 113 362 87 q 507 183 465 138 z "},"ǽ":{"ha":1090,"x_min":78,"x_max":1038,"o":"m 366 694 q 489 660 444 694 q 559 558 535 625 q 789 694 647 694 q 975 608 912 694 q 1038 373 1038 522 q 1034 305 1038 334 l 603 305 q 633 191 606 240 q 705 116 661 142 q 805 89 750 89 q 886 103 848 89 q 966 143 924 117 l 1012 54 q 788 -17 903 -17 q 653 17 711 -17 q 551 106 595 50 q 412 14 481 45 q 277 -17 343 -17 q 174 7 220 -17 q 103 75 129 31 q 78 178 78 119 q 176 351 78 289 q 481 427 274 412 q 349 587 480 587 q 249 571 298 587 q 157 526 199 555 l 106 616 q 229 672 161 650 q 366 694 296 694 m 785 592 q 697 568 736 592 q 633 498 658 543 q 603 390 609 452 l 924 390 q 891 541 924 489 q 785 592 857 592 m 507 183 q 489 243 496 208 q 481 313 482 278 l 481 343 q 271 289 336 328 q 205 187 205 250 q 236 112 205 137 q 317 87 266 87 q 414 113 362 87 q 507 183 465 138 m 509 796 l 633 994 l 767 994 l 608 796 l 509 796 z "},"b":{"ha":776,"x_min":110,"x_max":711,"o":"m 240 986 l 240 722 l 237 604 q 337 670 284 646 q 445 694 391 694 q 644 604 577 694 q 711 349 711 514 q 672 150 711 233 q 568 25 633 68 q 421 -17 502 -17 q 323 5 373 -17 q 229 67 274 26 l 224 67 l 214 0 l 110 0 l 110 986 l 240 986 m 576 347 q 538 525 576 464 q 410 586 500 586 q 327 564 369 586 q 240 498 286 542 l 240 158 q 319 108 279 124 q 396 92 359 92 q 491 121 450 92 q 553 208 531 151 q 576 347 576 265 z "},"c":{"ha":636,"x_min":61,"x_max":597,"o":"m 590 616 l 527 533 q 396 587 464 587 q 292 558 337 587 q 221 472 246 528 q 195 340 195 416 q 220 208 195 264 q 289 121 245 151 q 392 91 334 91 q 541 149 474 91 l 597 64 q 496 3 552 24 q 380 -17 441 -17 q 216 24 288 -17 q 102 146 144 66 q 61 340 61 227 q 105 534 61 454 q 225 654 150 614 q 390 694 300 694 q 503 673 453 694 q 590 616 553 652 z "},"ć":{"ha":636,"x_min":61,"x_max":597,"o":"m 590 616 l 527 533 q 396 587 464 587 q 292 558 337 587 q 221 472 246 528 q 195 340 195 416 q 220 208 195 264 q 289 121 245 151 q 392 91 334 91 q 541 149 474 91 l 597 64 q 496 3 552 24 q 380 -17 441 -17 q 216 24 288 -17 q 102 146 144 66 q 61 340 61 227 q 105 534 61 454 q 225 654 150 614 q 390 694 300 694 q 503 673 453 694 q 590 616 553 652 m 337 796 l 462 994 l 595 994 l 436 796 l 337 796 z "},"č":{"ha":636,"x_min":61,"x_max":597,"o":"m 590 616 l 527 533 q 396 587 464 587 q 292 558 337 587 q 221 472 246 528 q 195 340 195 416 q 220 208 195 264 q 289 121 245 151 q 392 91 334 91 q 541 149 474 91 l 597 64 q 496 3 552 24 q 380 -17 441 -17 q 216 24 288 -17 q 102 146 144 66 q 61 340 61 227 q 105 534 61 454 q 225 654 150 614 q 390 694 300 694 q 503 673 453 694 q 590 616 553 652 m 294 994 l 384 870 l 389 870 l 478 994 l 572 994 l 440 796 l 332 796 l 201 994 l 294 994 z "},"ç":{"ha":636,"x_min":61,"x_max":604,"o":"m 479 -168 q 420 -258 479 -226 q 270 -298 361 -290 l 258 -236 q 380 -171 380 -221 q 359 -131 380 -146 q 292 -104 338 -115 l 338 -14 q 195 40 258 -4 q 97 161 132 85 q 61 338 61 237 q 106 528 61 447 q 227 652 151 609 q 392 694 302 694 q 590 614 507 694 l 527 531 q 464 573 495 558 q 399 587 433 587 q 294 556 340 587 q 222 468 248 524 q 196 338 196 411 q 221 209 196 264 q 291 122 246 153 q 394 91 336 91 q 547 155 473 91 l 604 71 q 518 14 565 36 q 423 -13 471 -7 l 397 -67 q 457 -104 435 -80 q 479 -168 479 -128 z "},"ĉ":{"ha":636,"x_min":61,"x_max":597,"o":"m 590 616 l 527 533 q 396 587 464 587 q 292 558 337 587 q 221 472 246 528 q 195 340 195 416 q 220 208 195 264 q 289 121 245 151 q 392 91 334 91 q 541 149 474 91 l 597 64 q 496 3 552 24 q 380 -17 441 -17 q 216 24 288 -17 q 102 146 144 66 q 61 340 61 227 q 105 534 61 454 q 225 654 150 614 q 390 694 300 694 q 503 673 453 694 q 590 616 553 652 m 440 994 l 572 796 l 478 796 l 389 920 l 384 920 l 294 796 l 201 796 l 332 994 l 440 994 z "},"ċ":{"ha":636,"x_min":61,"x_max":597,"o":"m 590 616 l 527 533 q 396 587 464 587 q 292 558 337 587 q 221 472 246 528 q 195 340 195 416 q 220 208 195 264 q 289 121 245 151 q 392 91 334 91 q 541 149 474 91 l 597 64 q 496 3 552 24 q 380 -17 441 -17 q 216 24 288 -17 q 102 146 144 66 q 61 340 61 227 q 105 534 61 454 q 225 654 150 614 q 390 694 300 694 q 503 673 453 694 q 590 616 553 652 m 387 971 q 446 948 422 971 q 469 890 469 926 q 446 832 469 854 q 387 810 422 810 q 328 832 351 810 q 304 890 304 854 q 328 948 304 926 q 387 971 351 971 z "},"d":{"ha":776,"x_min":63,"x_max":666,"o":"m 541 617 l 534 731 l 534 986 l 666 986 l 666 0 l 558 0 l 547 77 l 543 77 q 449 9 500 35 q 343 -17 397 -17 q 195 24 258 -17 q 98 144 132 64 q 63 339 63 224 q 102 530 63 450 q 208 652 142 610 q 355 694 275 694 q 451 675 410 694 q 541 617 493 656 m 534 180 l 534 519 q 458 570 496 555 q 380 586 420 586 q 284 557 326 586 q 219 472 243 528 q 196 340 196 416 q 241 156 196 219 q 373 92 286 92 q 456 114 417 92 q 534 180 496 135 z "},"ð":{"ha":761,"x_min":71,"x_max":680,"o":"m 680 359 q 642 163 680 249 q 535 31 604 78 q 374 -17 466 -17 q 224 23 294 -17 q 113 138 155 64 q 71 310 71 212 q 109 474 71 403 q 212 584 147 545 q 356 623 277 623 q 455 601 409 623 q 535 537 502 580 q 481 676 517 614 q 392 789 445 737 l 196 688 l 159 751 l 333 840 q 183 935 267 889 l 242 1017 q 434 892 356 955 l 631 993 l 668 930 l 492 840 q 630 631 581 749 q 680 359 680 513 m 553 428 q 469 502 512 481 q 377 522 427 522 q 279 495 321 522 q 215 420 237 469 q 193 310 193 372 q 218 195 193 245 q 286 118 243 145 q 378 91 328 91 q 510 161 464 91 q 555 353 555 232 q 553 428 555 382 z "},"ď":{"ha":776,"x_min":63,"x_max":827,"o":"m 541 617 l 534 731 l 534 986 l 666 986 l 666 0 l 558 0 l 547 77 l 543 77 q 449 9 500 35 q 343 -17 397 -17 q 195 24 258 -17 q 98 144 132 64 q 63 339 63 224 q 102 530 63 450 q 208 652 142 610 q 355 694 275 694 q 451 675 410 694 q 541 617 493 656 m 534 180 l 534 519 q 458 570 496 555 q 380 586 420 586 q 284 557 326 586 q 219 472 243 528 q 196 340 196 416 q 241 156 196 219 q 373 92 286 92 q 456 114 417 92 q 534 180 496 135 m 737 1058 l 827 1058 l 826 976 l 804 761 l 743 761 l 737 1058 z "},"đ":{"ha":776,"x_min":63,"x_max":765,"o":"m 666 789 l 666 0 l 555 0 l 546 74 l 542 74 q 450 8 500 33 q 343 -17 399 -17 q 195 23 258 -17 q 97 140 132 63 q 63 323 63 216 q 103 503 63 425 q 211 624 144 581 q 355 667 277 667 q 451 648 410 667 q 541 589 493 629 l 534 703 l 534 789 l 314 789 l 314 862 l 534 862 l 534 986 l 666 986 l 666 862 l 765 862 l 765 797 l 666 789 m 380 558 q 288 529 329 558 q 222 448 246 500 q 198 326 198 395 q 244 153 198 214 q 373 92 290 92 q 456 114 417 92 q 534 180 496 135 l 534 492 q 458 543 496 527 q 380 558 420 558 z "},"e":{"ha":694,"x_min":61,"x_max":642,"o":"m 642 375 q 637 309 642 337 l 189 309 q 221 188 193 238 q 297 113 250 138 q 406 87 345 87 q 492 98 452 87 q 570 133 532 109 l 614 50 q 389 -17 513 -17 q 222 25 296 -17 q 104 147 147 66 q 61 338 61 227 q 102 529 61 449 q 214 652 144 610 q 368 694 283 694 q 573 611 504 694 q 642 375 642 527 m 370 592 q 283 569 323 592 q 219 502 244 547 q 188 393 194 456 l 529 393 q 370 592 529 592 z "},"é":{"ha":694,"x_min":61,"x_max":642,"o":"m 642 375 q 637 309 642 337 l 189 309 q 221 188 193 238 q 297 113 250 138 q 406 87 345 87 q 492 98 452 87 q 570 133 532 109 l 614 50 q 389 -17 513 -17 q 222 25 296 -17 q 104 147 147 66 q 61 338 61 227 q 102 529 61 449 q 214 652 144 610 q 368 694 283 694 q 573 611 504 694 q 642 375 642 527 m 370 592 q 283 569 323 592 q 219 502 244 547 q 188 393 194 456 l 529 393 q 370 592 529 592 m 319 796 l 444 994 l 577 994 l 418 796 l 319 796 z "},"ĕ":{"ha":694,"x_min":61,"x_max":642,"o":"m 642 375 q 637 309 642 337 l 189 309 q 221 188 193 238 q 297 113 250 138 q 406 87 345 87 q 492 98 452 87 q 570 133 532 109 l 614 50 q 389 -17 513 -17 q 222 25 296 -17 q 104 147 147 66 q 61 338 61 227 q 102 529 61 449 q 214 652 144 610 q 368 694 283 694 q 573 611 504 694 q 642 375 642 527 m 370 592 q 283 569 323 592 q 219 502 244 547 q 188 393 194 456 l 529 393 q 370 592 529 592 m 269 978 q 300 906 275 935 q 369 877 325 877 q 437 906 412 877 q 469 978 463 935 l 547 978 q 525 891 545 932 q 465 825 505 850 q 369 799 426 799 q 272 825 311 799 q 213 891 233 850 q 190 978 193 932 l 269 978 z "},"ě":{"ha":694,"x_min":61,"x_max":642,"o":"m 642 375 q 637 309 642 337 l 189 309 q 221 188 193 238 q 297 113 250 138 q 406 87 345 87 q 492 98 452 87 q 570 133 532 109 l 614 50 q 389 -17 513 -17 q 222 25 296 -17 q 104 147 147 66 q 61 338 61 227 q 102 529 61 449 q 214 652 144 610 q 368 694 283 694 q 573 611 504 694 q 642 375 642 527 m 370 592 q 283 569 323 592 q 219 502 244 547 q 188 393 194 456 l 529 393 q 370 592 529 592 m 276 994 l 366 870 l 371 870 l 460 994 l 553 994 l 422 796 l 314 796 l 183 994 l 276 994 z "},"ê":{"ha":694,"x_min":61,"x_max":642,"o":"m 642 375 q 637 309 642 337 l 189 309 q 221 188 193 238 q 297 113 250 138 q 406 87 345 87 q 492 98 452 87 q 570 133 532 109 l 614 50 q 389 -17 513 -17 q 222 25 296 -17 q 104 147 147 66 q 61 338 61 227 q 102 529 61 449 q 214 652 144 610 q 368 694 283 694 q 573 611 504 694 q 642 375 642 527 m 370 592 q 283 569 323 592 q 219 502 244 547 q 188 393 194 456 l 529 393 q 370 592 529 592 m 422 994 l 553 796 l 460 796 l 371 920 l 366 920 l 276 796 l 183 796 l 314 994 l 422 994 z "},"ë":{"ha":694,"x_min":61,"x_max":642,"o":"m 642 375 q 637 309 642 337 l 189 309 q 221 188 193 238 q 297 113 250 138 q 406 87 345 87 q 492 98 452 87 q 570 133 532 109 l 614 50 q 389 -17 513 -17 q 222 25 296 -17 q 104 147 147 66 q 61 338 61 227 q 102 529 61 449 q 214 652 144 610 q 368 694 283 694 q 573 611 504 694 q 642 375 642 527 m 370 592 q 283 569 323 592 q 219 502 244 547 q 188 393 194 456 l 529 393 q 370 592 529 592 m 245 959 q 298 938 277 959 q 319 886 319 918 q 298 833 319 854 q 245 812 277 812 q 194 833 214 812 q 173 886 173 854 q 194 938 173 918 q 245 959 214 959 m 492 959 q 544 938 524 959 q 564 886 564 918 q 544 833 564 854 q 492 812 524 812 q 440 833 460 812 q 419 886 419 854 q 440 938 419 918 q 492 959 460 959 z "},"ė":{"ha":694,"x_min":61,"x_max":642,"o":"m 642 375 q 637 309 642 337 l 189 309 q 221 188 193 238 q 297 113 250 138 q 406 87 345 87 q 492 98 452 87 q 570 133 532 109 l 614 50 q 389 -17 513 -17 q 222 25 296 -17 q 104 147 147 66 q 61 338 61 227 q 102 529 61 449 q 214 652 144 610 q 368 694 283 694 q 573 611 504 694 q 642 375 642 527 m 370 592 q 283 569 323 592 q 219 502 244 547 q 188 393 194 456 l 529 393 q 370 592 529 592 m 369 971 q 428 948 404 971 q 451 890 451 926 q 428 832 451 854 q 369 810 404 810 q 310 832 333 810 q 286 890 286 854 q 310 948 286 926 q 369 971 333 971 z "},"è":{"ha":694,"x_min":61,"x_max":642,"o":"m 642 375 q 637 309 642 337 l 189 309 q 221 188 193 238 q 297 113 250 138 q 406 87 345 87 q 492 98 452 87 q 570 133 532 109 l 614 50 q 389 -17 513 -17 q 222 25 296 -17 q 104 147 147 66 q 61 338 61 227 q 102 529 61 449 q 214 652 144 610 q 368 694 283 694 q 573 611 504 694 q 642 375 642 527 m 370 592 q 283 569 323 592 q 219 502 244 547 q 188 393 194 456 l 529 393 q 370 592 529 592 m 296 994 l 421 796 l 322 796 l 163 994 l 296 994 z "},"ē":{"ha":694,"x_min":61,"x_max":642,"o":"m 642 375 q 637 309 642 337 l 189 309 q 221 188 193 238 q 297 113 250 138 q 406 87 345 87 q 492 98 452 87 q 570 133 532 109 l 614 50 q 389 -17 513 -17 q 222 25 296 -17 q 104 147 147 66 q 61 338 61 227 q 102 529 61 449 q 214 652 144 610 q 368 694 283 694 q 573 611 504 694 q 642 375 642 527 m 370 592 q 283 569 323 592 q 219 502 244 547 q 188 393 194 456 l 529 393 q 370 592 529 592 m 543 921 l 543 833 l 195 833 l 195 921 l 543 921 z "},"ę":{"ha":694,"x_min":61,"x_max":642,"o":"m 642 375 q 637 309 642 337 l 189 309 q 222 190 194 240 q 298 114 251 140 q 406 87 345 87 q 570 138 488 87 l 616 54 q 496 -52 529 -7 q 463 -140 463 -96 q 481 -186 463 -170 q 527 -203 499 -203 q 555 -198 542 -203 q 581 -185 568 -194 l 612 -248 q 558 -276 591 -264 q 498 -287 525 -287 q 406 -256 441 -287 q 370 -168 370 -224 q 394 -79 370 -121 q 452 -7 419 -37 q 389 -17 427 -17 q 222 26 297 -17 q 104 149 148 68 q 61 338 61 229 q 104 526 61 444 q 218 651 147 607 q 368 694 289 694 q 517 655 455 694 q 610 544 578 616 q 642 375 642 471 m 372 592 q 287 569 327 592 q 221 500 248 545 q 188 393 195 455 l 529 393 q 488 540 529 488 q 372 592 448 592 z "},"f":{"ha":418,"x_min":40,"x_max":456,"o":"m 354 897 q 285 867 308 897 q 262 774 262 837 l 262 677 l 401 677 l 401 572 l 262 572 l 262 0 l 132 0 l 132 572 l 40 572 l 40 670 l 132 677 l 132 774 q 183 942 132 882 q 339 1003 235 1003 q 456 980 399 1003 l 429 881 q 354 897 390 897 z "},"g":{"ha":707,"x_min":60,"x_max":690,"o":"m 159 40 q 98 149 98 77 q 172 267 98 216 l 172 272 q 109 349 134 303 q 83 454 83 395 q 118 585 83 530 q 211 667 152 639 q 344 694 270 694 q 441 677 397 694 l 679 677 l 679 581 l 545 581 q 582 524 568 558 q 596 450 596 490 q 564 322 596 375 q 475 242 532 269 q 344 216 418 216 q 245 238 294 216 q 222 216 229 224 q 210 197 215 209 q 205 170 205 186 q 232 118 205 136 q 322 100 259 100 l 461 100 q 635 58 579 100 q 690 -72 690 15 q 649 -191 690 -137 q 527 -276 607 -245 q 340 -308 448 -308 q 132 -261 203 -308 q 60 -127 60 -215 q 86 -38 60 -81 q 159 35 113 5 l 159 40 m 344 601 q 245 564 281 601 q 209 454 209 526 q 227 371 209 405 q 275 319 245 336 q 344 301 306 301 q 411 318 381 301 q 459 370 441 336 q 477 454 477 404 q 441 564 477 526 q 344 601 406 601 m 564 -92 q 530 -24 564 -47 q 433 0 496 0 l 325 0 q 236 10 274 0 q 189 -44 204 -13 q 174 -109 174 -75 q 222 -190 174 -161 q 360 -218 270 -218 q 468 -201 422 -218 q 539 -155 515 -184 q 564 -92 564 -125 z "},"ğ":{"ha":707,"x_min":60,"x_max":690,"o":"m 159 40 q 98 149 98 77 q 172 267 98 216 l 172 272 q 109 349 134 303 q 83 454 83 395 q 118 585 83 530 q 211 667 152 639 q 344 694 270 694 q 441 677 397 694 l 679 677 l 679 581 l 545 581 q 582 524 568 558 q 596 450 596 490 q 564 322 596 375 q 475 242 532 269 q 344 216 418 216 q 245 238 294 216 q 222 216 229 224 q 210 197 215 209 q 205 170 205 186 q 232 118 205 136 q 322 100 259 100 l 461 100 q 635 58 579 100 q 690 -72 690 15 q 649 -191 690 -137 q 527 -276 607 -245 q 340 -308 448 -308 q 132 -261 203 -308 q 60 -127 60 -215 q 86 -38 60 -81 q 159 35 113 5 l 159 40 m 344 601 q 245 564 281 601 q 209 454 209 526 q 227 371 209 405 q 275 319 245 336 q 344 301 306 301 q 411 318 381 301 q 459 370 441 336 q 477 454 477 404 q 441 564 477 526 q 344 601 406 601 m 564 -92 q 530 -24 564 -47 q 433 0 496 0 l 325 0 q 236 10 274 0 q 189 -44 204 -13 q 174 -109 174 -75 q 222 -190 174 -161 q 360 -218 270 -218 q 468 -201 422 -218 q 539 -155 515 -184 q 564 -92 564 -125 m 245 978 q 276 906 251 935 q 345 877 301 877 q 414 906 389 877 q 445 978 439 935 l 524 978 q 501 891 521 932 q 441 825 481 850 q 345 799 402 799 q 248 825 288 799 q 189 891 209 850 q 166 978 169 932 l 245 978 z "},"ǧ":{"ha":707,"x_min":60,"x_max":690,"o":"m 159 40 q 98 149 98 77 q 172 267 98 216 l 172 272 q 109 349 134 303 q 83 454 83 395 q 118 585 83 530 q 211 667 152 639 q 344 694 270 694 q 441 677 397 694 l 679 677 l 679 581 l 545 581 q 582 524 568 558 q 596 450 596 490 q 564 322 596 375 q 475 242 532 269 q 344 216 418 216 q 245 238 294 216 q 222 216 229 224 q 210 197 215 209 q 205 170 205 186 q 232 118 205 136 q 322 100 259 100 l 461 100 q 635 58 579 100 q 690 -72 690 15 q 649 -191 690 -137 q 527 -276 607 -245 q 340 -308 448 -308 q 132 -261 203 -308 q 60 -127 60 -215 q 86 -38 60 -81 q 159 35 113 5 l 159 40 m 344 601 q 245 564 281 601 q 209 454 209 526 q 227 371 209 405 q 275 319 245 336 q 344 301 306 301 q 411 318 381 301 q 459 370 441 336 q 477 454 477 404 q 441 564 477 526 q 344 601 406 601 m 564 -92 q 530 -24 564 -47 q 433 0 496 0 l 325 0 q 236 10 274 0 q 189 -44 204 -13 q 174 -109 174 -75 q 222 -190 174 -161 q 360 -218 270 -218 q 468 -201 422 -218 q 539 -155 515 -184 q 564 -92 564 -125 m 252 994 l 342 870 l 347 870 l 436 994 l 530 994 l 398 796 l 290 796 l 159 994 l 252 994 z "},"ĝ":{"ha":707,"x_min":60,"x_max":690,"o":"m 159 40 q 98 149 98 77 q 172 267 98 216 l 172 272 q 109 349 134 303 q 83 454 83 395 q 118 585 83 530 q 211 667 152 639 q 344 694 270 694 q 441 677 397 694 l 679 677 l 679 581 l 545 581 q 582 524 568 558 q 596 450 596 490 q 564 322 596 375 q 475 242 532 269 q 344 216 418 216 q 245 238 294 216 q 222 216 229 224 q 210 197 215 209 q 205 170 205 186 q 232 118 205 136 q 322 100 259 100 l 461 100 q 635 58 579 100 q 690 -72 690 15 q 649 -191 690 -137 q 527 -276 607 -245 q 340 -308 448 -308 q 132 -261 203 -308 q 60 -127 60 -215 q 86 -38 60 -81 q 159 35 113 5 l 159 40 m 344 601 q 245 564 281 601 q 209 454 209 526 q 227 371 209 405 q 275 319 245 336 q 344 301 306 301 q 411 318 381 301 q 459 370 441 336 q 477 454 477 404 q 441 564 477 526 q 344 601 406 601 m 564 -92 q 530 -24 564 -47 q 433 0 496 0 l 325 0 q 236 10 274 0 q 189 -44 204 -13 q 174 -109 174 -75 q 222 -190 174 -161 q 360 -218 270 -218 q 468 -201 422 -218 q 539 -155 515 -184 q 564 -92 564 -125 m 398 994 l 530 796 l 436 796 l 347 920 l 342 920 l 252 796 l 159 796 l 290 994 l 398 994 z "},"ġ":{"ha":707,"x_min":60,"x_max":690,"o":"m 159 40 q 98 149 98 77 q 172 267 98 216 l 172 272 q 109 349 134 303 q 83 454 83 395 q 118 585 83 530 q 211 667 152 639 q 344 694 270 694 q 441 677 397 694 l 679 677 l 679 581 l 545 581 q 582 524 568 558 q 596 450 596 490 q 564 322 596 375 q 475 242 532 269 q 344 216 418 216 q 245 238 294 216 q 222 216 229 224 q 210 197 215 209 q 205 170 205 186 q 232 118 205 136 q 322 100 259 100 l 461 100 q 635 58 579 100 q 690 -72 690 15 q 649 -191 690 -137 q 527 -276 607 -245 q 340 -308 448 -308 q 132 -261 203 -308 q 60 -127 60 -215 q 86 -38 60 -81 q 159 35 113 5 l 159 40 m 344 601 q 245 564 281 601 q 209 454 209 526 q 227 371 209 405 q 275 319 245 336 q 344 301 306 301 q 411 318 381 301 q 459 370 441 336 q 477 454 477 404 q 441 564 477 526 q 344 601 406 601 m 564 -92 q 530 -24 564 -47 q 433 0 496 0 l 325 0 q 236 10 274 0 q 189 -44 204 -13 q 174 -109 174 -75 q 222 -190 174 -161 q 360 -218 270 -218 q 468 -201 422 -218 q 539 -155 515 -184 q 564 -92 564 -125 m 345 971 q 404 948 380 971 q 427 890 427 926 q 404 832 427 854 q 345 810 380 810 q 286 832 309 810 q 262 890 262 854 q 286 948 262 926 q 345 971 309 971 z "},"h":{"ha":762,"x_min":110,"x_max":665,"o":"m 240 986 l 240 722 l 235 586 q 341 666 289 637 q 458 694 393 694 q 615 628 566 694 q 665 430 665 562 l 665 0 l 534 0 l 534 412 q 522 511 534 474 q 484 565 510 548 q 415 582 458 582 q 330 559 368 582 q 240 485 292 536 l 240 0 l 110 0 l 110 986 l 240 986 z "},"ħ":{"ha":762,"x_min":8,"x_max":665,"o":"m 458 667 q 665 400 665 667 l 665 0 l 534 0 l 534 382 q 506 514 534 473 q 414 554 477 554 q 330 531 368 554 q 240 457 292 509 l 240 0 l 110 0 l 110 789 l 8 789 l 8 854 l 110 862 l 110 986 l 240 986 l 240 862 l 490 862 l 490 789 l 240 789 l 240 694 l 235 558 q 341 638 289 610 q 458 667 393 667 z "},"ĥ":{"ha":762,"x_min":-24,"x_max":665,"o":"m 240 986 l 240 722 l 235 586 q 341 666 289 637 q 458 694 393 694 q 615 628 566 694 q 665 430 665 562 l 665 0 l 534 0 l 534 412 q 522 511 534 474 q 484 565 510 548 q 415 582 458 582 q 330 559 368 582 q 240 485 292 536 l 240 0 l 110 0 l 110 986 l 240 986 m 110 1225 l 237 1225 l 371 1069 l 266 1069 l 176 1161 l 171 1161 l 81 1069 l -24 1069 l 110 1225 z "},"i":{"ha":349,"x_min":90,"x_max":262,"o":"m 176 968 q 238 947 213 968 q 262 890 262 925 q 238 832 262 854 q 176 810 213 810 q 114 832 138 810 q 90 890 90 854 q 114 947 90 925 q 176 968 138 968 m 240 677 l 240 0 l 110 0 l 110 677 l 240 677 z "},"ı":{"ha":349,"x_min":110,"x_max":240,"o":"m 240 677 l 240 0 l 110 0 l 110 677 l 240 677 z "},"í":{"ha":349,"x_min":110,"x_max":384,"o":"m 240 677 l 240 0 l 110 0 l 110 677 l 240 677 m 125 796 l 250 994 l 384 994 l 224 796 l 125 796 z "},"î":{"ha":349,"x_min":-10,"x_max":360,"o":"m 240 677 l 240 0 l 110 0 l 110 677 l 240 677 m 229 994 l 360 796 l 267 796 l 178 920 l 172 920 l 83 796 l -10 796 l 121 994 l 229 994 z "},"ï":{"ha":349,"x_min":-20,"x_max":371,"o":"m 240 677 l 240 0 l 110 0 l 110 677 l 240 677 m 52 959 q 105 938 84 959 q 125 886 125 918 q 105 833 125 854 q 52 812 84 812 q 0 833 21 812 q -20 886 -20 854 q 0 938 -20 918 q 52 959 21 959 m 298 959 q 351 938 331 959 q 371 886 371 918 q 351 833 371 854 q 298 812 331 812 q 247 833 267 812 q 226 886 226 854 q 247 938 226 918 q 298 959 267 959 z "},"ì":{"ha":349,"x_min":-31,"x_max":240,"o":"m 240 677 l 240 0 l 110 0 l 110 677 l 240 677 m 103 994 l 228 796 l 129 796 l -31 994 l 103 994 z "},"ĳ":{"ha":701,"x_min":90,"x_max":612,"o":"m 176 968 q 238 947 213 968 q 262 890 262 925 q 238 832 262 854 q 176 810 213 810 q 114 832 138 810 q 90 890 90 854 q 114 947 90 925 q 176 968 138 968 m 240 677 l 240 0 l 110 0 l 110 677 l 240 677 m 527 968 q 587 946 563 968 q 612 890 612 924 q 587 832 612 854 q 527 810 563 810 q 465 832 490 810 q 440 890 440 854 q 465 947 440 925 q 527 968 489 968 m 591 677 l 591 -65 q 545 -236 591 -176 q 395 -296 498 -296 q 291 -278 336 -296 l 317 -180 q 379 -191 349 -191 q 443 -160 425 -191 q 460 -66 460 -130 l 460 677 l 591 677 z "},"ī":{"ha":349,"x_min":1,"x_max":349,"o":"m 240 677 l 240 0 l 110 0 l 110 677 l 240 677 m 349 921 l 349 833 l 1 833 l 1 921 l 349 921 z "},"į":{"ha":349,"x_min":54,"x_max":298,"o":"m 175 968 q 235 946 211 968 q 260 890 260 924 q 235 832 260 854 q 175 810 211 810 q 113 832 138 810 q 88 890 88 854 q 113 947 88 925 q 175 968 137 968 m 240 677 l 240 0 q 172 -65 196 -28 q 148 -140 148 -102 q 166 -186 148 -170 q 212 -203 185 -203 q 238 -198 227 -203 q 267 -185 250 -194 l 298 -248 q 244 -276 277 -264 q 184 -287 211 -287 q 90 -256 127 -287 q 54 -168 54 -224 q 78 -78 54 -117 q 142 0 103 -39 l 110 0 l 110 677 l 240 677 z "},"ĩ":{"ha":349,"x_min":-25,"x_max":375,"o":"m 240 677 l 240 0 l 110 0 l 110 677 l 240 677 m 193 917 q 228 895 215 902 q 254 888 241 888 q 287 905 275 888 q 304 958 298 922 l 375 958 q 340 845 370 887 q 259 804 310 804 q 211 814 233 804 q 160 844 189 824 q 125 865 140 858 q 96 873 110 873 q 64 856 76 873 q 48 804 53 839 l -25 804 q 11 916 -20 873 q 92 958 41 958 q 141 947 119 958 q 193 917 163 937 z "},"j":{"ha":351,"x_min":-58,"x_max":262,"o":"m 178 968 q 238 946 214 968 q 262 890 262 924 q 238 832 262 854 q 178 810 214 810 q 116 832 140 810 q 91 890 91 854 q 115 947 91 925 q 178 968 140 968 m 241 677 l 241 -65 q 195 -236 241 -176 q 45 -296 149 -296 q -58 -278 -13 -296 l -33 -180 q 30 -191 -1 -191 q 93 -160 75 -191 q 111 -66 111 -130 l 111 677 l 241 677 z "},"ȷ":{"ha":351,"x_min":-58,"x_max":241,"o":"m 241 -62 q 45 -296 241 -296 q -58 -278 -13 -296 l -33 -180 q 30 -191 -1 -191 q 93 -159 75 -191 q 111 -63 111 -127 l 111 677 l 241 677 l 241 -62 z "},"ĵ":{"ha":351,"x_min":-58,"x_max":363,"o":"m 241 -62 q 45 -296 241 -296 q -58 -278 -13 -296 l -33 -180 q 30 -191 -1 -191 q 93 -159 75 -191 q 111 -63 111 -127 l 111 677 l 241 677 l 241 -62 m 231 994 l 363 796 l 269 796 l 180 920 l 175 920 l 85 796 l -7 796 l 123 994 l 231 994 z "},"k":{"ha":701,"x_min":110,"x_max":689,"o":"m 238 986 l 238 337 l 242 337 l 517 677 l 661 677 l 431 404 l 689 0 l 547 0 l 357 315 l 238 176 l 238 0 l 110 0 l 110 986 l 238 986 z "},"ĸ":{"ha":701,"x_min":110,"x_max":689,"o":"m 240 677 l 240 334 l 244 334 l 517 677 l 661 677 l 435 404 l 689 0 l 547 0 l 357 310 l 240 172 l 240 0 l 110 0 l 110 677 l 240 677 z "},"l":{"ha":362,"x_min":110,"x_max":315,"o":"m 240 986 l 240 142 q 249 103 240 115 q 273 91 258 91 q 298 94 286 91 l 315 -5 q 243 -17 286 -17 q 141 25 173 -17 q 110 151 110 68 l 110 986 l 240 986 z "},"ĺ":{"ha":362,"x_min":91,"x_max":357,"o":"m 91 1053 l 211 1209 l 357 1209 l 199 1053 l 91 1053 m 240 986 l 240 142 q 249 103 240 115 q 273 91 258 91 q 298 94 286 91 l 315 -5 q 243 -17 286 -17 q 141 25 173 -17 q 110 151 110 68 l 110 986 l 240 986 z "},"ľ":{"ha":382,"x_min":110,"x_max":449,"o":"m 359 1058 l 449 1058 l 448 976 l 426 761 l 364 761 l 359 1058 m 240 986 l 240 142 q 249 103 240 115 q 273 91 258 91 q 298 94 286 91 l 315 -5 q 243 -17 286 -17 q 141 25 173 -17 q 110 151 110 68 l 110 986 l 240 986 z "},"ŀ":{"ha":362,"x_min":110,"x_max":525,"o":"m 240 986 l 240 142 q 249 103 240 115 q 273 91 258 91 q 298 94 286 91 l 315 -5 q 243 -17 286 -17 q 141 25 173 -17 q 110 151 110 68 l 110 986 l 240 986 m 525 445 q 513 397 525 418 q 480 363 500 376 q 435 351 459 351 q 389 363 410 351 q 356 397 368 376 q 345 445 345 418 q 371 514 345 487 q 435 541 397 541 q 480 529 459 541 q 513 495 500 517 q 525 445 525 473 z "},"ł":{"ha":374,"x_min":30,"x_max":344,"o":"m 248 142 q 258 103 248 116 q 281 91 267 91 q 306 94 293 91 l 323 -5 q 250 -17 290 -17 q 149 25 180 -17 q 117 151 117 68 l 117 446 l 30 391 l 30 500 l 117 555 l 117 986 l 248 986 l 248 623 l 344 683 l 344 574 l 248 513 l 248 142 z "},"m":{"ha":1158,"x_min":110,"x_max":1057,"o":"m 217 677 l 228 582 l 233 582 q 443 694 336 694 q 563 664 520 694 q 628 570 606 633 q 738 663 686 631 q 850 694 791 694 q 1007 629 958 694 q 1057 431 1057 563 l 1057 0 l 926 0 l 926 413 q 915 511 926 475 q 878 565 903 548 q 809 582 852 582 q 732 559 772 582 q 649 488 693 536 l 649 0 l 518 0 l 518 414 q 507 512 518 476 q 469 565 495 549 q 400 582 444 582 q 240 485 329 582 l 240 0 l 110 0 l 110 677 l 217 677 z "},"n":{"ha":766,"x_min":110,"x_max":665,"o":"m 217 677 l 228 582 l 233 582 q 339 665 286 635 q 458 694 393 694 q 616 629 567 694 q 665 431 665 563 l 665 0 l 534 0 l 534 413 q 523 512 534 475 q 485 565 511 548 q 414 582 459 582 q 330 559 368 582 q 240 485 292 536 l 240 0 l 110 0 l 110 677 l 217 677 z "},"ń":{"ha":766,"x_min":110,"x_max":665,"o":"m 217 677 l 228 582 l 233 582 q 339 665 286 635 q 458 694 393 694 q 616 629 567 694 q 665 431 665 563 l 665 0 l 534 0 l 534 413 q 523 512 534 475 q 485 565 511 548 q 414 582 459 582 q 330 559 368 582 q 240 485 292 536 l 240 0 l 110 0 l 110 677 l 217 677 m 340 796 l 465 994 l 599 994 l 439 796 l 340 796 z "},"ŉ":{"ha":766,"x_min":-19,"x_max":665,"o":"m 217 677 l 228 582 l 233 582 q 339 665 286 635 q 458 694 393 694 q 616 629 567 694 q 665 431 665 563 l 665 0 l 534 0 l 534 413 q 523 512 534 475 q 485 565 511 548 q 414 582 459 582 q 330 559 368 582 q 240 485 292 536 l 240 0 l 110 0 l 110 677 l 217 677 m 91 958 q 78 957 87 957 q 22 978 45 957 q -1 1034 -1 998 q 21 1094 -1 1072 q 79 1116 43 1116 q 156 1080 126 1116 q 186 981 186 1044 q 142 819 186 892 q 19 700 97 745 l -19 758 q 63 844 35 791 q 91 958 91 897 z "},"ň":{"ha":766,"x_min":110,"x_max":665,"o":"m 217 677 l 228 582 l 233 582 q 339 665 286 635 q 458 694 393 694 q 616 629 567 694 q 665 431 665 563 l 665 0 l 534 0 l 534 413 q 523 512 534 475 q 485 565 511 548 q 414 582 459 582 q 330 559 368 582 q 240 485 292 536 l 240 0 l 110 0 l 110 677 l 217 677 m 298 994 l 387 870 l 393 870 l 481 994 l 575 994 l 444 796 l 336 796 l 205 994 l 298 994 z "},"ñ":{"ha":766,"x_min":110,"x_max":665,"o":"m 217 677 l 228 582 l 233 582 q 339 665 286 635 q 458 694 393 694 q 616 629 567 694 q 665 431 665 563 l 665 0 l 534 0 l 534 413 q 523 512 534 475 q 485 565 511 548 q 414 582 459 582 q 330 559 368 582 q 240 485 292 536 l 240 0 l 110 0 l 110 677 l 217 677 m 408 917 q 443 895 430 902 q 469 888 456 888 q 502 905 490 888 q 519 958 513 922 l 590 958 q 555 845 585 887 q 474 804 525 804 q 426 814 448 804 q 375 844 404 824 q 340 865 355 858 q 311 873 325 873 q 279 856 291 873 q 263 804 268 839 l 190 804 q 226 916 195 873 q 307 958 256 958 q 356 947 334 958 q 408 917 378 937 z "},"o":{"ha":756,"x_min":62,"x_max":695,"o":"m 695 339 q 652 148 695 229 q 537 25 610 67 q 378 -17 465 -17 q 219 25 291 -17 q 104 148 146 67 q 62 339 62 229 q 104 531 62 450 q 218 653 146 611 q 378 694 290 694 q 537 653 465 694 q 652 531 610 611 q 695 339 695 450 m 560 339 q 538 470 560 414 q 475 557 516 526 q 378 587 434 587 q 281 557 322 587 q 218 470 240 526 q 197 339 197 414 q 218 208 197 264 q 281 121 240 152 q 378 91 322 91 q 475 121 434 91 q 538 208 516 152 q 560 339 560 264 z "},"ó":{"ha":756,"x_min":62,"x_max":695,"o":"m 695 339 q 652 148 695 229 q 537 25 610 67 q 378 -17 465 -17 q 219 25 291 -17 q 104 148 146 67 q 62 339 62 229 q 104 531 62 450 q 218 653 146 611 q 378 694 290 694 q 537 653 465 694 q 652 531 610 611 q 695 339 695 450 m 560 339 q 538 470 560 414 q 475 557 516 526 q 378 587 434 587 q 281 557 322 587 q 218 470 240 526 q 197 339 197 414 q 218 208 197 264 q 281 121 240 152 q 378 91 322 91 q 475 121 434 91 q 538 208 516 152 q 560 339 560 264 m 329 796 l 454 994 l 587 994 l 428 796 l 329 796 z "},"ô":{"ha":756,"x_min":62,"x_max":695,"o":"m 695 339 q 652 148 695 229 q 537 25 610 67 q 378 -17 465 -17 q 219 25 291 -17 q 104 148 146 67 q 62 339 62 229 q 104 531 62 450 q 218 653 146 611 q 378 694 290 694 q 537 653 465 694 q 652 531 610 611 q 695 339 695 450 m 560 339 q 538 470 560 414 q 475 557 516 526 q 378 587 434 587 q 281 557 322 587 q 218 470 240 526 q 197 339 197 414 q 218 208 197 264 q 281 121 240 152 q 378 91 322 91 q 475 121 434 91 q 538 208 516 152 q 560 339 560 264 m 432 994 l 564 796 l 470 796 l 381 920 l 376 920 l 286 796 l 193 796 l 324 994 l 432 994 z "},"ö":{"ha":756,"x_min":62,"x_max":695,"o":"m 695 339 q 652 148 695 229 q 537 25 610 67 q 378 -17 465 -17 q 219 25 291 -17 q 104 148 146 67 q 62 339 62 229 q 104 531 62 450 q 218 653 146 611 q 378 694 290 694 q 537 653 465 694 q 652 531 610 611 q 695 339 695 450 m 560 339 q 538 470 560 414 q 475 557 516 526 q 378 587 434 587 q 281 557 322 587 q 218 470 240 526 q 197 339 197 414 q 218 208 197 264 q 281 121 240 152 q 378 91 322 91 q 475 121 434 91 q 538 208 516 152 q 560 339 560 264 m 256 959 q 308 938 288 959 q 329 886 329 918 q 308 833 329 854 q 256 812 288 812 q 204 833 224 812 q 183 886 183 854 q 204 938 183 918 q 256 959 224 959 m 502 959 q 554 938 534 959 q 574 886 574 918 q 554 833 574 854 q 502 812 534 812 q 450 833 471 812 q 429 886 429 854 q 450 938 429 918 q 502 959 471 959 z "},"ò":{"ha":756,"x_min":62,"x_max":695,"o":"m 695 339 q 652 148 695 229 q 537 25 610 67 q 378 -17 465 -17 q 219 25 291 -17 q 104 148 146 67 q 62 339 62 229 q 104 531 62 450 q 218 653 146 611 q 378 694 290 694 q 537 653 465 694 q 652 531 610 611 q 695 339 695 450 m 560 339 q 538 470 560 414 q 475 557 516 526 q 378 587 434 587 q 281 557 322 587 q 218 470 240 526 q 197 339 197 414 q 218 208 197 264 q 281 121 240 152 q 378 91 322 91 q 475 121 434 91 q 538 208 516 152 q 560 339 560 264 m 307 994 l 431 796 l 332 796 l 173 994 l 307 994 z "},"ơ":{"ha":756,"x_min":61,"x_max":713,"o":"m 713 764 q 677 669 713 705 q 583 616 642 633 q 665 498 635 568 q 695 338 695 427 q 652 149 695 229 q 536 26 608 68 q 378 -17 463 -17 q 221 26 294 -17 q 104 149 148 68 q 61 338 61 229 q 104 528 61 447 q 220 652 148 609 q 378 694 293 694 q 509 665 449 694 q 582 695 557 673 q 607 754 607 717 q 586 814 607 783 l 680 858 q 713 764 713 814 m 378 587 q 283 556 324 587 q 219 468 241 525 q 196 338 196 412 q 219 209 196 264 q 283 122 241 153 q 378 91 324 91 q 474 122 433 91 q 538 209 515 153 q 560 338 560 264 q 538 468 560 412 q 474 556 515 525 q 378 587 433 587 z "},"ő":{"ha":756,"x_min":62,"x_max":695,"o":"m 695 339 q 652 148 695 229 q 537 25 610 67 q 378 -17 465 -17 q 219 25 291 -17 q 104 148 146 67 q 62 339 62 229 q 104 531 62 450 q 218 653 146 611 q 378 694 290 694 q 537 653 465 694 q 652 531 610 611 q 695 339 695 450 m 560 339 q 538 470 560 414 q 475 557 516 526 q 378 587 434 587 q 281 557 322 587 q 218 470 240 526 q 197 339 197 414 q 218 208 197 264 q 281 121 240 152 q 378 91 322 91 q 475 121 434 91 q 538 208 516 152 q 560 339 560 264 m 458 994 l 334 793 l 248 793 l 347 994 l 458 994 m 668 994 l 544 793 l 458 793 l 557 994 l 668 994 z "},"ō":{"ha":756,"x_min":62,"x_max":695,"o":"m 695 339 q 652 148 695 229 q 537 25 610 67 q 378 -17 465 -17 q 219 25 291 -17 q 104 148 146 67 q 62 339 62 229 q 104 531 62 450 q 218 653 146 611 q 378 694 290 694 q 537 653 465 694 q 652 531 610 611 q 695 339 695 450 m 560 339 q 538 470 560 414 q 475 557 516 526 q 378 587 434 587 q 281 557 322 587 q 218 470 240 526 q 197 339 197 414 q 218 208 197 264 q 281 121 240 152 q 378 91 322 91 q 475 121 434 91 q 538 208 516 152 q 560 339 560 264 m 553 921 l 553 833 l 205 833 l 205 921 l 553 921 z "},"ø":{"ha":756,"x_min":61,"x_max":695,"o":"m 695 338 q 652 149 695 229 q 536 26 608 68 q 378 -17 463 -17 q 276 0 326 -17 q 186 50 227 17 l 120 -33 l 64 11 l 137 100 q 81 206 101 146 q 61 338 61 266 q 104 528 61 447 q 220 652 148 609 q 378 694 293 694 q 480 677 431 694 q 570 628 529 661 l 637 710 l 692 667 l 619 578 q 675 471 655 531 q 695 338 695 410 m 378 591 q 281 559 324 591 q 214 472 238 528 q 189 345 189 416 q 217 199 189 258 l 498 541 q 378 591 450 591 m 378 87 q 476 118 433 87 q 543 205 519 149 q 567 332 567 260 q 538 479 567 420 l 258 136 q 378 87 307 87 z "},"õ":{"ha":756,"x_min":62,"x_max":695,"o":"m 695 339 q 652 148 695 229 q 537 25 610 67 q 378 -17 465 -17 q 219 25 291 -17 q 104 148 146 67 q 62 339 62 229 q 104 531 62 450 q 218 653 146 611 q 378 694 290 694 q 537 653 465 694 q 652 531 610 611 q 695 339 695 450 m 560 339 q 538 470 560 414 q 475 557 516 526 q 378 587 434 587 q 281 557 322 587 q 218 470 240 526 q 197 339 197 414 q 218 208 197 264 q 281 121 240 152 q 378 91 322 91 q 475 121 434 91 q 538 208 516 152 q 560 339 560 264 m 396 917 q 432 895 418 902 q 458 888 445 888 q 490 905 478 888 q 507 958 502 922 l 578 958 q 543 845 573 887 q 463 804 513 804 q 415 814 437 804 q 363 844 393 824 q 328 865 343 858 q 300 873 313 873 q 268 856 279 873 q 252 804 256 839 l 178 804 q 214 916 184 873 q 296 958 245 958 q 344 947 322 958 q 396 917 366 937 z "},"œ":{"ha":1161,"x_min":61,"x_max":1109,"o":"m 611 534 q 712 652 650 610 q 845 694 774 694 q 988 654 928 694 q 1078 542 1047 614 q 1109 373 1109 470 q 1103 305 1109 331 l 669 305 q 700 191 672 240 q 773 116 728 142 q 872 89 818 89 q 955 103 916 89 q 1036 143 994 117 l 1083 54 q 857 -17 972 -17 q 716 25 781 -17 q 612 142 652 68 q 368 -17 531 -17 q 214 25 283 -17 q 102 149 144 68 q 61 338 61 229 q 103 528 61 448 q 216 652 145 609 q 370 694 286 694 q 511 652 448 694 q 611 534 575 610 m 842 592 q 760 568 798 592 q 699 497 723 543 q 669 390 675 452 l 995 390 q 955 539 995 486 q 842 592 915 592 m 547 338 q 525 468 547 411 q 463 556 503 524 q 370 587 422 587 q 279 556 319 587 q 217 468 239 524 q 195 338 195 411 q 217 209 195 264 q 279 122 239 153 q 370 91 319 91 q 463 122 422 91 q 525 209 503 153 q 547 338 547 264 z "},"p":{"ha":776,"x_min":110,"x_max":711,"o":"m 240 -279 l 110 -279 l 110 677 l 217 677 l 228 602 l 233 602 q 444 694 342 694 q 590 653 530 694 q 681 533 650 611 q 711 348 711 456 q 671 152 711 234 q 566 26 632 69 q 419 -17 499 -17 q 328 3 372 -17 q 237 60 283 22 l 240 -56 l 240 -279 m 576 347 q 536 525 576 463 q 408 586 496 586 q 328 565 368 586 q 240 498 288 543 l 240 158 q 319 108 280 124 q 393 92 358 92 q 488 122 447 92 q 553 209 530 152 q 576 347 576 267 z "},"þ":{"ha":776,"x_min":110,"x_max":711,"o":"m 110 -279 l 110 986 l 240 986 l 240 722 l 238 610 q 437 694 343 694 q 586 652 525 694 q 679 532 648 610 q 711 349 711 454 q 671 154 711 237 q 564 27 631 71 q 420 -17 498 -17 q 328 2 372 -17 q 238 56 283 20 l 240 -56 l 240 -279 l 110 -279 m 576 348 q 409 586 576 586 q 329 564 370 586 q 240 498 288 543 l 240 158 q 320 108 280 124 q 395 92 360 92 q 488 123 447 92 q 552 211 529 153 q 576 348 576 269 z "},"q":{"ha":769,"x_min":63,"x_max":666,"o":"m 546 613 l 549 613 l 562 677 l 666 677 l 666 -279 l 534 -279 l 534 -45 l 541 73 q 344 -17 445 -17 q 193 23 256 -17 q 97 143 130 64 q 63 337 63 222 q 103 527 63 446 q 210 651 142 608 q 356 694 277 694 q 456 675 413 694 q 546 613 498 656 m 534 180 l 534 519 q 459 570 495 555 q 381 586 422 586 q 287 556 329 586 q 222 469 245 526 q 198 338 198 413 q 243 155 198 218 q 375 92 288 92 q 457 113 420 92 q 534 180 495 134 z "},"r":{"ha":495,"x_min":110,"x_max":498,"o":"m 217 677 l 228 555 l 233 555 q 318 657 267 621 q 425 694 368 694 q 465 691 448 694 q 498 680 481 688 l 474 566 q 441 575 455 572 q 408 577 427 577 q 316 541 361 577 q 240 427 271 505 l 240 0 l 110 0 l 110 677 l 217 677 z "},"ŕ":{"ha":495,"x_min":110,"x_max":499,"o":"m 217 677 l 228 555 l 233 555 q 318 657 267 621 q 425 694 368 694 q 465 691 448 694 q 498 680 481 688 l 474 566 q 441 575 455 572 q 408 577 427 577 q 316 541 361 577 q 240 427 271 505 l 240 0 l 110 0 l 110 677 l 217 677 m 241 796 l 366 994 l 499 994 l 340 796 l 241 796 z "},"ř":{"ha":495,"x_min":105,"x_max":498,"o":"m 217 677 l 228 555 l 233 555 q 318 657 267 621 q 425 694 368 694 q 465 691 448 694 q 498 680 481 688 l 474 566 q 441 575 455 572 q 408 577 427 577 q 316 541 361 577 q 240 427 271 505 l 240 0 l 110 0 l 110 677 l 217 677 m 198 994 l 288 870 l 293 870 l 382 994 l 475 994 l 344 796 l 236 796 l 105 994 l 198 994 z "},"s":{"ha":588,"x_min":40,"x_max":545,"o":"m 295 83 q 388 110 356 83 q 420 178 420 136 q 399 231 420 209 q 348 268 378 253 q 268 301 317 283 q 125 378 179 334 q 71 500 71 423 q 99 600 71 556 q 182 669 128 644 q 309 694 236 694 q 426 673 371 694 q 524 618 481 652 l 463 536 q 389 579 425 565 q 311 594 353 594 q 224 571 253 594 q 195 510 195 549 q 215 461 195 482 q 264 426 235 441 q 342 393 294 412 q 446 348 404 370 q 516 285 488 325 q 545 186 545 245 q 515 83 545 129 q 428 10 486 37 q 291 -17 371 -17 q 157 9 222 -17 q 40 77 92 35 l 103 163 q 197 103 153 123 q 295 83 241 83 z "},"ś":{"ha":588,"x_min":40,"x_max":545,"o":"m 295 83 q 388 110 356 83 q 420 178 420 136 q 399 231 420 209 q 348 268 378 253 q 268 301 317 283 q 125 378 179 334 q 71 500 71 423 q 99 600 71 556 q 182 669 128 644 q 309 694 236 694 q 426 673 371 694 q 524 618 481 652 l 463 536 q 389 579 425 565 q 311 594 353 594 q 224 571 253 594 q 195 510 195 549 q 215 461 195 482 q 264 426 235 441 q 342 393 294 412 q 446 348 404 370 q 516 285 488 325 q 545 186 545 245 q 515 83 545 129 q 428 10 486 37 q 291 -17 371 -17 q 157 9 222 -17 q 40 77 92 35 l 103 163 q 197 103 153 123 q 295 83 241 83 m 257 796 l 382 994 l 515 994 l 356 796 l 257 796 z "},"š":{"ha":588,"x_min":40,"x_max":545,"o":"m 295 83 q 388 110 356 83 q 420 178 420 136 q 399 231 420 209 q 348 268 378 253 q 268 301 317 283 q 125 378 179 334 q 71 500 71 423 q 99 600 71 556 q 182 669 128 644 q 309 694 236 694 q 426 673 371 694 q 524 618 481 652 l 463 536 q 389 579 425 565 q 311 594 353 594 q 224 571 253 594 q 195 510 195 549 q 215 461 195 482 q 264 426 235 441 q 342 393 294 412 q 446 348 404 370 q 516 285 488 325 q 545 186 545 245 q 515 83 545 129 q 428 10 486 37 q 291 -17 371 -17 q 157 9 222 -17 q 40 77 92 35 l 103 163 q 197 103 153 123 q 295 83 241 83 m 214 994 l 304 870 l 309 870 l 398 994 l 492 994 l 360 796 l 252 796 l 121 994 l 214 994 z "},"ŝ":{"ha":588,"x_min":40,"x_max":545,"o":"m 295 83 q 388 110 356 83 q 420 178 420 136 q 399 231 420 209 q 348 268 378 253 q 268 301 317 283 q 125 378 179 334 q 71 500 71 423 q 99 600 71 556 q 182 669 128 644 q 309 694 236 694 q 426 673 371 694 q 524 618 481 652 l 463 536 q 389 579 425 565 q 311 594 353 594 q 224 571 253 594 q 195 510 195 549 q 215 461 195 482 q 264 426 235 441 q 342 393 294 412 q 446 348 404 370 q 516 285 488 325 q 545 186 545 245 q 515 83 545 129 q 428 10 486 37 q 291 -17 371 -17 q 157 9 222 -17 q 40 77 92 35 l 103 163 q 197 103 153 123 q 295 83 241 83 m 360 994 l 492 796 l 398 796 l 309 920 l 304 920 l 214 796 l 121 796 l 252 994 l 360 994 z "},"ß":{"ha":814,"x_min":110,"x_max":774,"o":"m 392 1000 q 520 972 467 1000 q 602 897 574 944 q 629 792 629 849 q 620 727 629 757 q 595 676 610 698 q 559 625 581 654 q 519 569 532 593 q 507 518 507 545 q 520 473 507 492 q 555 440 534 454 q 613 407 576 426 q 696 356 665 379 q 751 293 728 332 q 774 194 774 253 q 747 87 774 135 q 668 11 720 39 q 547 -17 616 -17 q 443 0 490 -17 q 348 51 395 18 l 398 142 q 470 98 435 112 q 543 83 505 83 q 602 97 577 83 q 640 135 627 111 q 652 186 652 159 q 636 244 652 220 q 595 284 620 268 q 530 323 571 301 q 453 369 481 349 q 404 422 425 389 q 384 502 384 455 q 392 555 384 531 q 412 599 400 580 q 444 646 424 618 q 487 713 473 685 q 501 779 501 741 q 472 862 501 830 q 391 895 444 895 q 279 841 318 895 q 239 687 239 788 l 239 0 l 110 0 l 110 708 q 143 862 110 796 q 239 964 176 928 q 392 1000 302 1000 z "},"ə":{"ha":694,"x_min":52,"x_max":633,"o":"m 504 378 q 447 535 497 477 q 311 592 396 592 q 222 577 264 592 q 140 536 181 563 l 94 620 q 331 694 203 694 q 486 652 418 694 q 594 529 555 609 q 633 340 633 448 q 593 151 633 232 q 485 26 553 70 q 333 -17 416 -17 q 183 23 246 -17 q 85 137 119 63 q 52 310 52 211 q 57 378 52 344 l 504 378 m 505 292 l 166 292 q 209 139 166 191 q 330 87 252 87 q 450 140 404 87 q 505 292 496 193 z "},"t":{"ha":481,"x_min":31,"x_max":462,"o":"m 31 572 l 31 670 l 137 677 l 153 865 l 262 865 l 262 677 l 441 677 l 441 572 l 262 572 l 262 215 q 286 120 262 152 q 363 89 310 89 q 438 106 393 89 l 462 8 q 332 -17 385 -17 q 178 44 225 -17 q 131 216 131 105 l 131 572 l 31 572 z "},"ť":{"ha":481,"x_min":31,"x_max":462,"o":"m 358 1058 l 448 1058 l 447 976 l 425 761 l 363 761 l 358 1058 m 31 572 l 31 670 l 137 677 l 153 865 l 262 865 l 262 677 l 441 677 l 441 572 l 262 572 l 262 215 q 286 120 262 152 q 363 89 310 89 q 438 106 393 89 l 462 8 q 332 -17 385 -17 q 178 44 225 -17 q 131 216 131 105 l 131 572 l 31 572 z "},"u":{"ha":762,"x_min":100,"x_max":652,"o":"m 232 677 l 232 265 q 243 166 232 203 q 280 113 254 130 q 351 96 307 96 q 438 120 402 96 q 522 203 475 144 l 522 677 l 652 677 l 652 0 l 545 0 l 534 104 l 530 104 q 428 13 478 43 q 309 -17 378 -17 q 150 49 199 -17 q 100 248 100 115 l 100 677 l 232 677 z "},"ú":{"ha":762,"x_min":100,"x_max":652,"o":"m 232 677 l 232 265 q 243 166 232 203 q 280 113 254 130 q 351 96 307 96 q 438 120 402 96 q 522 203 475 144 l 522 677 l 652 677 l 652 0 l 545 0 l 534 104 l 530 104 q 428 13 478 43 q 309 -17 378 -17 q 150 49 199 -17 q 100 248 100 115 l 100 677 l 232 677 m 316 796 l 441 994 l 574 994 l 415 796 l 316 796 z "},"ŭ":{"ha":762,"x_min":100,"x_max":652,"o":"m 232 677 l 232 265 q 243 166 232 203 q 280 113 254 130 q 351 96 307 96 q 438 120 402 96 q 522 203 475 144 l 522 677 l 652 677 l 652 0 l 545 0 l 534 104 l 530 104 q 428 13 478 43 q 309 -17 378 -17 q 150 49 199 -17 q 100 248 100 115 l 100 677 l 232 677 m 266 978 q 297 906 272 935 q 366 877 322 877 q 435 906 410 877 q 466 978 460 935 l 545 978 q 522 891 542 932 q 463 825 502 850 q 366 799 423 799 q 269 825 309 799 q 210 891 230 850 q 187 978 190 932 l 266 978 z "},"û":{"ha":762,"x_min":100,"x_max":652,"o":"m 232 677 l 232 265 q 243 166 232 203 q 280 113 254 130 q 351 96 307 96 q 438 120 402 96 q 522 203 475 144 l 522 677 l 652 677 l 652 0 l 545 0 l 534 104 l 530 104 q 428 13 478 43 q 309 -17 378 -17 q 150 49 199 -17 q 100 248 100 115 l 100 677 l 232 677 m 419 994 l 551 796 l 457 796 l 368 920 l 363 920 l 273 796 l 180 796 l 311 994 l 419 994 z "},"ü":{"ha":762,"x_min":100,"x_max":652,"o":"m 232 677 l 232 265 q 243 166 232 203 q 280 113 254 130 q 351 96 307 96 q 438 120 402 96 q 522 203 475 144 l 522 677 l 652 677 l 652 0 l 545 0 l 534 104 l 530 104 q 428 13 478 43 q 309 -17 378 -17 q 150 49 199 -17 q 100 248 100 115 l 100 677 l 232 677 m 243 959 q 295 938 275 959 q 316 886 316 918 q 295 833 316 854 q 243 812 275 812 q 191 833 212 812 q 170 886 170 854 q 191 938 170 918 q 243 959 212 959 m 489 959 q 542 938 522 959 q 562 886 562 918 q 542 833 562 854 q 489 812 522 812 q 437 833 458 812 q 416 886 416 854 q 437 938 416 918 q 489 959 458 959 z "},"ù":{"ha":762,"x_min":100,"x_max":652,"o":"m 232 677 l 232 265 q 243 166 232 203 q 280 113 254 130 q 351 96 307 96 q 438 120 402 96 q 522 203 475 144 l 522 677 l 652 677 l 652 0 l 545 0 l 534 104 l 530 104 q 428 13 478 43 q 309 -17 378 -17 q 150 49 199 -17 q 100 248 100 115 l 100 677 l 232 677 m 294 994 l 418 796 l 319 796 l 160 994 l 294 994 z "},"ư":{"ha":762,"x_min":100,"x_max":780,"o":"m 780 778 q 744 683 780 719 q 652 631 708 647 l 652 0 l 545 0 l 534 104 l 530 104 q 427 14 479 45 q 309 -17 375 -17 q 151 51 202 -17 q 100 250 100 119 l 100 677 l 232 677 l 232 267 q 260 136 232 176 q 351 96 288 96 q 438 120 399 96 q 522 203 476 145 l 522 677 l 557 677 q 643 704 612 684 q 673 768 673 724 q 654 828 673 795 l 746 871 q 780 778 780 825 z "},"ű":{"ha":762,"x_min":100,"x_max":655,"o":"m 232 677 l 232 265 q 243 166 232 203 q 280 113 254 130 q 351 96 307 96 q 438 120 402 96 q 522 203 475 144 l 522 677 l 652 677 l 652 0 l 545 0 l 534 104 l 530 104 q 428 13 478 43 q 309 -17 378 -17 q 150 49 199 -17 q 100 248 100 115 l 100 677 l 232 677 m 445 994 l 321 793 l 235 793 l 334 994 l 445 994 m 655 994 l 531 793 l 446 793 l 544 994 l 655 994 z "},"ū":{"ha":762,"x_min":100,"x_max":652,"o":"m 232 677 l 232 265 q 243 166 232 203 q 280 113 254 130 q 351 96 307 96 q 438 120 402 96 q 522 203 475 144 l 522 677 l 652 677 l 652 0 l 545 0 l 534 104 l 530 104 q 428 13 478 43 q 309 -17 378 -17 q 150 49 199 -17 q 100 248 100 115 l 100 677 l 232 677 m 540 921 l 540 833 l 192 833 l 192 921 l 540 921 z "},"ģ":{"ha":707,"x_min":60,"x_max":690,"o":"m 159 40 q 98 149 98 77 q 172 267 98 216 l 172 272 q 109 349 134 303 q 83 454 83 395 q 118 585 83 530 q 211 667 152 639 q 344 694 270 694 q 441 677 397 694 l 679 677 l 679 581 l 545 581 q 582 524 568 558 q 596 450 596 490 q 564 322 596 375 q 475 242 532 269 q 344 216 418 216 q 245 238 294 216 q 222 216 229 224 q 210 197 215 209 q 205 170 205 186 q 232 118 205 136 q 322 100 259 100 l 461 100 q 635 58 579 100 q 690 -72 690 15 q 649 -191 690 -137 q 527 -276 607 -245 q 340 -308 448 -308 q 132 -261 203 -308 q 60 -127 60 -215 q 86 -38 60 -81 q 159 35 113 5 l 159 40 m 344 601 q 245 564 281 601 q 209 454 209 526 q 227 371 209 405 q 275 319 245 336 q 344 301 306 301 q 411 318 381 301 q 459 370 441 336 q 477 454 477 404 q 441 564 477 526 q 344 601 406 601 m 564 -92 q 530 -24 564 -47 q 433 0 496 0 l 325 0 q 236 10 274 0 q 189 -44 204 -13 q 174 -109 174 -75 q 222 -190 174 -161 q 360 -218 270 -218 q 468 -201 422 -218 q 539 -155 515 -184 q 564 -92 564 -125 m 317 898 q 431 842 317 848 l 417 769 q 269 801 319 772 q 218 884 218 831 q 262 974 218 942 q 379 1016 307 1005 l 392 958 q 336 935 355 949 q 317 898 317 922 z "},"ĭ":{"ha":349,"x_min":-3,"x_max":354,"o":"m 75 978 q 106 906 81 935 q 176 877 132 877 q 244 906 219 877 q 275 978 269 935 l 354 978 q 331 891 351 932 q 272 825 311 850 q 176 799 233 799 q 79 825 118 799 q 19 891 39 850 q -3 978 -1 932 l 75 978 m 240 677 l 240 0 l 110 0 l 110 677 l 240 677 z "},"ķ":{"ha":701,"x_min":110,"x_max":689,"o":"m 238 986 l 238 337 l 242 337 l 517 677 l 661 677 l 431 404 l 689 0 l 547 0 l 357 315 l 238 176 l 238 0 l 110 0 l 110 986 l 238 986 z "},"ļ":{"ha":362,"x_min":110,"x_max":315,"o":"m 240 986 l 240 142 q 249 103 240 115 q 273 91 258 91 q 298 94 286 91 l 315 -5 q 243 -17 286 -17 q 141 25 173 -17 q 110 151 110 68 l 110 986 l 240 986 z "},"ņ":{"ha":766,"x_min":110,"x_max":665,"o":"m 217 677 l 228 582 l 233 582 q 339 665 286 635 q 458 694 393 694 q 616 629 567 694 q 665 431 665 563 l 665 0 l 534 0 l 534 413 q 523 512 534 475 q 485 565 511 548 q 414 582 459 582 q 330 559 368 582 q 240 485 292 536 l 240 0 l 110 0 l 110 677 l 217 677 m 320 -303 l 309 -243 q 430 -181 430 -228 q 412 -144 430 -157 q 360 -122 394 -130 l 389 -65 q 496 -101 463 -75 q 530 -174 530 -126 q 471 -264 530 -232 q 320 -303 412 -296 z "},"ŏ":{"ha":756,"x_min":62,"x_max":695,"o":"m 279 978 q 311 906 286 935 q 380 877 336 877 q 448 906 423 877 q 479 978 473 935 l 558 978 q 535 891 555 932 q 476 825 515 850 q 380 799 437 799 q 283 825 322 799 q 223 891 243 850 q 201 978 203 932 l 279 978 m 695 339 q 652 148 695 229 q 537 25 610 67 q 378 -17 465 -17 q 219 25 291 -17 q 104 148 146 67 q 62 339 62 229 q 104 531 62 450 q 218 653 146 611 q 378 694 290 694 q 537 653 465 694 q 652 531 610 611 q 695 339 695 450 m 560 339 q 538 470 560 414 q 475 557 516 526 q 378 587 434 587 q 281 557 322 587 q 218 470 240 526 q 197 339 197 414 q 218 208 197 264 q 281 121 240 152 q 378 91 322 91 q 475 121 434 91 q 538 208 516 152 q 560 339 560 264 z "},"ŗ":{"ha":495,"x_min":110,"x_max":498,"o":"m 217 677 l 228 555 l 233 555 q 318 657 267 621 q 425 694 368 694 q 465 691 448 694 q 498 680 481 688 l 474 566 q 441 575 455 572 q 408 577 427 577 q 316 541 361 577 q 240 427 271 505 l 240 0 l 110 0 l 110 677 l 217 677 m 125 -303 l 113 -243 q 235 -181 235 -228 q 217 -144 235 -157 q 165 -122 199 -130 l 193 -65 q 301 -101 268 -75 q 334 -174 334 -126 q 275 -264 334 -232 q 125 -303 216 -296 z "},"ş":{"ha":588,"x_min":37,"x_max":545,"o":"m 311 594 q 225 569 255 594 q 195 505 195 543 q 213 460 195 479 q 256 429 230 441 q 327 399 281 416 l 342 393 q 446 348 405 370 q 516 287 488 326 q 545 189 545 248 q 523 98 545 140 q 458 27 500 56 q 356 -12 416 -1 l 329 -67 q 389 -104 368 -80 q 411 -168 411 -127 q 352 -258 411 -226 q 203 -298 294 -290 l 191 -236 q 313 -171 313 -221 q 292 -131 313 -146 q 225 -104 271 -115 l 269 -17 q 144 13 205 -12 q 37 77 83 39 l 100 163 q 195 104 149 124 q 295 83 241 83 q 388 111 355 83 q 420 180 420 138 q 399 233 420 211 q 349 269 378 255 q 268 302 319 283 q 169 347 210 323 q 99 408 127 370 q 71 498 71 445 q 99 599 71 554 q 182 669 128 644 q 309 694 236 694 q 425 673 370 694 q 524 616 480 651 l 463 534 q 388 578 425 563 q 311 594 351 594 z "},"ţ":{"ha":481,"x_min":31,"x_max":462,"o":"m 406 -168 q 347 -258 406 -226 q 197 -298 288 -290 l 184 -236 q 274 -213 241 -229 q 307 -171 307 -197 q 286 -131 307 -146 q 220 -104 264 -115 l 268 -9 q 131 216 131 22 l 131 572 l 31 572 l 31 670 l 137 677 l 153 865 l 262 865 l 262 677 l 441 677 l 441 572 l 262 572 l 262 215 q 286 120 262 152 q 363 89 310 89 q 438 106 393 89 l 462 8 q 376 -13 416 -7 q 349 -17 374 -14 l 323 -67 q 384 -104 361 -80 q 406 -168 406 -127 z "},"ƀ":{"ha":762,"x_min":8,"x_max":711,"o":"m 442 667 q 588 626 528 667 q 680 511 648 585 q 711 336 711 437 q 671 148 711 229 q 564 25 631 68 q 420 -17 498 -17 q 323 5 373 -17 q 229 67 273 27 l 224 67 l 214 0 l 110 0 l 110 789 l 8 789 l 8 854 l 110 862 l 110 986 l 240 986 l 240 862 l 490 862 l 490 789 l 240 789 l 240 694 l 237 576 q 337 642 284 618 q 442 667 389 667 m 395 92 q 488 121 448 92 q 552 204 529 150 q 576 334 576 259 q 536 499 576 441 q 409 558 496 558 q 240 471 330 558 l 240 158 q 320 108 279 124 q 395 92 360 92 z "},"ǆ":{"ha":1375,"x_min":63,"x_max":1339,"o":"m 541 617 l 534 731 l 534 986 l 666 986 l 666 0 l 558 0 l 547 77 l 543 77 q 449 9 500 35 q 343 -17 397 -17 q 195 24 258 -17 q 98 144 132 64 q 63 339 63 224 q 102 530 63 450 q 208 652 142 610 q 355 694 275 694 q 451 675 410 694 q 541 617 493 656 m 534 180 l 534 519 q 458 570 496 555 q 380 586 420 586 q 284 557 326 586 q 219 472 243 528 q 196 340 196 416 q 241 156 196 219 q 373 92 286 92 q 456 114 417 92 q 534 180 496 135 m 1164 572 l 859 572 l 859 677 l 1329 677 l 1329 608 l 985 105 l 1339 105 l 1339 0 l 821 0 l 821 70 l 1164 572 m 987 994 l 1077 870 l 1082 870 l 1171 994 l 1265 994 l 1133 796 l 1025 796 l 895 994 l 987 994 z "},"ǉ":{"ha":713,"x_min":110,"x_max":625,"o":"m 240 986 l 240 142 q 249 103 240 115 q 273 91 258 91 q 298 94 286 91 l 315 -5 q 243 -17 286 -17 q 141 25 173 -17 q 110 151 110 68 l 110 986 l 240 986 m 540 968 q 600 946 576 968 q 625 890 625 924 q 600 832 625 854 q 540 810 576 810 q 478 832 503 810 q 453 890 453 854 q 477 947 453 925 q 540 968 502 968 m 604 677 l 604 -65 q 557 -236 604 -176 q 408 -296 511 -296 q 304 -278 349 -296 l 330 -180 q 392 -191 361 -191 q 455 -160 437 -191 q 473 -66 473 -130 l 473 677 l 604 677 z "},"ǌ":{"ha":1117,"x_min":110,"x_max":1028,"o":"m 217 677 l 228 582 l 233 582 q 339 665 286 635 q 458 694 393 694 q 616 629 567 694 q 665 431 665 563 l 665 0 l 534 0 l 534 413 q 523 512 534 475 q 485 565 511 548 q 414 582 459 582 q 330 559 368 582 q 240 485 292 536 l 240 0 l 110 0 l 110 677 l 217 677 m 943 968 q 1004 946 979 968 q 1028 890 1028 924 q 1004 832 1028 854 q 943 810 979 810 q 881 832 906 810 q 857 890 857 854 q 881 947 857 925 q 943 968 905 968 m 1007 677 l 1007 -65 q 961 -236 1007 -176 q 811 -296 915 -296 q 707 -278 753 -296 l 733 -180 q 795 -191 765 -191 q 859 -160 841 -191 q 877 -66 877 -130 l 877 677 l 1007 677 z "},"ǎ":{"ha":717,"x_min":78,"x_max":618,"o":"m 353 587 q 245 572 298 587 q 151 528 193 556 l 100 616 q 226 673 155 651 q 375 694 298 694 q 559 623 500 694 q 618 410 618 551 l 618 0 l 511 0 l 500 79 l 496 79 q 428 26 456 45 q 364 -5 399 7 q 284 -17 328 -17 q 176 7 223 -17 q 104 76 130 31 q 78 180 78 121 q 488 429 78 411 q 457 548 488 509 q 353 587 427 587 m 488 172 l 488 347 q 271 298 336 341 q 205 188 205 255 q 237 112 205 137 q 322 87 268 87 q 403 107 366 87 q 488 172 440 127 m 279 994 l 368 870 l 374 870 l 463 994 l 556 994 l 425 796 l 317 796 l 186 994 l 279 994 z "},"ǐ":{"ha":349,"x_min":-10,"x_max":360,"o":"m 240 677 l 240 0 l 110 0 l 110 677 l 240 677 m 83 994 l 172 870 l 178 870 l 267 994 l 360 994 l 229 796 l 121 796 l -10 994 l 83 994 z "},"ǒ":{"ha":756,"x_min":62,"x_max":695,"o":"m 286 994 l 376 870 l 381 870 l 470 994 l 564 994 l 432 796 l 324 796 l 193 994 l 286 994 m 695 339 q 652 148 695 229 q 537 25 610 67 q 378 -17 465 -17 q 219 25 291 -17 q 104 148 146 67 q 62 339 62 229 q 104 531 62 450 q 218 653 146 611 q 378 694 290 694 q 537 653 465 694 q 652 531 610 611 q 695 339 695 450 m 560 339 q 538 470 560 414 q 475 557 516 526 q 378 587 434 587 q 281 557 322 587 q 218 470 240 526 q 197 339 197 414 q 218 208 197 264 q 281 121 240 152 q 378 91 322 91 q 475 121 434 91 q 538 208 516 152 q 560 339 560 264 z "},"ǔ":{"ha":762,"x_min":100,"x_max":652,"o":"m 232 677 l 232 265 q 243 166 232 203 q 280 113 254 130 q 351 96 307 96 q 438 120 402 96 q 522 203 475 144 l 522 677 l 652 677 l 652 0 l 545 0 l 534 104 l 530 104 q 428 13 478 43 q 309 -17 378 -17 q 150 49 199 -17 q 100 248 100 115 l 100 677 l 232 677 m 273 994 l 363 870 l 368 870 l 457 994 l 551 994 l 419 796 l 311 796 l 180 994 l 273 994 z "},"ǖ":{"ha":762,"x_min":100,"x_max":652,"o":"m 559 1114 l 559 1043 l 208 1043 l 208 1114 l 559 1114 m 261 947 q 309 927 290 947 q 328 879 328 908 q 309 831 328 850 q 261 812 290 812 q 213 832 232 812 q 193 879 193 851 q 213 927 193 908 q 261 947 232 947 m 507 947 q 555 927 536 947 q 574 879 574 908 q 555 832 574 851 q 507 812 536 812 q 459 831 478 812 q 440 879 440 850 q 459 927 440 908 q 507 947 477 947 m 232 677 l 232 265 q 243 166 232 203 q 280 113 254 130 q 351 96 307 96 q 438 120 402 96 q 522 203 475 144 l 522 677 l 652 677 l 652 0 l 545 0 l 534 104 l 530 104 q 428 13 478 43 q 309 -17 378 -17 q 150 49 199 -17 q 100 248 100 115 l 100 677 l 232 677 z "},"ǘ":{"ha":762,"x_min":100,"x_max":652,"o":"m 232 677 l 232 265 q 243 166 232 203 q 280 113 254 130 q 351 96 307 96 q 438 120 402 96 q 522 203 475 144 l 522 677 l 652 677 l 652 0 l 545 0 l 534 104 l 530 104 q 428 13 478 43 q 309 -17 378 -17 q 150 49 199 -17 q 100 248 100 115 l 100 677 l 232 677 m 545 1149 l 399 1004 l 310 1004 l 424 1149 l 545 1149 m 264 947 q 312 927 294 947 q 331 879 331 908 q 312 831 331 850 q 264 812 293 812 q 216 832 235 812 q 197 879 197 851 q 216 927 197 908 q 264 947 235 947 m 510 947 q 558 927 539 947 q 578 879 578 908 q 558 832 578 851 q 510 812 539 812 q 463 831 481 812 q 444 879 444 850 q 462 927 444 908 q 510 947 481 947 z "},"ǚ":{"ha":762,"x_min":100,"x_max":652,"o":"m 232 677 l 232 265 q 243 166 232 203 q 280 113 254 130 q 351 96 307 96 q 438 120 402 96 q 522 203 475 144 l 522 677 l 652 677 l 652 0 l 545 0 l 534 104 l 530 104 q 428 13 478 43 q 309 -17 378 -17 q 150 49 199 -17 q 100 248 100 115 l 100 677 l 232 677 m 294 1149 l 377 1062 l 382 1062 l 466 1149 l 560 1149 l 435 1004 l 324 1004 l 199 1149 l 294 1149 m 257 947 q 305 927 286 947 q 323 879 323 908 q 304 831 323 850 q 257 812 286 812 q 209 832 228 812 q 189 879 189 851 q 209 927 189 908 q 257 947 228 947 m 503 947 q 551 927 532 947 q 570 879 570 908 q 551 832 570 851 q 503 812 532 812 q 455 831 474 812 q 436 879 436 850 q 455 927 436 908 q 503 947 473 947 z "},"ǜ":{"ha":762,"x_min":100,"x_max":652,"o":"m 232 677 l 232 265 q 243 166 232 203 q 280 113 254 130 q 351 96 307 96 q 438 120 402 96 q 522 203 475 144 l 522 677 l 652 677 l 652 0 l 545 0 l 534 104 l 530 104 q 428 13 478 43 q 309 -17 378 -17 q 150 49 199 -17 q 100 248 100 115 l 100 677 l 232 677 m 370 1004 l 224 1149 l 345 1149 l 459 1004 l 370 1004 m 259 947 q 307 927 288 947 q 326 879 326 908 q 307 831 326 850 q 259 812 288 812 q 211 832 230 812 q 191 879 191 851 q 211 927 191 908 q 259 947 230 947 m 505 947 q 553 927 534 947 q 572 879 572 908 q 553 832 572 851 q 505 812 534 812 q 457 831 476 812 q 438 879 438 850 q 457 927 438 908 q 505 947 475 947 z "},"ǫ":{"ha":756,"x_min":61,"x_max":695,"o":"m 61 338 q 104 528 61 447 q 220 652 148 609 q 378 694 293 694 q 536 652 463 694 q 652 528 608 609 q 695 338 695 447 q 638 125 695 205 q 473 -5 581 45 q 401 -63 427 -26 q 376 -140 376 -101 q 394 -187 376 -171 q 439 -203 412 -203 q 467 -198 454 -203 q 494 -185 479 -194 l 526 -248 q 471 -276 505 -264 q 410 -287 438 -287 q 318 -256 354 -287 q 281 -168 281 -224 q 305 -80 281 -121 q 359 -15 329 -40 q 209 34 277 -9 q 101 156 141 78 q 61 338 61 235 m 560 338 q 538 468 560 412 q 474 556 515 525 q 378 587 433 587 q 283 556 324 587 q 219 468 241 525 q 196 338 196 412 q 219 209 196 264 q 283 122 241 153 q 378 91 324 91 q 474 122 433 91 q 538 209 515 153 q 560 338 560 264 z "},"ǳ":{"ha":1375,"x_min":63,"x_max":1339,"o":"m 541 617 l 534 731 l 534 986 l 666 986 l 666 0 l 558 0 l 547 77 l 543 77 q 449 9 500 35 q 343 -17 397 -17 q 195 24 258 -17 q 98 144 132 64 q 63 339 63 224 q 102 530 63 450 q 208 652 142 610 q 355 694 275 694 q 451 675 410 694 q 541 617 493 656 m 534 180 l 534 519 q 458 570 496 555 q 380 586 420 586 q 284 557 326 586 q 219 472 243 528 q 196 340 196 416 q 241 156 196 219 q 373 92 286 92 q 456 114 417 92 q 534 180 496 135 m 1164 572 l 859 572 l 859 677 l 1329 677 l 1329 608 l 985 105 l 1339 105 l 1339 0 l 821 0 l 821 70 l 1164 572 z "},"ș":{"ha":588,"x_min":40,"x_max":545,"o":"m 295 83 q 388 110 356 83 q 420 178 420 136 q 399 231 420 209 q 348 268 378 253 q 268 301 317 283 q 125 378 179 334 q 71 500 71 423 q 99 600 71 556 q 182 669 128 644 q 309 694 236 694 q 426 673 371 694 q 524 618 481 652 l 463 536 q 389 579 425 565 q 311 594 353 594 q 224 571 253 594 q 195 510 195 549 q 215 461 195 482 q 264 426 235 441 q 342 393 294 412 q 446 348 404 370 q 516 285 488 325 q 545 186 545 245 q 515 83 545 129 q 428 10 486 37 q 291 -17 371 -17 q 157 9 222 -17 q 40 77 92 35 l 103 163 q 197 103 153 123 q 295 83 241 83 m 273 -303 l 261 -243 q 382 -181 382 -228 q 365 -144 382 -157 q 313 -122 347 -130 l 341 -65 q 449 -101 416 -75 q 482 -174 482 -126 q 423 -264 482 -232 q 273 -303 364 -296 z "},"ț":{"ha":481,"x_min":31,"x_max":462,"o":"m 31 572 l 31 670 l 137 677 l 153 865 l 262 865 l 262 677 l 441 677 l 441 572 l 262 572 l 262 215 q 286 120 262 152 q 363 89 310 89 q 438 106 393 89 l 462 8 q 332 -17 385 -17 q 178 44 225 -17 q 131 216 131 105 l 131 572 l 31 572 m 181 -303 l 170 -243 q 291 -181 291 -228 q 273 -144 291 -157 q 221 -122 255 -130 l 250 -65 q 357 -101 324 -75 q 391 -174 391 -126 q 332 -264 391 -232 q 181 -303 273 -296 z "},"ɑ":{"ha":776,"x_min":63,"x_max":666,"o":"m 546 612 l 549 612 l 560 677 l 666 677 l 666 0 l 558 0 l 547 77 l 543 77 q 449 9 500 35 q 343 -17 397 -17 q 195 25 258 -17 q 97 147 132 67 q 63 338 63 227 q 104 525 63 444 q 213 650 145 606 q 357 694 280 694 q 455 674 411 694 q 546 612 500 654 m 534 180 l 534 519 q 458 570 496 555 q 380 586 420 586 q 288 555 330 586 q 222 469 246 525 q 198 340 198 412 q 244 157 198 222 q 373 92 290 92 q 456 114 417 92 q 534 180 496 135 z "},"ɡ":{"ha":783,"x_min":68,"x_max":669,"o":"m 539 -24 l 541 95 q 450 32 499 56 q 347 9 401 9 q 199 50 262 9 q 102 169 136 92 q 68 349 68 245 q 109 530 68 451 q 217 651 149 608 q 361 694 284 694 q 459 675 415 694 q 547 614 504 655 l 550 614 l 561 677 l 669 677 l 669 -26 q 633 -170 669 -110 q 527 -262 597 -231 q 360 -294 458 -294 q 234 -275 298 -294 q 116 -220 170 -256 l 162 -130 q 360 -190 254 -190 q 492 -146 448 -190 q 539 -24 536 -103 m 539 519 q 462 570 500 555 q 383 586 424 586 q 291 556 333 586 q 225 472 250 526 q 201 351 201 418 q 222 226 201 279 q 282 145 243 173 q 376 117 321 117 q 459 138 420 117 q 539 204 498 159 l 539 519 z "},"ḃ":{"ha":776,"x_min":110,"x_max":711,"o":"m 240 986 l 240 722 l 237 604 q 337 670 284 646 q 445 694 391 694 q 644 604 577 694 q 711 349 711 514 q 672 150 711 233 q 568 25 633 68 q 421 -17 502 -17 q 323 5 373 -17 q 229 67 274 26 l 224 67 l 214 0 l 110 0 l 110 986 l 240 986 m 576 347 q 538 525 576 464 q 410 586 500 586 q 327 564 369 586 q 240 498 286 542 l 240 158 q 319 108 279 124 q 396 92 359 92 q 491 121 450 92 q 553 208 531 151 q 576 347 576 265 m 490 971 q 549 948 526 971 q 572 890 572 926 q 549 832 572 854 q 490 810 526 810 q 431 832 454 810 q 408 890 408 854 q 431 948 408 926 q 490 971 454 971 z "},"ḋ":{"ha":776,"x_min":63,"x_max":666,"o":"m 541 617 l 534 731 l 534 986 l 666 986 l 666 0 l 558 0 l 547 77 l 543 77 q 449 9 500 35 q 343 -17 397 -17 q 195 24 258 -17 q 98 144 132 64 q 63 339 63 224 q 102 530 63 450 q 208 652 142 610 q 355 694 275 694 q 451 675 410 694 q 541 617 493 656 m 534 180 l 534 519 q 458 570 496 555 q 380 586 420 586 q 284 557 326 586 q 219 472 243 528 q 196 340 196 416 q 241 156 196 219 q 373 92 286 92 q 456 114 417 92 q 534 180 496 135 m 264 971 q 323 948 300 971 q 347 890 347 926 q 323 832 347 854 q 264 810 300 810 q 205 832 229 810 q 182 890 182 854 q 205 948 182 926 q 264 971 229 971 z "},"ḍ":{"ha":776,"x_min":63,"x_max":666,"o":"m 541 617 l 534 731 l 534 986 l 666 986 l 666 0 l 558 0 l 547 77 l 543 77 q 449 9 500 35 q 343 -17 397 -17 q 195 24 258 -17 q 98 144 132 64 q 63 339 63 224 q 102 530 63 450 q 208 652 142 610 q 355 694 275 694 q 451 675 410 694 q 541 617 493 656 m 534 180 l 534 519 q 458 570 496 555 q 380 586 420 586 q 284 557 326 586 q 219 472 243 528 q 196 340 196 416 q 241 156 196 219 q 373 92 286 92 q 456 114 417 92 q 534 180 496 135 m 389 -137 q 447 -160 424 -137 q 471 -218 471 -182 q 447 -276 471 -254 q 389 -298 424 -298 q 329 -276 353 -298 q 306 -218 306 -254 q 329 -160 306 -182 q 389 -137 353 -137 z "},"ḏ":{"ha":776,"x_min":63,"x_max":666,"o":"m 541 617 l 534 731 l 534 986 l 666 986 l 666 0 l 558 0 l 547 77 l 543 77 q 449 9 500 35 q 343 -17 397 -17 q 195 24 258 -17 q 98 144 132 64 q 63 339 63 224 q 102 530 63 450 q 208 652 142 610 q 355 694 275 694 q 451 675 410 694 q 541 617 493 656 m 534 180 l 534 519 q 458 570 496 555 q 380 586 420 586 q 284 557 326 586 q 219 472 243 528 q 196 340 196 416 q 241 156 196 219 q 373 92 286 92 q 456 114 417 92 q 534 180 496 135 m 594 -151 l 594 -239 l 246 -239 l 246 -151 l 594 -151 z "},"ḟ":{"ha":418,"x_min":40,"x_max":456,"o":"m 354 897 q 285 867 308 897 q 262 774 262 837 l 262 677 l 401 677 l 401 572 l 262 572 l 262 0 l 132 0 l 132 572 l 40 572 l 40 670 l 132 677 l 132 774 q 183 942 132 882 q 339 1003 235 1003 q 456 980 399 1003 l 429 881 q 354 897 390 897 m 197 1286 q 255 1264 232 1286 q 279 1206 279 1241 q 255 1147 279 1170 q 197 1125 232 1125 q 137 1147 161 1125 q 114 1206 114 1170 q 137 1264 114 1241 q 197 1286 161 1286 z "},"ḡ":{"ha":707,"x_min":60,"x_max":690,"o":"m 159 40 q 98 149 98 77 q 172 267 98 216 l 172 272 q 109 349 134 303 q 83 454 83 395 q 118 585 83 530 q 211 667 152 639 q 344 694 270 694 q 441 677 397 694 l 679 677 l 679 581 l 545 581 q 582 524 568 558 q 596 450 596 490 q 564 322 596 375 q 475 242 532 269 q 344 216 418 216 q 245 238 294 216 q 222 216 229 224 q 210 197 215 209 q 205 170 205 186 q 232 118 205 136 q 322 100 259 100 l 461 100 q 635 58 579 100 q 690 -72 690 15 q 649 -191 690 -137 q 527 -276 607 -245 q 340 -308 448 -308 q 132 -261 203 -308 q 60 -127 60 -215 q 86 -38 60 -81 q 159 35 113 5 l 159 40 m 344 601 q 245 564 281 601 q 209 454 209 526 q 227 371 209 405 q 275 319 245 336 q 344 301 306 301 q 411 318 381 301 q 459 370 441 336 q 477 454 477 404 q 441 564 477 526 q 344 601 406 601 m 564 -92 q 530 -24 564 -47 q 433 0 496 0 l 325 0 q 236 10 274 0 q 189 -44 204 -13 q 174 -109 174 -75 q 222 -190 174 -161 q 360 -218 270 -218 q 468 -201 422 -218 q 539 -155 515 -184 q 564 -92 564 -125 m 519 921 l 519 833 l 171 833 l 171 921 l 519 921 z "},"ḥ":{"ha":762,"x_min":110,"x_max":665,"o":"m 399 -131 q 457 -154 434 -131 q 481 -212 481 -176 q 457 -270 481 -248 q 399 -292 434 -292 q 339 -270 363 -292 q 316 -212 316 -248 q 339 -154 316 -176 q 399 -131 363 -131 m 240 986 l 240 722 l 235 586 q 341 666 289 637 q 458 694 393 694 q 615 628 566 694 q 665 430 665 562 l 665 0 l 534 0 l 534 412 q 522 511 534 474 q 484 565 510 548 q 415 582 458 582 q 330 559 368 582 q 240 485 292 536 l 240 0 l 110 0 l 110 986 l 240 986 z "},"ḫ":{"ha":762,"x_min":110,"x_max":665,"o":"m 240 986 l 240 722 l 235 586 q 341 666 289 637 q 458 694 393 694 q 615 628 566 694 q 665 430 665 562 l 665 0 l 534 0 l 534 412 q 522 511 534 474 q 484 565 510 548 q 415 582 458 582 q 330 559 368 582 q 240 485 292 536 l 240 0 l 110 0 l 110 986 l 240 986 m 298 -109 q 329 -181 304 -152 q 398 -210 354 -210 q 467 -181 441 -210 q 498 -109 492 -152 l 576 -109 q 554 -195 574 -155 q 494 -262 534 -236 q 398 -288 455 -288 q 301 -262 340 -288 q 242 -195 262 -236 q 219 -109 222 -155 l 298 -109 z "},"ḷ":{"ha":362,"x_min":110,"x_max":324,"o":"m 242 -131 q 301 -154 277 -131 q 324 -212 324 -176 q 301 -270 324 -248 q 242 -292 277 -292 q 183 -270 206 -292 q 159 -212 159 -248 q 183 -154 159 -176 q 242 -131 206 -131 m 240 986 l 240 142 q 249 103 240 115 q 273 91 258 91 q 298 94 286 91 l 315 -5 q 243 -17 286 -17 q 141 25 173 -17 q 110 151 110 68 l 110 986 l 240 986 z "},"ḹ":{"ha":362,"x_min":-2,"x_max":346,"o":"m 346 1227 l 346 1139 l -2 1139 l -2 1227 l 346 1227 m 242 -131 q 301 -154 277 -131 q 324 -212 324 -176 q 301 -270 324 -248 q 242 -292 277 -292 q 183 -270 206 -292 q 159 -212 159 -248 q 183 -154 159 -176 q 242 -131 206 -131 m 240 986 l 240 142 q 249 103 240 115 q 273 91 258 91 q 298 94 286 91 l 315 -5 q 243 -17 286 -17 q 141 25 173 -17 q 110 151 110 68 l 110 986 l 240 986 z "},"ḻ":{"ha":362,"x_min":66,"x_max":414,"o":"m 414 -150 l 414 -238 l 66 -238 l 66 -150 l 414 -150 m 240 986 l 240 142 q 249 103 240 115 q 273 91 258 91 q 298 94 286 91 l 315 -5 q 243 -17 286 -17 q 141 25 173 -17 q 110 151 110 68 l 110 986 l 240 986 z "},"ṁ":{"ha":1158,"x_min":110,"x_max":1057,"o":"m 217 677 l 228 582 l 233 582 q 443 694 336 694 q 563 664 520 694 q 628 570 606 633 q 738 663 686 631 q 850 694 791 694 q 1007 629 958 694 q 1057 431 1057 563 l 1057 0 l 926 0 l 926 413 q 915 511 926 475 q 878 565 903 548 q 809 582 852 582 q 732 559 772 582 q 649 488 693 536 l 649 0 l 518 0 l 518 414 q 507 512 518 476 q 469 565 495 549 q 400 582 444 582 q 240 485 329 582 l 240 0 l 110 0 l 110 677 l 217 677 m 584 971 q 643 948 619 971 q 666 890 666 926 q 643 832 666 854 q 584 810 619 810 q 525 832 548 810 q 501 890 501 854 q 525 948 501 926 q 584 971 548 971 z "},"ṃ":{"ha":1158,"x_min":110,"x_max":1057,"o":"m 596 -131 q 655 -154 631 -131 q 678 -212 678 -176 q 655 -270 678 -248 q 596 -292 631 -292 q 537 -270 560 -292 q 513 -212 513 -248 q 537 -154 513 -176 q 596 -131 560 -131 m 217 677 l 228 582 l 233 582 q 443 694 336 694 q 563 664 520 694 q 628 570 606 633 q 738 663 686 631 q 850 694 791 694 q 1007 629 958 694 q 1057 431 1057 563 l 1057 0 l 926 0 l 926 413 q 915 511 926 475 q 878 565 903 548 q 809 582 852 582 q 732 559 772 582 q 649 488 693 536 l 649 0 l 518 0 l 518 414 q 507 512 518 476 q 469 565 495 549 q 400 582 444 582 q 240 485 329 582 l 240 0 l 110 0 l 110 677 l 217 677 z "},"ṅ":{"ha":766,"x_min":110,"x_max":665,"o":"m 217 677 l 228 582 l 233 582 q 339 665 286 635 q 458 694 393 694 q 616 629 567 694 q 665 431 665 563 l 665 0 l 534 0 l 534 413 q 523 512 534 475 q 485 565 511 548 q 414 582 459 582 q 330 559 368 582 q 240 485 292 536 l 240 0 l 110 0 l 110 677 l 217 677 m 391 971 q 449 948 426 971 q 473 890 473 926 q 449 832 473 854 q 391 810 426 810 q 331 832 355 810 q 308 890 308 854 q 331 948 308 926 q 391 971 355 971 z "},"ṇ":{"ha":766,"x_min":110,"x_max":665,"o":"m 217 677 l 228 582 l 233 582 q 339 665 286 635 q 458 694 393 694 q 616 629 567 694 q 665 431 665 563 l 665 0 l 534 0 l 534 413 q 523 512 534 475 q 485 565 511 548 q 414 582 459 582 q 330 559 368 582 q 240 485 292 536 l 240 0 l 110 0 l 110 677 l 217 677 m 391 -131 q 450 -154 427 -131 q 473 -212 473 -176 q 450 -270 473 -248 q 391 -292 427 -292 q 332 -270 355 -292 q 309 -212 309 -248 q 332 -154 309 -176 q 391 -131 355 -131 z "},"ṉ":{"ha":766,"x_min":110,"x_max":665,"o":"m 217 677 l 228 582 l 233 582 q 339 665 286 635 q 458 694 393 694 q 616 629 567 694 q 665 431 665 563 l 665 0 l 534 0 l 534 413 q 523 512 534 475 q 485 565 511 548 q 414 582 459 582 q 330 559 368 582 q 240 485 292 536 l 240 0 l 110 0 l 110 677 l 217 677 m 562 -150 l 562 -238 l 214 -238 l 214 -150 l 562 -150 z "},"ṗ":{"ha":776,"x_min":110,"x_max":711,"o":"m 240 -279 l 110 -279 l 110 677 l 217 677 l 228 602 l 233 602 q 444 694 342 694 q 590 653 530 694 q 681 533 650 611 q 711 348 711 456 q 671 152 711 234 q 566 26 632 69 q 419 -17 499 -17 q 328 3 372 -17 q 237 60 283 22 l 240 -56 l 240 -279 m 576 347 q 536 525 576 463 q 408 586 496 586 q 328 565 368 586 q 240 498 288 543 l 240 158 q 319 108 280 124 q 393 92 358 92 q 488 122 447 92 q 553 209 530 152 q 576 347 576 267 m 439 971 q 497 948 474 971 q 521 890 521 926 q 497 832 521 854 q 439 810 474 810 q 379 832 403 810 q 356 890 356 854 q 379 948 356 926 q 439 971 403 971 z "},"ṛ":{"ha":495,"x_min":90,"x_max":498,"o":"m 217 677 l 228 555 l 233 555 q 318 657 267 621 q 425 694 368 694 q 465 691 448 694 q 498 680 481 688 l 474 566 q 441 575 455 572 q 408 577 427 577 q 316 541 361 577 q 240 427 271 505 l 240 0 l 110 0 l 110 677 l 217 677 m 173 -131 q 232 -154 208 -131 q 255 -212 255 -176 q 232 -270 255 -248 q 173 -292 208 -292 q 114 -270 137 -292 q 90 -212 90 -248 q 114 -154 90 -176 q 173 -131 137 -131 z "},"ṝ":{"ha":495,"x_min":90,"x_max":498,"o":"m 217 677 l 228 555 l 233 555 q 318 657 267 621 q 425 694 368 694 q 465 691 448 694 q 498 680 481 688 l 474 566 q 441 575 455 572 q 408 577 427 577 q 316 541 361 577 q 240 427 271 505 l 240 0 l 110 0 l 110 677 l 217 677 m 465 921 l 465 833 l 117 833 l 117 921 l 465 921 m 172 -113 q 231 -136 208 -113 q 254 -194 254 -159 q 231 -252 254 -230 q 172 -275 208 -275 q 113 -252 136 -275 q 90 -194 90 -230 q 113 -136 90 -159 q 172 -113 136 -113 z "},"ṟ":{"ha":495,"x_min":1,"x_max":498,"o":"m 217 677 l 228 555 l 233 555 q 318 657 267 621 q 425 694 368 694 q 465 691 448 694 q 498 680 481 688 l 474 566 q 441 575 455 572 q 408 577 427 577 q 316 541 361 577 q 240 427 271 505 l 240 0 l 110 0 l 110 677 l 217 677 m 349 -153 l 349 -241 l 1 -241 l 1 -153 l 349 -153 z "},"ṡ":{"ha":588,"x_min":40,"x_max":545,"o":"m 295 83 q 388 110 356 83 q 420 178 420 136 q 399 231 420 209 q 348 268 378 253 q 268 301 317 283 q 125 378 179 334 q 71 500 71 423 q 99 600 71 556 q 182 669 128 644 q 309 694 236 694 q 426 673 371 694 q 524 618 481 652 l 463 536 q 389 579 425 565 q 311 594 353 594 q 224 571 253 594 q 195 510 195 549 q 215 461 195 482 q 264 426 235 441 q 342 393 294 412 q 446 348 404 370 q 516 285 488 325 q 545 186 545 245 q 515 83 545 129 q 428 10 486 37 q 291 -17 371 -17 q 157 9 222 -17 q 40 77 92 35 l 103 163 q 197 103 153 123 q 295 83 241 83 m 307 971 q 366 948 342 971 q 389 890 389 926 q 366 832 389 854 q 307 810 342 810 q 248 832 271 810 q 224 890 224 854 q 248 948 224 926 q 307 971 271 971 z "},"ṣ":{"ha":588,"x_min":40,"x_max":545,"o":"m 313 -132 q 371 -154 348 -132 q 395 -212 395 -177 q 371 -271 395 -248 q 313 -293 348 -293 q 253 -271 277 -293 q 230 -212 230 -248 q 253 -154 230 -177 q 313 -132 277 -132 m 295 83 q 388 110 356 83 q 420 178 420 136 q 399 231 420 209 q 348 268 378 253 q 268 301 317 283 q 125 378 179 334 q 71 500 71 423 q 99 600 71 556 q 182 669 128 644 q 309 694 236 694 q 426 673 371 694 q 524 618 481 652 l 463 536 q 389 579 425 565 q 311 594 353 594 q 224 571 253 594 q 195 510 195 549 q 215 461 195 482 q 264 426 235 441 q 342 393 294 412 q 446 348 404 370 q 516 285 488 325 q 545 186 545 245 q 515 83 545 129 q 428 10 486 37 q 291 -17 371 -17 q 157 9 222 -17 q 40 77 92 35 l 103 163 q 197 103 153 123 q 295 83 241 83 z "},"ṫ":{"ha":481,"x_min":31,"x_max":462,"o":"m 31 572 l 31 670 l 137 677 l 153 865 l 262 865 l 262 677 l 441 677 l 441 572 l 262 572 l 262 215 q 286 120 262 152 q 363 89 310 89 q 438 106 393 89 l 462 8 q 332 -17 385 -17 q 178 44 225 -17 q 131 216 131 105 l 131 572 l 31 572 m 199 1124 q 257 1102 234 1124 q 281 1044 281 1079 q 257 985 281 1008 q 199 963 234 963 q 139 985 163 963 q 116 1044 116 1008 q 139 1102 116 1079 q 199 1124 163 1124 z "},"ṭ":{"ha":481,"x_min":31,"x_max":462,"o":"m 296 -131 q 355 -154 332 -131 q 378 -212 378 -176 q 355 -270 378 -248 q 296 -292 332 -292 q 237 -270 260 -292 q 214 -212 214 -248 q 237 -154 214 -176 q 296 -131 260 -131 m 31 572 l 31 670 l 137 677 l 153 865 l 262 865 l 262 677 l 441 677 l 441 572 l 262 572 l 262 215 q 286 120 262 152 q 363 89 310 89 q 438 106 393 89 l 462 8 q 332 -17 385 -17 q 178 44 225 -17 q 131 216 131 105 l 131 572 l 31 572 z "},"ṯ":{"ha":481,"x_min":31,"x_max":473,"o":"m 473 -152 l 473 -240 l 125 -240 l 125 -152 l 473 -152 m 31 572 l 31 670 l 137 677 l 153 865 l 262 865 l 262 677 l 441 677 l 441 572 l 262 572 l 262 215 q 286 120 262 152 q 363 89 310 89 q 438 106 393 89 l 462 8 q 332 -17 385 -17 q 178 44 225 -17 q 131 216 131 105 l 131 572 l 31 572 z "},"ẏ":{"ha":662,"x_min":17,"x_max":646,"o":"m 272 -45 l 287 2 l 17 677 l 151 677 l 281 318 q 345 127 307 245 l 350 127 q 379 229 360 160 q 404 318 394 286 l 517 677 l 646 677 l 394 -47 q 292 -224 353 -163 q 132 -286 231 -286 q 50 -273 89 -286 l 75 -170 q 125 -180 108 -180 q 215 -144 179 -180 q 272 -45 252 -108 m 332 971 q 390 948 367 971 q 414 890 414 926 q 390 832 414 854 q 332 810 367 810 q 272 832 296 810 q 249 890 249 854 q 272 948 249 926 q 332 971 296 971 z "},"ẓ":{"ha":599,"x_min":45,"x_max":564,"o":"m 389 572 l 83 572 l 83 677 l 553 677 l 553 608 l 209 105 l 564 105 l 564 0 l 45 0 l 45 70 l 389 572 m 304 971 q 363 948 340 971 q 387 890 387 926 q 363 832 387 854 q 304 810 340 810 q 245 832 269 810 q 222 890 222 854 q 245 948 222 926 q 304 971 269 971 z "},"ẗ":{"ha":481,"x_min":3,"x_max":462,"o":"m 31 572 l 31 670 l 137 677 l 153 865 l 262 865 l 262 677 l 441 677 l 441 572 l 262 572 l 262 215 q 286 120 262 152 q 363 89 310 89 q 438 106 393 89 l 462 8 q 332 -17 385 -17 q 178 44 225 -17 q 131 216 131 105 l 131 572 l 31 572 m 75 1112 q 128 1092 107 1112 q 149 1039 149 1071 q 128 986 149 1007 q 75 966 107 966 q 23 986 44 966 q 3 1039 3 1007 q 23 1092 3 1071 q 75 1112 44 1112 m 321 1112 q 374 1092 354 1112 q 394 1039 394 1071 q 374 986 394 1007 q 321 966 354 966 q 270 986 290 966 q 249 1039 249 1007 q 270 1092 249 1071 q 321 1112 290 1112 z "},"ạ":{"ha":717,"x_min":78,"x_max":618,"o":"m 353 587 q 245 572 298 587 q 151 528 193 556 l 100 616 q 226 673 155 651 q 375 694 298 694 q 559 623 500 694 q 618 410 618 551 l 618 0 l 511 0 l 500 79 l 496 79 q 428 26 456 45 q 364 -5 399 7 q 284 -17 328 -17 q 176 7 223 -17 q 104 76 130 31 q 78 180 78 121 q 488 429 78 411 q 457 548 488 509 q 353 587 427 587 m 488 172 l 488 347 q 271 298 336 341 q 205 188 205 255 q 237 112 205 137 q 322 87 268 87 q 403 107 366 87 q 488 172 440 127 m 372 971 q 430 948 407 971 q 454 890 454 926 q 430 832 454 854 q 372 810 407 810 q 312 832 336 810 q 289 890 289 854 q 312 948 289 926 q 372 971 336 971 z "},"ả":{"ha":717,"x_min":78,"x_max":618,"o":"m 353 587 q 245 572 298 587 q 151 528 193 556 l 100 616 q 226 673 155 651 q 375 694 298 694 q 559 623 500 694 q 618 410 618 551 l 618 0 l 511 0 l 500 79 l 496 79 q 428 26 456 45 q 364 -5 399 7 q 284 -17 328 -17 q 176 7 223 -17 q 104 76 130 31 q 78 180 78 121 q 488 429 78 411 q 457 548 488 509 q 353 587 427 587 m 488 172 l 488 347 q 271 298 336 341 q 205 188 205 255 q 237 112 205 137 q 322 87 268 87 q 403 107 366 87 q 488 172 440 127 m 372 887 q 258 943 372 937 l 272 1016 q 420 984 370 1013 q 471 901 471 954 q 427 811 471 843 q 310 769 382 780 l 297 827 q 353 850 334 836 q 372 887 372 863 z "},"ấ":{"ha":717,"x_min":78,"x_max":713,"o":"m 353 587 q 245 572 298 587 q 151 528 193 556 l 100 616 q 226 673 155 651 q 375 694 298 694 q 559 623 500 694 q 618 410 618 551 l 618 0 l 511 0 l 500 79 l 496 79 q 428 26 456 45 q 364 -5 399 7 q 284 -17 328 -17 q 176 7 223 -17 q 104 76 130 31 q 78 180 78 121 q 488 429 78 411 q 457 548 488 509 q 353 587 427 587 m 488 172 l 488 347 q 271 298 336 341 q 205 188 205 255 q 237 112 205 137 q 322 87 268 87 q 403 107 366 87 q 488 172 440 127 m 713 1050 l 584 890 l 505 890 l 606 1050 l 713 1050 m 431 964 l 545 796 l 458 796 l 380 895 l 374 895 l 296 796 l 210 796 l 323 964 l 431 964 z "},"ầ":{"ha":717,"x_min":78,"x_max":668,"o":"m 353 587 q 245 572 298 587 q 151 528 193 556 l 100 616 q 226 673 155 651 q 375 694 298 694 q 559 623 500 694 q 618 410 618 551 l 618 0 l 511 0 l 500 79 l 496 79 q 428 26 456 45 q 364 -5 399 7 q 284 -17 328 -17 q 176 7 223 -17 q 104 76 130 31 q 78 180 78 121 q 488 429 78 411 q 457 548 488 509 q 353 587 427 587 m 488 172 l 488 347 q 271 298 336 341 q 205 188 205 255 q 237 112 205 137 q 322 87 268 87 q 403 107 366 87 q 488 172 440 127 m 589 890 l 460 1050 l 566 1050 l 668 890 l 589 890 m 430 964 l 544 796 l 457 796 l 379 895 l 374 895 l 296 796 l 209 796 l 323 964 l 430 964 z "},"ẩ":{"ha":717,"x_min":78,"x_max":665,"o":"m 353 587 q 245 572 298 587 q 151 528 193 556 l 100 616 q 226 673 155 651 q 375 694 298 694 q 559 623 500 694 q 618 410 618 551 l 618 0 l 511 0 l 500 79 l 496 79 q 428 26 456 45 q 364 -5 399 7 q 284 -17 328 -17 q 176 7 223 -17 q 104 76 130 31 q 78 180 78 121 q 488 429 78 411 q 457 548 488 509 q 353 587 427 587 m 488 172 l 488 347 q 271 298 336 341 q 205 188 205 255 q 237 112 205 137 q 322 87 268 87 q 403 107 366 87 q 488 172 440 127 m 572 976 q 550 1015 572 1002 q 477 1031 528 1028 l 489 1093 q 665 990 665 1086 q 629 911 665 937 q 530 872 593 886 l 517 925 q 557 944 543 932 q 572 976 572 956 m 416 964 l 530 796 l 444 796 l 366 895 l 360 895 l 282 796 l 195 796 l 309 964 l 416 964 z "},"ẫ":{"ha":717,"x_min":78,"x_max":618,"o":"m 353 587 q 245 572 298 587 q 151 528 193 556 l 100 616 q 226 673 155 651 q 375 694 298 694 q 559 623 500 694 q 618 410 618 551 l 618 0 l 511 0 l 500 79 l 496 79 q 428 26 456 45 q 364 -5 399 7 q 284 -17 328 -17 q 176 7 223 -17 q 104 76 130 31 q 78 180 78 121 q 488 429 78 411 q 457 548 488 509 q 353 587 427 587 m 488 172 l 488 347 q 271 298 336 341 q 205 188 205 255 q 237 112 205 137 q 322 87 268 87 q 403 107 366 87 q 488 172 440 127 m 390 1088 q 419 1069 407 1076 q 444 1063 431 1063 q 478 1078 464 1063 q 496 1122 492 1093 l 561 1122 q 525 1025 555 1061 q 448 989 494 989 q 404 998 422 989 q 360 1023 385 1006 q 331 1042 343 1036 q 307 1048 319 1048 q 254 989 263 1048 l 189 989 q 225 1086 195 1050 q 302 1122 255 1122 q 347 1113 328 1122 q 390 1088 365 1105 m 315 939 l 435 939 l 553 793 l 463 793 l 378 882 l 372 882 l 287 793 l 197 793 l 315 939 z "},"ậ":{"ha":717,"x_min":78,"x_max":618,"o":"m 353 587 q 245 572 298 587 q 151 528 193 556 l 100 616 q 226 673 155 651 q 375 694 298 694 q 559 623 500 694 q 618 410 618 551 l 618 0 l 511 0 l 500 79 l 496 79 q 428 26 456 45 q 364 -5 399 7 q 284 -17 328 -17 q 176 7 223 -17 q 104 76 130 31 q 78 180 78 121 q 488 429 78 411 q 457 548 488 509 q 353 587 427 587 m 488 172 l 488 347 q 271 298 336 341 q 205 188 205 255 q 237 112 205 137 q 322 87 268 87 q 403 107 366 87 q 488 172 440 127 m 372 -137 q 430 -160 407 -137 q 454 -218 454 -182 q 430 -276 454 -254 q 372 -298 407 -298 q 312 -276 336 -298 q 289 -218 289 -254 q 312 -160 289 -182 q 372 -137 336 -137 m 425 994 l 556 796 l 463 796 l 374 920 l 368 920 l 279 796 l 186 796 l 317 994 l 425 994 z "},"ắ":{"ha":717,"x_min":78,"x_max":618,"o":"m 353 587 q 245 572 298 587 q 151 528 193 556 l 100 616 q 226 673 155 651 q 375 694 298 694 q 559 623 500 694 q 618 410 618 551 l 618 0 l 511 0 l 500 79 l 496 79 q 428 26 456 45 q 364 -5 399 7 q 284 -17 328 -17 q 176 7 223 -17 q 104 76 130 31 q 78 180 78 121 q 488 429 78 411 q 457 548 488 509 q 353 587 427 587 m 488 172 l 488 347 q 271 298 336 341 q 205 188 205 255 q 237 112 205 137 q 322 87 268 87 q 403 107 366 87 q 488 172 440 127 m 501 1101 l 378 944 l 305 944 l 397 1101 l 501 1101 m 245 978 q 281 901 252 932 q 359 870 310 870 q 436 901 408 870 q 472 978 465 932 l 537 978 q 514 891 534 932 q 455 825 494 850 q 359 799 416 799 q 262 825 301 799 q 203 891 223 850 q 180 978 183 932 l 245 978 z "},"ằ":{"ha":717,"x_min":78,"x_max":618,"o":"m 353 587 q 245 572 298 587 q 151 528 193 556 l 100 616 q 226 673 155 651 q 375 694 298 694 q 559 623 500 694 q 618 410 618 551 l 618 0 l 511 0 l 500 79 l 496 79 q 428 26 456 45 q 364 -5 399 7 q 284 -17 328 -17 q 176 7 223 -17 q 104 76 130 31 q 78 180 78 121 q 488 429 78 411 q 457 548 488 509 q 353 587 427 587 m 488 172 l 488 347 q 271 298 336 341 q 205 188 205 255 q 237 112 205 137 q 322 87 268 87 q 403 107 366 87 q 488 172 440 127 m 347 944 l 224 1101 l 329 1101 l 420 944 l 347 944 m 254 978 q 289 901 260 932 q 367 870 318 870 q 445 901 416 870 q 480 978 473 932 l 545 978 q 523 891 543 932 q 464 825 503 850 q 367 799 425 799 q 270 825 309 799 q 211 891 231 850 q 189 978 191 932 l 254 978 z "},"ẳ":{"ha":717,"x_min":78,"x_max":618,"o":"m 353 587 q 245 572 298 587 q 151 528 193 556 l 100 616 q 226 673 155 651 q 375 694 298 694 q 559 623 500 694 q 618 410 618 551 l 618 0 l 511 0 l 500 79 l 496 79 q 428 26 456 45 q 364 -5 399 7 q 284 -17 328 -17 q 176 7 223 -17 q 104 76 130 31 q 78 180 78 121 q 488 429 78 411 q 457 548 488 509 q 353 587 427 587 m 488 172 l 488 347 q 271 298 336 341 q 205 188 205 255 q 237 112 205 137 q 322 87 268 87 q 403 107 366 87 q 488 172 440 127 m 362 1056 q 340 1095 362 1082 q 268 1111 318 1108 l 279 1173 q 455 1070 455 1168 q 418 992 455 1018 q 319 953 382 966 l 307 1004 q 348 1024 334 1013 q 362 1056 362 1036 m 245 978 q 280 901 252 932 q 358 870 309 870 q 436 901 407 870 q 471 978 465 932 l 536 978 q 514 891 534 932 q 455 825 494 850 q 358 799 416 799 q 261 825 300 799 q 202 891 222 850 q 180 978 182 932 l 245 978 z "},"ẵ":{"ha":717,"x_min":78,"x_max":618,"o":"m 353 587 q 245 572 298 587 q 151 528 193 556 l 100 616 q 226 673 155 651 q 375 694 298 694 q 559 623 500 694 q 618 410 618 551 l 618 0 l 511 0 l 500 79 l 496 79 q 428 26 456 45 q 364 -5 399 7 q 284 -17 328 -17 q 176 7 223 -17 q 104 76 130 31 q 78 180 78 121 q 488 429 78 411 q 457 548 488 509 q 353 587 427 587 m 488 172 l 488 347 q 271 298 336 341 q 205 188 205 255 q 237 112 205 137 q 322 87 268 87 q 403 107 366 87 q 488 172 440 127 m 391 1088 q 419 1069 408 1076 q 444 1063 431 1063 q 478 1078 465 1063 q 497 1122 492 1093 l 562 1122 q 525 1025 555 1061 q 448 989 495 989 q 404 998 422 989 q 361 1023 386 1006 q 332 1042 344 1036 q 307 1048 320 1048 q 254 989 264 1048 l 190 989 q 226 1086 196 1050 q 303 1122 256 1122 q 347 1113 329 1122 q 391 1088 366 1105 m 267 950 q 301 891 274 914 q 376 867 328 867 q 450 891 423 867 q 484 950 477 914 l 553 950 q 531 875 550 909 q 472 820 511 841 q 376 799 433 799 q 279 820 318 799 q 221 875 240 841 q 199 950 201 909 l 267 950 z "},"ặ":{"ha":717,"x_min":78,"x_max":618,"o":"m 353 587 q 245 572 298 587 q 151 528 193 556 l 100 616 q 226 673 155 651 q 375 694 298 694 q 559 623 500 694 q 618 410 618 551 l 618 0 l 511 0 l 500 79 l 496 79 q 428 26 456 45 q 364 -5 399 7 q 284 -17 328 -17 q 176 7 223 -17 q 104 76 130 31 q 78 180 78 121 q 488 429 78 411 q 457 548 488 509 q 353 587 427 587 m 488 172 l 488 347 q 271 298 336 341 q 205 188 205 255 q 237 112 205 137 q 322 87 268 87 q 403 107 366 87 q 488 172 440 127 m 271 978 q 302 906 277 935 q 372 877 328 877 q 440 906 415 877 q 471 978 465 935 l 550 978 q 527 891 547 932 q 468 825 507 850 q 372 799 429 799 q 275 825 314 799 q 215 891 235 850 q 193 978 195 932 l 271 978 m 372 -137 q 430 -160 407 -137 q 454 -218 454 -182 q 430 -276 454 -254 q 372 -298 407 -298 q 312 -276 336 -298 q 289 -218 289 -254 q 312 -160 289 -182 q 372 -137 336 -137 z "},"ẹ":{"ha":694,"x_min":61,"x_max":642,"o":"m 642 375 q 637 309 642 337 l 189 309 q 221 188 193 238 q 297 113 250 138 q 406 87 345 87 q 492 98 452 87 q 570 133 532 109 l 614 50 q 389 -17 513 -17 q 222 25 296 -17 q 104 147 147 66 q 61 338 61 227 q 102 529 61 449 q 214 652 144 610 q 368 694 283 694 q 573 611 504 694 q 642 375 642 527 m 370 592 q 283 569 323 592 q 219 502 244 547 q 188 393 194 456 l 529 393 q 370 592 529 592 m 369 971 q 428 948 404 971 q 451 890 451 926 q 428 832 451 854 q 369 810 404 810 q 310 832 333 810 q 286 890 286 854 q 310 948 286 926 q 369 971 333 971 z "},"ẻ":{"ha":694,"x_min":61,"x_max":642,"o":"m 642 375 q 637 309 642 337 l 189 309 q 221 188 193 238 q 297 113 250 138 q 406 87 345 87 q 492 98 452 87 q 570 133 532 109 l 614 50 q 389 -17 513 -17 q 222 25 296 -17 q 104 147 147 66 q 61 338 61 227 q 102 529 61 449 q 214 652 144 610 q 368 694 283 694 q 573 611 504 694 q 642 375 642 527 m 370 592 q 283 569 323 592 q 219 502 244 547 q 188 393 194 456 l 529 393 q 370 592 529 592 m 372 887 q 258 943 372 937 l 272 1016 q 420 984 370 1013 q 471 901 471 954 q 427 811 471 843 q 310 769 382 780 l 297 827 q 353 850 334 836 q 372 887 372 863 z "},"ẽ":{"ha":694,"x_min":61,"x_max":642,"o":"m 642 375 q 637 309 642 337 l 189 309 q 221 188 193 238 q 297 113 250 138 q 406 87 345 87 q 492 98 452 87 q 570 133 532 109 l 614 50 q 389 -17 513 -17 q 222 25 296 -17 q 104 147 147 66 q 61 338 61 227 q 102 529 61 449 q 214 652 144 610 q 368 694 283 694 q 573 611 504 694 q 642 375 642 527 m 370 592 q 283 569 323 592 q 219 502 244 547 q 188 393 194 456 l 529 393 q 370 592 529 592 m 386 917 q 421 895 408 902 q 448 888 435 888 q 480 905 468 888 q 497 958 492 922 l 568 958 q 533 845 563 887 q 452 804 503 804 q 405 814 427 804 q 353 844 382 824 q 318 865 333 858 q 290 873 303 873 q 258 856 269 873 q 241 804 246 839 l 168 804 q 204 916 174 873 q 286 958 235 958 q 334 947 312 958 q 386 917 356 937 z "},"ế":{"ha":694,"x_min":61,"x_max":705,"o":"m 642 375 q 637 309 642 337 l 189 309 q 221 188 193 238 q 297 113 250 138 q 406 87 345 87 q 492 98 452 87 q 570 133 532 109 l 614 50 q 389 -17 513 -17 q 222 25 296 -17 q 104 147 147 66 q 61 338 61 227 q 102 529 61 449 q 214 652 144 610 q 368 694 283 694 q 573 611 504 694 q 642 375 642 527 m 370 592 q 283 569 323 592 q 219 502 244 547 q 188 393 194 456 l 529 393 q 370 592 529 592 m 705 1050 l 576 890 l 498 890 l 598 1050 l 705 1050 m 423 964 l 537 796 l 450 796 l 372 895 l 367 895 l 289 796 l 202 796 l 316 964 l 423 964 z "},"ề":{"ha":694,"x_min":61,"x_max":661,"o":"m 642 375 q 637 309 642 337 l 189 309 q 221 188 193 238 q 297 113 250 138 q 406 87 345 87 q 492 98 452 87 q 570 133 532 109 l 614 50 q 389 -17 513 -17 q 222 25 296 -17 q 104 147 147 66 q 61 338 61 227 q 102 529 61 449 q 214 652 144 610 q 368 694 283 694 q 573 611 504 694 q 642 375 642 527 m 370 592 q 283 569 323 592 q 219 502 244 547 q 188 393 194 456 l 529 393 q 370 592 529 592 m 582 890 l 454 1050 l 559 1050 l 661 890 l 582 890 m 423 964 l 537 796 l 450 796 l 372 895 l 367 895 l 289 796 l 202 796 l 316 964 l 423 964 z "},"ể":{"ha":694,"x_min":61,"x_max":667,"o":"m 642 375 q 637 309 642 337 l 189 309 q 221 188 193 238 q 297 113 250 138 q 406 87 345 87 q 492 98 452 87 q 570 133 532 109 l 614 50 q 389 -17 513 -17 q 222 25 296 -17 q 104 147 147 66 q 61 338 61 227 q 102 529 61 449 q 214 652 144 610 q 368 694 283 694 q 573 611 504 694 q 642 375 642 527 m 370 592 q 283 569 323 592 q 219 502 244 547 q 188 393 194 456 l 529 393 q 370 592 529 592 m 574 976 q 553 1015 574 1002 q 480 1031 531 1028 l 492 1093 q 667 990 667 1086 q 631 911 667 937 q 532 872 595 886 l 519 925 q 560 944 546 932 q 574 976 574 956 m 419 964 l 533 796 l 446 796 l 368 895 l 363 895 l 285 796 l 198 796 l 312 964 l 419 964 z "},"ễ":{"ha":694,"x_min":61,"x_max":642,"o":"m 642 375 q 637 309 642 337 l 189 309 q 221 188 193 238 q 297 113 250 138 q 406 87 345 87 q 492 98 452 87 q 570 133 532 109 l 614 50 q 389 -17 513 -17 q 222 25 296 -17 q 104 147 147 66 q 61 338 61 227 q 102 529 61 449 q 214 652 144 610 q 368 694 283 694 q 573 611 504 694 q 642 375 642 527 m 370 592 q 283 569 323 592 q 219 502 244 547 q 188 393 194 456 l 529 393 q 370 592 529 592 m 384 1088 q 413 1069 401 1076 q 437 1063 425 1063 q 472 1078 458 1063 q 490 1122 486 1093 l 555 1122 q 518 1025 549 1061 q 441 989 488 989 q 397 998 416 989 q 354 1023 379 1006 q 325 1042 337 1036 q 300 1048 313 1048 q 248 989 257 1048 l 183 989 q 219 1086 189 1050 q 296 1122 249 1122 q 340 1113 322 1122 q 384 1088 359 1105 m 309 939 l 429 939 l 547 793 l 457 793 l 372 882 l 366 882 l 281 793 l 191 793 l 309 939 z "},"ệ":{"ha":694,"x_min":61,"x_max":642,"o":"m 642 375 q 637 309 642 337 l 189 309 q 221 188 193 238 q 297 113 250 138 q 406 87 345 87 q 492 98 452 87 q 570 133 532 109 l 614 50 q 389 -17 513 -17 q 222 25 296 -17 q 104 147 147 66 q 61 338 61 227 q 102 529 61 449 q 214 652 144 610 q 368 694 283 694 q 573 611 504 694 q 642 375 642 527 m 370 592 q 283 569 323 592 q 219 502 244 547 q 188 393 194 456 l 529 393 q 370 592 529 592 m 422 994 l 553 796 l 460 796 l 371 920 l 366 920 l 276 796 l 183 796 l 314 994 l 422 994 m 372 -137 q 430 -160 407 -137 q 454 -218 454 -182 q 430 -276 454 -254 q 372 -298 407 -298 q 312 -276 336 -298 q 289 -218 289 -254 q 312 -160 289 -182 q 372 -137 336 -137 z "},"ỉ":{"ha":349,"x_min":81,"x_max":295,"o":"m 240 677 l 240 0 l 110 0 l 110 677 l 240 677 m 195 887 q 81 943 195 937 l 96 1016 q 244 984 193 1013 q 295 901 295 954 q 250 811 295 843 q 134 769 205 780 l 121 827 q 176 850 157 836 q 195 887 195 863 z "},"ị":{"ha":349,"x_min":93,"x_max":258,"o":"m 176 971 q 234 948 211 971 q 258 890 258 926 q 234 832 258 854 q 176 810 211 810 q 116 832 140 810 q 93 890 93 854 q 116 948 93 926 q 176 971 140 971 m 176 -131 q 234 -154 211 -131 q 258 -212 258 -176 q 234 -270 258 -248 q 176 -292 211 -292 q 116 -270 140 -292 q 93 -212 93 -248 q 116 -154 93 -176 q 176 -131 140 -131 m 240 677 l 240 0 l 110 0 l 110 677 l 240 677 z "},"ọ":{"ha":756,"x_min":62,"x_max":695,"o":"m 695 339 q 652 148 695 229 q 537 25 610 67 q 378 -17 465 -17 q 219 25 291 -17 q 104 148 146 67 q 62 339 62 229 q 104 531 62 450 q 218 653 146 611 q 378 694 290 694 q 537 653 465 694 q 652 531 610 611 q 695 339 695 450 m 560 339 q 538 470 560 414 q 475 557 516 526 q 378 587 434 587 q 281 557 322 587 q 218 470 240 526 q 197 339 197 414 q 218 208 197 264 q 281 121 240 152 q 378 91 322 91 q 475 121 434 91 q 538 208 516 152 q 560 339 560 264 m 379 971 q 438 948 414 971 q 461 890 461 926 q 438 832 461 854 q 379 810 414 810 q 320 832 343 810 q 296 890 296 854 q 320 948 296 926 q 379 971 343 971 z "},"ỏ":{"ha":756,"x_min":62,"x_max":695,"o":"m 695 339 q 652 148 695 229 q 537 25 610 67 q 378 -17 465 -17 q 219 25 291 -17 q 104 148 146 67 q 62 339 62 229 q 104 531 62 450 q 218 653 146 611 q 378 694 290 694 q 537 653 465 694 q 652 531 610 611 q 695 339 695 450 m 560 339 q 538 470 560 414 q 475 557 516 526 q 378 587 434 587 q 281 557 322 587 q 218 470 240 526 q 197 339 197 414 q 218 208 197 264 q 281 121 240 152 q 378 91 322 91 q 475 121 434 91 q 538 208 516 152 q 560 339 560 264 m 402 887 q 288 943 402 937 l 302 1016 q 451 984 400 1013 q 502 901 502 954 q 457 811 502 843 q 340 769 412 780 l 328 827 q 383 850 364 836 q 402 887 402 863 z "},"ố":{"ha":756,"x_min":62,"x_max":712,"o":"m 695 339 q 652 148 695 229 q 537 25 610 67 q 378 -17 465 -17 q 219 25 291 -17 q 104 148 146 67 q 62 339 62 229 q 104 531 62 450 q 218 653 146 611 q 378 694 290 694 q 537 653 465 694 q 652 531 610 611 q 695 339 695 450 m 560 339 q 538 470 560 414 q 475 557 516 526 q 378 587 434 587 q 281 557 322 587 q 218 470 240 526 q 197 339 197 414 q 218 208 197 264 q 281 121 240 152 q 378 91 322 91 q 475 121 434 91 q 538 208 516 152 q 560 339 560 264 m 712 1050 l 583 890 l 505 890 l 605 1050 l 712 1050 m 430 964 l 544 796 l 457 796 l 379 895 l 374 895 l 296 796 l 209 796 l 323 964 l 430 964 z "},"ồ":{"ha":756,"x_min":62,"x_max":695,"o":"m 695 339 q 652 148 695 229 q 537 25 610 67 q 378 -17 465 -17 q 219 25 291 -17 q 104 148 146 67 q 62 339 62 229 q 104 531 62 450 q 218 653 146 611 q 378 694 290 694 q 537 653 465 694 q 652 531 610 611 q 695 339 695 450 m 560 339 q 538 470 560 414 q 475 557 516 526 q 378 587 434 587 q 281 557 322 587 q 218 470 240 526 q 197 339 197 414 q 218 208 197 264 q 281 121 240 152 q 378 91 322 91 q 475 121 434 91 q 538 208 516 152 q 560 339 560 264 m 609 890 l 481 1050 l 587 1050 l 688 890 l 609 890 m 450 964 l 564 796 l 477 796 l 399 895 l 394 895 l 316 796 l 229 796 l 343 964 l 450 964 z "},"ổ":{"ha":756,"x_min":62,"x_max":695,"o":"m 695 339 q 652 148 695 229 q 537 25 610 67 q 378 -17 465 -17 q 219 25 291 -17 q 104 148 146 67 q 62 339 62 229 q 104 531 62 450 q 218 653 146 611 q 378 694 290 694 q 537 653 465 694 q 652 531 610 611 q 695 339 695 450 m 560 339 q 538 470 560 414 q 475 557 516 526 q 378 587 434 587 q 281 557 322 587 q 218 470 240 526 q 197 339 197 414 q 218 208 197 264 q 281 121 240 152 q 378 91 322 91 q 475 121 434 91 q 538 208 516 152 q 560 339 560 264 m 586 976 q 564 1015 586 1002 q 492 1031 543 1028 l 503 1093 q 679 990 679 1086 q 643 911 679 937 q 544 872 607 886 l 531 925 q 572 944 557 932 q 586 976 586 956 m 431 964 l 545 796 l 458 796 l 380 895 l 374 895 l 296 796 l 210 796 l 323 964 l 431 964 z "},"ỗ":{"ha":756,"x_min":62,"x_max":695,"o":"m 695 339 q 652 148 695 229 q 537 25 610 67 q 378 -17 465 -17 q 219 25 291 -17 q 104 148 146 67 q 62 339 62 229 q 104 531 62 450 q 218 653 146 611 q 378 694 290 694 q 537 653 465 694 q 652 531 610 611 q 695 339 695 450 m 560 339 q 538 470 560 414 q 475 557 516 526 q 378 587 434 587 q 281 557 322 587 q 218 470 240 526 q 197 339 197 414 q 218 208 197 264 q 281 121 240 152 q 378 91 322 91 q 475 121 434 91 q 538 208 516 152 q 560 339 560 264 m 391 1088 q 420 1069 408 1076 q 445 1063 432 1063 q 479 1078 465 1063 q 498 1122 493 1093 l 562 1122 q 526 1025 556 1061 q 449 989 496 989 q 405 998 423 989 q 361 1023 387 1006 q 333 1042 345 1036 q 308 1048 321 1048 q 255 989 264 1048 l 191 989 q 227 1086 197 1050 q 304 1122 256 1122 q 348 1113 330 1122 q 391 1088 366 1105 m 316 939 l 437 939 l 555 793 l 465 793 l 379 882 l 374 882 l 288 793 l 198 793 l 316 939 z "},"ộ":{"ha":756,"x_min":62,"x_max":695,"o":"m 695 339 q 652 148 695 229 q 537 25 610 67 q 378 -17 465 -17 q 219 25 291 -17 q 104 148 146 67 q 62 339 62 229 q 104 531 62 450 q 218 653 146 611 q 378 694 290 694 q 537 653 465 694 q 652 531 610 611 q 695 339 695 450 m 560 339 q 538 470 560 414 q 475 557 516 526 q 378 587 434 587 q 281 557 322 587 q 218 470 240 526 q 197 339 197 414 q 218 208 197 264 q 281 121 240 152 q 378 91 322 91 q 475 121 434 91 q 538 208 516 152 q 560 339 560 264 m 432 994 l 564 796 l 470 796 l 381 920 l 376 920 l 286 796 l 193 796 l 324 994 l 432 994 m 372 -137 q 430 -160 407 -137 q 454 -218 454 -182 q 430 -276 454 -254 q 372 -298 407 -298 q 312 -276 336 -298 q 289 -218 289 -254 q 312 -160 289 -182 q 372 -137 336 -137 z "},"ớ":{"ha":756,"x_min":61,"x_max":713,"o":"m 713 764 q 677 669 713 705 q 583 616 642 633 q 665 498 635 568 q 695 338 695 427 q 652 149 695 229 q 536 26 608 68 q 378 -17 463 -17 q 221 26 294 -17 q 104 149 148 68 q 61 338 61 229 q 104 528 61 447 q 220 652 148 609 q 378 694 293 694 q 509 665 449 694 q 582 695 557 673 q 607 754 607 717 q 586 814 607 783 l 680 858 q 713 764 713 814 m 378 587 q 283 556 324 587 q 219 468 241 525 q 196 338 196 412 q 219 209 196 264 q 283 122 241 153 q 378 91 324 91 q 474 122 433 91 q 538 209 515 153 q 560 338 560 264 q 538 468 560 412 q 474 556 515 525 q 378 587 433 587 m 296 796 l 420 994 l 554 994 l 395 796 l 296 796 z "},"ờ":{"ha":756,"x_min":61,"x_max":713,"o":"m 713 764 q 677 669 713 705 q 583 616 642 633 q 665 498 635 568 q 695 338 695 427 q 652 149 695 229 q 536 26 608 68 q 378 -17 463 -17 q 221 26 294 -17 q 104 149 148 68 q 61 338 61 229 q 104 528 61 447 q 220 652 148 609 q 378 694 293 694 q 509 665 449 694 q 582 695 557 673 q 607 754 607 717 q 586 814 607 783 l 680 858 q 713 764 713 814 m 378 587 q 283 556 324 587 q 219 468 241 525 q 196 338 196 412 q 219 209 196 264 q 283 122 241 153 q 378 91 324 91 q 474 122 433 91 q 538 209 515 153 q 560 338 560 264 q 538 468 560 412 q 474 556 515 525 q 378 587 433 587 m 321 994 l 446 796 l 347 796 l 187 994 l 321 994 z "},"ở":{"ha":756,"x_min":61,"x_max":713,"o":"m 713 764 q 677 669 713 705 q 583 616 642 633 q 665 498 635 568 q 695 338 695 427 q 652 149 695 229 q 536 26 608 68 q 378 -17 463 -17 q 221 26 294 -17 q 104 149 148 68 q 61 338 61 229 q 104 528 61 447 q 220 652 148 609 q 378 694 293 694 q 509 665 449 694 q 582 695 557 673 q 607 754 607 717 q 586 814 607 783 l 680 858 q 713 764 713 814 m 378 587 q 283 556 324 587 q 219 468 241 525 q 196 338 196 412 q 219 209 196 264 q 283 122 241 153 q 378 91 324 91 q 474 122 433 91 q 538 209 515 153 q 560 338 560 264 q 538 468 560 412 q 474 556 515 525 q 378 587 433 587 z "}}}
